G04 #@! TF.GenerationSoftware,KiCad,Pcbnew,8.0.7*
G04 #@! TF.CreationDate,2024-12-09T10:58:11-05:00*
G04 #@! TF.ProjectId,template,74656d70-6c61-4746-952e-6b696361645f,rev?*
G04 #@! TF.SameCoordinates,Original*
G04 #@! TF.FileFunction,Profile,NP*
%FSLAX46Y46*%
G04 Gerber Fmt 4.6, Leading zero omitted, Abs format (unit mm)*
G04 Created by KiCad (PCBNEW 8.0.7) date 2024-12-09 10:58:11*
%MOMM*%
%LPD*%
G01*
G04 APERTURE LIST*
G04 #@! TA.AperFunction,Profile*
%ADD10C,0.250000*%
G04 #@! TD*
%ADD11C,0.250000*%
G04 #@! TA.AperFunction,Profile*
%ADD12C,0.100000*%
G04 #@! TD*
G04 APERTURE END LIST*
D10*
X112763305Y-110068595D02*
G75*
G02*
X106063305Y-110068595I-3350000J0D01*
G01*
X106063305Y-110068595D02*
G75*
G02*
X112763305Y-110068595I3350000J0D01*
G01*
D11*
X116139347Y-63480372D02*
X116038286Y-63826318D01*
X115940856Y-64170649D01*
X115846809Y-64513629D01*
X115755896Y-64855521D01*
X115667868Y-65196591D01*
X115582476Y-65537101D01*
X115499471Y-65877316D01*
X115418605Y-66217500D01*
X115339628Y-66557917D01*
X115262292Y-66898832D01*
X115186349Y-67240507D01*
X115111549Y-67583208D01*
X115037643Y-67927199D01*
X114964383Y-68272743D01*
X114891519Y-68620105D01*
X114818804Y-68969548D01*
X114745988Y-69321337D01*
X114672823Y-69675736D01*
X114599059Y-70033009D01*
X114524447Y-70393421D01*
X114448740Y-70757234D01*
X114371688Y-71124713D01*
X114293043Y-71496123D01*
X114212555Y-71871727D01*
X114129975Y-72251790D01*
X114045056Y-72636575D01*
X113957548Y-73026346D01*
X113867202Y-73421369D01*
X113773770Y-73821906D01*
X113677002Y-74228222D01*
X113576650Y-74640581D01*
X113472466Y-75059248D01*
D10*
X174463305Y-63648595D02*
G75*
G02*
X167763305Y-63648595I-3350000J0D01*
G01*
X167763305Y-63648595D02*
G75*
G02*
X174463305Y-63648595I3350000J0D01*
G01*
D11*
X183848256Y-89194164D02*
X183958363Y-89475167D01*
X184066992Y-89750420D01*
X184175146Y-90024632D01*
X184283827Y-90302512D01*
X184394038Y-90588767D01*
X184506781Y-90888108D01*
X184593604Y-91124033D01*
X184682837Y-91371953D01*
X184743875Y-91544879D01*
X175818122Y-61288482D02*
X175959251Y-61543791D01*
X176088420Y-61807072D01*
X176206967Y-62077007D01*
X176316231Y-62352277D01*
X176417554Y-62631567D01*
X176512274Y-62913557D01*
X176601730Y-63196931D01*
X176687264Y-63480372D01*
X104200217Y-108833629D02*
X104181615Y-109087934D01*
X104165425Y-109339035D01*
X104145663Y-109710038D01*
X104131327Y-110074753D01*
X104122416Y-110433733D01*
X104118929Y-110787532D01*
X104120866Y-111136701D01*
X104128225Y-111481796D01*
X104141007Y-111823368D01*
X104159209Y-112161970D01*
X104182831Y-112498156D01*
X104191910Y-112609777D01*
X188626393Y-108833629D02*
X188644994Y-109087934D01*
X188661184Y-109339035D01*
X188680946Y-109710038D01*
X188695282Y-110074753D01*
X188704193Y-110433733D01*
X188707680Y-110787532D01*
X188705743Y-111136701D01*
X188698384Y-111481796D01*
X188685602Y-111823368D01*
X188667400Y-112161970D01*
X188643778Y-112498156D01*
X188634700Y-112609777D01*
X104191910Y-112609777D02*
X104238744Y-113096279D01*
X104297031Y-113578473D01*
X104366673Y-114055629D01*
X104447574Y-114527015D01*
X104539638Y-114991902D01*
X104642768Y-115449560D01*
X104756867Y-115899257D01*
X104881839Y-116340265D01*
X105017589Y-116771851D01*
X105164018Y-117193287D01*
X105321032Y-117603842D01*
X105488533Y-118002786D01*
X105666425Y-118389387D01*
X105854611Y-118762917D01*
X106052996Y-119122644D01*
X106261482Y-119467839D01*
X106479974Y-119797771D01*
X106708374Y-120111710D01*
X106946587Y-120408925D01*
X107194516Y-120688686D01*
X107452065Y-120950263D01*
X107719136Y-121192926D01*
X107995634Y-121415944D01*
X108281463Y-121618587D01*
X108576525Y-121800124D01*
X108880725Y-121959827D01*
X109193965Y-122096963D01*
X109516150Y-122210803D01*
X109847183Y-122300616D01*
X110186967Y-122365673D01*
X110535407Y-122405242D01*
X110892406Y-122418595D01*
X184743875Y-91544879D02*
X184866263Y-91899788D01*
X184993395Y-92279115D01*
X185124790Y-92681613D01*
X185259965Y-93106037D01*
X185398441Y-93551141D01*
X185539735Y-94015679D01*
X185683367Y-94498405D01*
X185828856Y-94998073D01*
X185975720Y-95513438D01*
X186123477Y-96043254D01*
X186271648Y-96586274D01*
X186419750Y-97141253D01*
X186567303Y-97706946D01*
X186713824Y-98282105D01*
X186858834Y-98865486D01*
X187001851Y-99455843D01*
X187142393Y-100051930D01*
X187279980Y-100652500D01*
X187414130Y-101256309D01*
X187544362Y-101862109D01*
X187670195Y-102468657D01*
X187791148Y-103074704D01*
X187906739Y-103679007D01*
X188016487Y-104280318D01*
X188119912Y-104877393D01*
X188216531Y-105468984D01*
X188305864Y-106053847D01*
X188387430Y-106630736D01*
X188460746Y-107198404D01*
X188525333Y-107755606D01*
X188580709Y-108301096D01*
X188626393Y-108833629D01*
D10*
X186763305Y-110068595D02*
G75*
G02*
X180063305Y-110068595I-3350000J0D01*
G01*
X180063305Y-110068595D02*
G75*
G02*
X186763305Y-110068595I3350000J0D01*
G01*
D11*
X167784109Y-59460642D02*
X168016021Y-59282871D01*
X168256406Y-59122828D01*
X168504540Y-58980254D01*
X168759699Y-58854894D01*
X169021159Y-58746489D01*
X169288197Y-58654782D01*
X169560088Y-58579516D01*
X169836111Y-58520433D01*
X170115539Y-58477277D01*
X170397651Y-58449790D01*
X170681722Y-58437714D01*
X170967028Y-58440792D01*
X171252846Y-58458767D01*
X171538453Y-58491382D01*
X171823123Y-58538379D01*
X172106135Y-58599501D01*
X172386763Y-58674491D01*
X172664285Y-58763091D01*
X172937976Y-58865044D01*
X173207114Y-58980093D01*
X173470973Y-59107980D01*
X173728832Y-59248448D01*
X173979965Y-59401240D01*
X174223649Y-59566099D01*
X174459161Y-59742766D01*
X174685776Y-59930986D01*
X174902772Y-60130500D01*
X175109424Y-60341051D01*
X175305008Y-60562382D01*
X175488802Y-60794236D01*
X175660081Y-61036355D01*
X175818122Y-61288482D01*
X113472466Y-75059248D02*
X113359507Y-75502873D01*
X113242349Y-75952989D01*
X113121233Y-76408934D01*
X112996403Y-76870048D01*
X112868102Y-77335667D01*
X112736571Y-77805132D01*
X112602054Y-78277780D01*
X112464792Y-78752951D01*
X112325030Y-79229983D01*
X112183010Y-79708214D01*
X112038973Y-80186983D01*
X111893164Y-80665630D01*
X111745824Y-81143491D01*
X111597197Y-81619907D01*
X111447524Y-82094216D01*
X111297049Y-82565756D01*
X111146015Y-83033865D01*
X110994663Y-83497883D01*
X110843237Y-83957149D01*
X110691979Y-84411000D01*
X110541133Y-84858776D01*
X110390940Y-85299814D01*
X110241643Y-85733454D01*
X110093486Y-86159035D01*
X109946710Y-86575894D01*
X109801559Y-86983371D01*
X109658275Y-87380804D01*
X109517100Y-87767532D01*
X109378278Y-88142893D01*
X109242051Y-88506227D01*
X109108662Y-88856870D01*
X108978354Y-89194164D01*
X134473131Y-69088595D02*
X133941660Y-69067969D01*
X133439442Y-69007542D01*
X132965080Y-68909486D01*
X132517176Y-68775971D01*
X132094331Y-68609171D01*
X131695149Y-68411258D01*
X131318231Y-68184403D01*
X130962179Y-67930779D01*
X130625595Y-67652558D01*
X130307083Y-67351913D01*
X130005243Y-67031014D01*
X129718678Y-66692036D01*
X129445991Y-66337148D01*
X129185783Y-65968525D01*
X128936656Y-65588337D01*
X128697214Y-65198758D01*
X128466057Y-64801958D01*
X128241789Y-64400111D01*
X128023010Y-63995388D01*
X127808325Y-63589962D01*
X127596334Y-63186005D01*
X127385639Y-62785688D01*
X127174844Y-62391184D01*
X126962550Y-62004666D01*
X126747359Y-61628305D01*
X126527874Y-61264273D01*
X126302696Y-60914743D01*
X126070429Y-60581887D01*
X125829673Y-60267876D01*
X125579032Y-59974884D01*
X125317107Y-59705082D01*
X125042501Y-59460642D01*
X188634700Y-112609777D02*
X188587865Y-113096279D01*
X188529578Y-113578473D01*
X188459936Y-114055629D01*
X188379035Y-114527015D01*
X188286971Y-114991902D01*
X188183842Y-115449560D01*
X188069742Y-115899257D01*
X187944770Y-116340265D01*
X187809021Y-116771851D01*
X187662591Y-117193287D01*
X187505578Y-117603842D01*
X187338077Y-118002786D01*
X187160185Y-118389387D01*
X186971998Y-118762917D01*
X186773614Y-119122644D01*
X186565127Y-119467839D01*
X186346636Y-119797771D01*
X186118235Y-120111710D01*
X185880022Y-120408925D01*
X185632093Y-120688686D01*
X185374545Y-120950263D01*
X185107474Y-121192926D01*
X184830975Y-121415944D01*
X184545147Y-121618587D01*
X184250085Y-121800124D01*
X183945885Y-121959827D01*
X183632645Y-122096963D01*
X183310460Y-122210803D01*
X182979427Y-122300616D01*
X182639643Y-122365673D01*
X182291203Y-122405242D01*
X181934205Y-122418595D01*
D10*
X156558096Y-69088907D02*
X158353479Y-69088595D01*
D11*
X158353479Y-69088595D02*
X158884949Y-69067969D01*
X159387167Y-69007542D01*
X159861529Y-68909486D01*
X160309434Y-68775971D01*
X160732278Y-68609171D01*
X161131461Y-68411258D01*
X161508379Y-68184403D01*
X161864431Y-67930779D01*
X162201014Y-67652558D01*
X162519527Y-67351913D01*
X162821367Y-67031014D01*
X163107931Y-66692036D01*
X163380619Y-66337148D01*
X163640827Y-65968525D01*
X163889953Y-65588337D01*
X164129396Y-65198758D01*
X164360553Y-64801958D01*
X164584821Y-64400111D01*
X164803599Y-63995388D01*
X165018285Y-63589962D01*
X165230276Y-63186005D01*
X165440970Y-62785688D01*
X165651766Y-62391184D01*
X165864060Y-62004666D01*
X166079250Y-61628305D01*
X166298736Y-61264273D01*
X166523913Y-60914743D01*
X166756181Y-60581887D01*
X166996936Y-60267876D01*
X167247577Y-59974884D01*
X167509502Y-59705082D01*
X167784109Y-59460642D01*
D10*
X136258096Y-69088907D02*
X134473131Y-69088595D01*
X110892406Y-122418595D02*
X181934205Y-122418595D01*
D11*
X179354144Y-75059248D02*
X179467102Y-75502873D01*
X179584260Y-75952989D01*
X179705376Y-76408934D01*
X179830206Y-76870048D01*
X179958507Y-77335667D01*
X180090038Y-77805132D01*
X180224555Y-78277780D01*
X180361817Y-78752951D01*
X180501579Y-79229983D01*
X180643599Y-79708214D01*
X180787636Y-80186983D01*
X180933445Y-80665630D01*
X181080785Y-81143491D01*
X181229412Y-81619907D01*
X181379085Y-82094216D01*
X181529560Y-82565756D01*
X181680594Y-83033865D01*
X181831946Y-83497883D01*
X181983372Y-83957149D01*
X182134630Y-84411000D01*
X182285476Y-84858776D01*
X182435669Y-85299814D01*
X182584966Y-85733454D01*
X182733123Y-86159035D01*
X182879899Y-86575894D01*
X183025050Y-86983371D01*
X183168334Y-87380804D01*
X183309509Y-87767532D01*
X183448331Y-88142893D01*
X183584558Y-88506227D01*
X183717947Y-88856870D01*
X183848256Y-89194164D01*
X108978354Y-89194164D02*
X108868246Y-89475167D01*
X108759617Y-89750420D01*
X108651463Y-90024632D01*
X108542782Y-90302512D01*
X108432572Y-90588767D01*
X108319829Y-90888108D01*
X108233006Y-91124033D01*
X108143773Y-91371953D01*
X108082736Y-91544879D01*
X176687264Y-63480372D02*
X176788324Y-63826318D01*
X176885754Y-64170649D01*
X176979801Y-64513629D01*
X177070714Y-64855521D01*
X177158742Y-65196591D01*
X177244134Y-65537101D01*
X177327139Y-65877316D01*
X177408005Y-66217500D01*
X177486982Y-66557917D01*
X177564317Y-66898832D01*
X177640261Y-67240507D01*
X177715061Y-67583208D01*
X177788967Y-67927199D01*
X177862227Y-68272743D01*
X177935090Y-68620105D01*
X178007805Y-68969548D01*
X178080621Y-69321337D01*
X178153787Y-69675736D01*
X178227551Y-70033009D01*
X178302162Y-70393421D01*
X178377869Y-70757234D01*
X178454921Y-71124713D01*
X178533567Y-71496123D01*
X178614055Y-71871727D01*
X178696634Y-72251790D01*
X178781553Y-72636575D01*
X178869062Y-73026346D01*
X178959407Y-73421369D01*
X179052840Y-73821906D01*
X179149607Y-74228222D01*
X179249959Y-74640581D01*
X179354144Y-75059248D01*
X108082736Y-91544879D02*
X107960347Y-91899788D01*
X107833215Y-92279115D01*
X107701820Y-92681613D01*
X107566645Y-93106037D01*
X107428169Y-93551141D01*
X107286874Y-94015679D01*
X107143242Y-94498405D01*
X106997754Y-94998073D01*
X106850890Y-95513438D01*
X106703132Y-96043254D01*
X106554961Y-96586274D01*
X106406859Y-97141253D01*
X106259307Y-97706946D01*
X106112785Y-98282105D01*
X105967775Y-98865486D01*
X105824758Y-99455843D01*
X105684216Y-100051930D01*
X105546629Y-100652500D01*
X105412479Y-101256309D01*
X105282247Y-101862109D01*
X105156414Y-102468657D01*
X105035461Y-103074704D01*
X104919870Y-103679007D01*
X104810122Y-104280318D01*
X104706697Y-104877393D01*
X104610078Y-105468984D01*
X104520745Y-106053847D01*
X104439179Y-106630736D01*
X104365863Y-107198404D01*
X104301276Y-107755606D01*
X104245900Y-108301096D01*
X104200217Y-108833629D01*
X125042501Y-59460642D02*
X124810588Y-59282871D01*
X124570203Y-59122828D01*
X124322069Y-58980254D01*
X124066910Y-58854894D01*
X123805450Y-58746489D01*
X123538412Y-58654782D01*
X123266521Y-58579516D01*
X122990498Y-58520433D01*
X122711070Y-58477277D01*
X122428958Y-58449790D01*
X122144887Y-58437714D01*
X121859581Y-58440792D01*
X121573763Y-58458767D01*
X121288156Y-58491382D01*
X121003486Y-58538379D01*
X120720474Y-58599501D01*
X120439846Y-58674491D01*
X120162324Y-58763091D01*
X119888633Y-58865044D01*
X119619495Y-58980093D01*
X119355636Y-59107980D01*
X119097778Y-59248448D01*
X118846645Y-59401240D01*
X118602960Y-59566099D01*
X118367449Y-59742766D01*
X118140833Y-59930986D01*
X117923838Y-60130500D01*
X117717186Y-60341051D01*
X117521601Y-60562382D01*
X117337808Y-60794236D01*
X117166529Y-61036355D01*
X117008489Y-61288482D01*
X117008489Y-61288482D02*
X116867359Y-61543791D01*
X116738190Y-61807072D01*
X116619643Y-62077007D01*
X116510379Y-62352277D01*
X116409056Y-62631567D01*
X116314336Y-62913557D01*
X116224880Y-63196931D01*
X116139347Y-63480372D01*
D10*
X125063305Y-63648595D02*
G75*
G02*
X118363305Y-63648595I-3350000J0D01*
G01*
X118363305Y-63648595D02*
G75*
G02*
X125063305Y-63648595I3350000J0D01*
G01*
D12*
G04 #@! TO.C,J1*
X136258096Y-61188907D02*
X136758096Y-60688907D01*
X136258096Y-69088907D02*
X136258096Y-61188907D01*
X142958096Y-60688907D02*
X136758096Y-60688907D01*
X143458096Y-61188907D02*
X142958096Y-60688907D01*
X143458096Y-68138907D02*
X143458096Y-61188907D01*
X145358096Y-61188907D02*
X145858096Y-60688907D01*
X145358096Y-68138907D02*
X145358096Y-61188907D01*
X156058096Y-60688907D02*
X145858096Y-60688907D01*
X156558096Y-61188907D02*
X156058096Y-60688907D01*
X156558096Y-69088907D02*
X156558096Y-61188907D01*
X145358096Y-68138907D02*
G75*
G02*
X143458096Y-68138907I-950000J0D01*
G01*
G04 #@! TD*
M02*
