G04 #@! TF.GenerationSoftware,KiCad,Pcbnew,8.0.7*
G04 #@! TF.CreationDate,2024-12-09T10:58:11-05:00*
G04 #@! TF.ProjectId,template,74656d70-6c61-4746-952e-6b696361645f,rev?*
G04 #@! TF.SameCoordinates,Original*
G04 #@! TF.FileFunction,AssemblyDrawing,Top*
%FSLAX46Y46*%
G04 Gerber Fmt 4.6, Leading zero omitted, Abs format (unit mm)*
G04 Created by KiCad (PCBNEW 8.0.7) date 2024-12-09 10:58:11*
%MOMM*%
%LPD*%
G01*
G04 APERTURE LIST*
%ADD10C,0.150000*%
G04 APERTURE END LIST*
D10*
X138673333Y-72079916D02*
X138816190Y-72127535D01*
X138816190Y-72127535D02*
X138863809Y-72175154D01*
X138863809Y-72175154D02*
X138911428Y-72270392D01*
X138911428Y-72270392D02*
X138911428Y-72413249D01*
X138911428Y-72413249D02*
X138863809Y-72508487D01*
X138863809Y-72508487D02*
X138816190Y-72556107D01*
X138816190Y-72556107D02*
X138720952Y-72603726D01*
X138720952Y-72603726D02*
X138340000Y-72603726D01*
X138340000Y-72603726D02*
X138340000Y-71603726D01*
X138340000Y-71603726D02*
X138673333Y-71603726D01*
X138673333Y-71603726D02*
X138768571Y-71651345D01*
X138768571Y-71651345D02*
X138816190Y-71698964D01*
X138816190Y-71698964D02*
X138863809Y-71794202D01*
X138863809Y-71794202D02*
X138863809Y-71889440D01*
X138863809Y-71889440D02*
X138816190Y-71984678D01*
X138816190Y-71984678D02*
X138768571Y-72032297D01*
X138768571Y-72032297D02*
X138673333Y-72079916D01*
X138673333Y-72079916D02*
X138340000Y-72079916D01*
X139768571Y-71937059D02*
X139768571Y-72603726D01*
X139340000Y-71937059D02*
X139340000Y-72460868D01*
X139340000Y-72460868D02*
X139387619Y-72556107D01*
X139387619Y-72556107D02*
X139482857Y-72603726D01*
X139482857Y-72603726D02*
X139625714Y-72603726D01*
X139625714Y-72603726D02*
X139720952Y-72556107D01*
X139720952Y-72556107D02*
X139768571Y-72508487D01*
X140197143Y-72556107D02*
X140292381Y-72603726D01*
X140292381Y-72603726D02*
X140482857Y-72603726D01*
X140482857Y-72603726D02*
X140578095Y-72556107D01*
X140578095Y-72556107D02*
X140625714Y-72460868D01*
X140625714Y-72460868D02*
X140625714Y-72413249D01*
X140625714Y-72413249D02*
X140578095Y-72318011D01*
X140578095Y-72318011D02*
X140482857Y-72270392D01*
X140482857Y-72270392D02*
X140340000Y-72270392D01*
X140340000Y-72270392D02*
X140244762Y-72222773D01*
X140244762Y-72222773D02*
X140197143Y-72127535D01*
X140197143Y-72127535D02*
X140197143Y-72079916D01*
X140197143Y-72079916D02*
X140244762Y-71984678D01*
X140244762Y-71984678D02*
X140340000Y-71937059D01*
X140340000Y-71937059D02*
X140482857Y-71937059D01*
X140482857Y-71937059D02*
X140578095Y-71984678D01*
X140816191Y-72698964D02*
X141578095Y-72698964D01*
X141816191Y-72603726D02*
X141816191Y-71603726D01*
X141816191Y-71603726D02*
X142197143Y-71603726D01*
X142197143Y-71603726D02*
X142292381Y-71651345D01*
X142292381Y-71651345D02*
X142340000Y-71698964D01*
X142340000Y-71698964D02*
X142387619Y-71794202D01*
X142387619Y-71794202D02*
X142387619Y-71937059D01*
X142387619Y-71937059D02*
X142340000Y-72032297D01*
X142340000Y-72032297D02*
X142292381Y-72079916D01*
X142292381Y-72079916D02*
X142197143Y-72127535D01*
X142197143Y-72127535D02*
X141816191Y-72127535D01*
X143387619Y-72508487D02*
X143340000Y-72556107D01*
X143340000Y-72556107D02*
X143197143Y-72603726D01*
X143197143Y-72603726D02*
X143101905Y-72603726D01*
X143101905Y-72603726D02*
X142959048Y-72556107D01*
X142959048Y-72556107D02*
X142863810Y-72460868D01*
X142863810Y-72460868D02*
X142816191Y-72365630D01*
X142816191Y-72365630D02*
X142768572Y-72175154D01*
X142768572Y-72175154D02*
X142768572Y-72032297D01*
X142768572Y-72032297D02*
X142816191Y-71841821D01*
X142816191Y-71841821D02*
X142863810Y-71746583D01*
X142863810Y-71746583D02*
X142959048Y-71651345D01*
X142959048Y-71651345D02*
X143101905Y-71603726D01*
X143101905Y-71603726D02*
X143197143Y-71603726D01*
X143197143Y-71603726D02*
X143340000Y-71651345D01*
X143340000Y-71651345D02*
X143387619Y-71698964D01*
X143816191Y-72603726D02*
X143816191Y-71603726D01*
X144054286Y-72698964D02*
X144816190Y-72698964D01*
X145054286Y-72079916D02*
X145387619Y-72079916D01*
X145530476Y-72603726D02*
X145054286Y-72603726D01*
X145054286Y-72603726D02*
X145054286Y-71603726D01*
X145054286Y-71603726D02*
X145530476Y-71603726D01*
X145863810Y-72603726D02*
X146387619Y-71937059D01*
X145863810Y-71937059D02*
X146387619Y-72603726D01*
X146768572Y-71937059D02*
X146768572Y-72937059D01*
X146768572Y-71984678D02*
X146863810Y-71937059D01*
X146863810Y-71937059D02*
X147054286Y-71937059D01*
X147054286Y-71937059D02*
X147149524Y-71984678D01*
X147149524Y-71984678D02*
X147197143Y-72032297D01*
X147197143Y-72032297D02*
X147244762Y-72127535D01*
X147244762Y-72127535D02*
X147244762Y-72413249D01*
X147244762Y-72413249D02*
X147197143Y-72508487D01*
X147197143Y-72508487D02*
X147149524Y-72556107D01*
X147149524Y-72556107D02*
X147054286Y-72603726D01*
X147054286Y-72603726D02*
X146863810Y-72603726D01*
X146863810Y-72603726D02*
X146768572Y-72556107D01*
X147673334Y-72603726D02*
X147673334Y-71937059D01*
X147673334Y-72127535D02*
X147720953Y-72032297D01*
X147720953Y-72032297D02*
X147768572Y-71984678D01*
X147768572Y-71984678D02*
X147863810Y-71937059D01*
X147863810Y-71937059D02*
X147959048Y-71937059D01*
X148673334Y-72556107D02*
X148578096Y-72603726D01*
X148578096Y-72603726D02*
X148387620Y-72603726D01*
X148387620Y-72603726D02*
X148292382Y-72556107D01*
X148292382Y-72556107D02*
X148244763Y-72460868D01*
X148244763Y-72460868D02*
X148244763Y-72079916D01*
X148244763Y-72079916D02*
X148292382Y-71984678D01*
X148292382Y-71984678D02*
X148387620Y-71937059D01*
X148387620Y-71937059D02*
X148578096Y-71937059D01*
X148578096Y-71937059D02*
X148673334Y-71984678D01*
X148673334Y-71984678D02*
X148720953Y-72079916D01*
X148720953Y-72079916D02*
X148720953Y-72175154D01*
X148720953Y-72175154D02*
X148244763Y-72270392D01*
X149101906Y-72556107D02*
X149197144Y-72603726D01*
X149197144Y-72603726D02*
X149387620Y-72603726D01*
X149387620Y-72603726D02*
X149482858Y-72556107D01*
X149482858Y-72556107D02*
X149530477Y-72460868D01*
X149530477Y-72460868D02*
X149530477Y-72413249D01*
X149530477Y-72413249D02*
X149482858Y-72318011D01*
X149482858Y-72318011D02*
X149387620Y-72270392D01*
X149387620Y-72270392D02*
X149244763Y-72270392D01*
X149244763Y-72270392D02*
X149149525Y-72222773D01*
X149149525Y-72222773D02*
X149101906Y-72127535D01*
X149101906Y-72127535D02*
X149101906Y-72079916D01*
X149101906Y-72079916D02*
X149149525Y-71984678D01*
X149149525Y-71984678D02*
X149244763Y-71937059D01*
X149244763Y-71937059D02*
X149387620Y-71937059D01*
X149387620Y-71937059D02*
X149482858Y-71984678D01*
X149911430Y-72556107D02*
X150006668Y-72603726D01*
X150006668Y-72603726D02*
X150197144Y-72603726D01*
X150197144Y-72603726D02*
X150292382Y-72556107D01*
X150292382Y-72556107D02*
X150340001Y-72460868D01*
X150340001Y-72460868D02*
X150340001Y-72413249D01*
X150340001Y-72413249D02*
X150292382Y-72318011D01*
X150292382Y-72318011D02*
X150197144Y-72270392D01*
X150197144Y-72270392D02*
X150054287Y-72270392D01*
X150054287Y-72270392D02*
X149959049Y-72222773D01*
X149959049Y-72222773D02*
X149911430Y-72127535D01*
X149911430Y-72127535D02*
X149911430Y-72079916D01*
X149911430Y-72079916D02*
X149959049Y-71984678D01*
X149959049Y-71984678D02*
X150054287Y-71937059D01*
X150054287Y-71937059D02*
X150197144Y-71937059D01*
X150197144Y-71937059D02*
X150292382Y-71984678D01*
X150530478Y-72698964D02*
X151292382Y-72698964D01*
X151435240Y-72603726D02*
X151959049Y-71937059D01*
X151435240Y-71937059D02*
X151959049Y-72603726D01*
X152863811Y-72603726D02*
X152292383Y-72603726D01*
X152578097Y-72603726D02*
X152578097Y-71603726D01*
X152578097Y-71603726D02*
X152482859Y-71746583D01*
X152482859Y-71746583D02*
X152387621Y-71841821D01*
X152387621Y-71841821D02*
X152292383Y-71889440D01*
X139574762Y-67093726D02*
X139574762Y-67808011D01*
X139574762Y-67808011D02*
X139527143Y-67950868D01*
X139527143Y-67950868D02*
X139431905Y-68046107D01*
X139431905Y-68046107D02*
X139289048Y-68093726D01*
X139289048Y-68093726D02*
X139193810Y-68093726D01*
X140574762Y-68093726D02*
X140003334Y-68093726D01*
X140289048Y-68093726D02*
X140289048Y-67093726D01*
X140289048Y-67093726D02*
X140193810Y-67236583D01*
X140193810Y-67236583D02*
X140098572Y-67331821D01*
X140098572Y-67331821D02*
X140003334Y-67379440D01*
M02*
