%TF.GenerationSoftware,KiCad,Pcbnew,8.0.7*%
%TF.CreationDate,2024-12-09T10:58:11-05:00*%
%TF.ProjectId,template,74656d70-6c61-4746-952e-6b696361645f,rev?*%
%TF.SameCoordinates,Original*%
%TF.FileFunction,Drillmap*%
%TF.FilePolarity,Positive*%
%FSLAX45Y45*%
G04 Gerber Fmt 4.5, Leading zero omitted, Abs format (unit mm)*
G04 Created by KiCad (PCBNEW 8.0.7) date 2024-12-09 10:58:11*
%MOMM*%
%LPD*%
G01*
G04 APERTURE LIST*
%ADD10C,0.250000*%
%ADD11C,0.100000*%
%ADD12C,0.200000*%
G04 APERTURE END LIST*
D10*
X11276330Y-11006860D02*
G75*
G02*
X10606331Y-11006860I-335000J0D01*
G01*
X10606331Y-11006860D02*
G75*
G02*
X11276330Y-11006860I335000J0D01*
G01*
X11613935Y-6348037D02*
X11603829Y-6382632D01*
X11594086Y-6417065D01*
X11584681Y-6451363D01*
X11575590Y-6485552D01*
X11566787Y-6519659D01*
X11558248Y-6553710D01*
X11549947Y-6587732D01*
X11541860Y-6621750D01*
X11533963Y-6655792D01*
X11526229Y-6689883D01*
X11518635Y-6724051D01*
X11511155Y-6758321D01*
X11503764Y-6792720D01*
X11496438Y-6827274D01*
X11489152Y-6862010D01*
X11481880Y-6896955D01*
X11474599Y-6932134D01*
X11467282Y-6967574D01*
X11459906Y-7003301D01*
X11452445Y-7039342D01*
X11444874Y-7075723D01*
X11437169Y-7112471D01*
X11429304Y-7149612D01*
X11421255Y-7187173D01*
X11412997Y-7225179D01*
X11404506Y-7263657D01*
X11395755Y-7302635D01*
X11386720Y-7342137D01*
X11377377Y-7382191D01*
X11367700Y-7422822D01*
X11357665Y-7464058D01*
X11347247Y-7505925D01*
X17446331Y-6364859D02*
G75*
G02*
X16776330Y-6364859I-335000J0D01*
G01*
X16776330Y-6364859D02*
G75*
G02*
X17446331Y-6364859I335000J0D01*
G01*
X18384826Y-8919416D02*
X18395836Y-8947517D01*
X18406699Y-8975042D01*
X18417515Y-9002463D01*
X18428383Y-9030251D01*
X18439404Y-9058877D01*
X18450678Y-9088811D01*
X18459360Y-9112403D01*
X18468284Y-9137195D01*
X18474388Y-9154488D01*
X17581812Y-6128848D02*
X17595925Y-6154379D01*
X17608842Y-6180707D01*
X17620697Y-6207701D01*
X17631623Y-6235228D01*
X17641755Y-6263157D01*
X17651227Y-6291356D01*
X17660173Y-6319693D01*
X17668726Y-6348037D01*
X10420022Y-10883363D02*
X10418162Y-10908793D01*
X10416543Y-10933904D01*
X10414566Y-10971004D01*
X10413133Y-11007475D01*
X10412242Y-11043373D01*
X10411893Y-11078753D01*
X10412087Y-11113670D01*
X10412823Y-11148180D01*
X10414101Y-11182337D01*
X10415921Y-11216197D01*
X10418283Y-11249816D01*
X10419191Y-11260978D01*
X18862639Y-10883363D02*
X18864499Y-10908793D01*
X18866118Y-10933904D01*
X18868095Y-10971004D01*
X18869528Y-11007475D01*
X18870419Y-11043373D01*
X18870768Y-11078753D01*
X18870574Y-11113670D01*
X18869838Y-11148180D01*
X18868560Y-11182337D01*
X18866740Y-11216197D01*
X18864378Y-11249816D01*
X18863470Y-11260978D01*
X10419191Y-11260978D02*
X10423874Y-11309628D01*
X10429703Y-11357847D01*
X10436667Y-11405563D01*
X10444757Y-11452701D01*
X10453964Y-11499190D01*
X10464277Y-11544956D01*
X10475687Y-11589926D01*
X10488184Y-11634026D01*
X10501759Y-11677185D01*
X10516402Y-11719329D01*
X10532103Y-11760384D01*
X10548853Y-11800279D01*
X10566643Y-11838939D01*
X10585461Y-11876292D01*
X10605300Y-11912264D01*
X10626148Y-11946784D01*
X10647997Y-11979777D01*
X10670837Y-12011171D01*
X10694659Y-12040892D01*
X10719452Y-12068869D01*
X10745207Y-12095026D01*
X10771914Y-12119293D01*
X10799563Y-12141594D01*
X10828146Y-12161859D01*
X10857653Y-12180012D01*
X10888073Y-12195983D01*
X10919397Y-12209696D01*
X10951615Y-12221080D01*
X10984718Y-12230062D01*
X11018697Y-12236567D01*
X11053541Y-12240524D01*
X11089241Y-12241859D01*
X18474388Y-9154488D02*
X18486626Y-9189979D01*
X18499340Y-9227912D01*
X18512479Y-9268161D01*
X18525997Y-9310604D01*
X18539844Y-9355114D01*
X18553974Y-9401568D01*
X18568337Y-9449841D01*
X18582886Y-9499807D01*
X18597572Y-9551344D01*
X18612348Y-9604325D01*
X18627165Y-9658627D01*
X18641975Y-9714125D01*
X18656730Y-9770695D01*
X18671382Y-9828211D01*
X18685883Y-9886549D01*
X18700185Y-9945584D01*
X18714239Y-10005193D01*
X18727998Y-10065250D01*
X18741413Y-10125631D01*
X18754436Y-10186211D01*
X18767020Y-10246866D01*
X18779115Y-10307470D01*
X18790674Y-10367901D01*
X18801649Y-10428032D01*
X18811991Y-10487739D01*
X18821653Y-10546898D01*
X18830586Y-10605385D01*
X18838743Y-10663074D01*
X18846075Y-10719840D01*
X18852533Y-10775561D01*
X18858071Y-10830110D01*
X18862639Y-10883363D01*
X18676331Y-11006860D02*
G75*
G02*
X18006331Y-11006860I-335000J0D01*
G01*
X18006331Y-11006860D02*
G75*
G02*
X18676331Y-11006860I335000J0D01*
G01*
X16778411Y-5946064D02*
X16801602Y-5928287D01*
X16825641Y-5912283D01*
X16850454Y-5898025D01*
X16875970Y-5885489D01*
X16902116Y-5874649D01*
X16928820Y-5865478D01*
X16956009Y-5857952D01*
X16983611Y-5852043D01*
X17011554Y-5847728D01*
X17039765Y-5844979D01*
X17068172Y-5843771D01*
X17096703Y-5844079D01*
X17125285Y-5845877D01*
X17153845Y-5849138D01*
X17182312Y-5853838D01*
X17210614Y-5859950D01*
X17238676Y-5867449D01*
X17266429Y-5876309D01*
X17293798Y-5886504D01*
X17320711Y-5898009D01*
X17347097Y-5910798D01*
X17372883Y-5924845D01*
X17397997Y-5940124D01*
X17422365Y-5956610D01*
X17445916Y-5974277D01*
X17468578Y-5993099D01*
X17490277Y-6013050D01*
X17510942Y-6034105D01*
X17530501Y-6056238D01*
X17548880Y-6079424D01*
X17566008Y-6103635D01*
X17581812Y-6128848D01*
X11347247Y-7505925D02*
X11335951Y-7550287D01*
X11324235Y-7595299D01*
X11312123Y-7640893D01*
X11299640Y-7687005D01*
X11286810Y-7733567D01*
X11273657Y-7780513D01*
X11260205Y-7827778D01*
X11246479Y-7875295D01*
X11232503Y-7922998D01*
X11218301Y-7970821D01*
X11203897Y-8018698D01*
X11189316Y-8066563D01*
X11174582Y-8114349D01*
X11159720Y-8161991D01*
X11144752Y-8209422D01*
X11129705Y-8256576D01*
X11114602Y-8303386D01*
X11099466Y-8349788D01*
X11084324Y-8395715D01*
X11069198Y-8441100D01*
X11054113Y-8485878D01*
X11039094Y-8529981D01*
X11024164Y-8573345D01*
X11009349Y-8615904D01*
X10994671Y-8657589D01*
X10980156Y-8698337D01*
X10965828Y-8738080D01*
X10951710Y-8776753D01*
X10937828Y-8814289D01*
X10924205Y-8850623D01*
X10910866Y-8885687D01*
X10897835Y-8919416D01*
X13447313Y-6908859D02*
X13394166Y-6906797D01*
X13343944Y-6900754D01*
X13296508Y-6890949D01*
X13251718Y-6877597D01*
X13209433Y-6860917D01*
X13169515Y-6841126D01*
X13131823Y-6818440D01*
X13096218Y-6793078D01*
X13062559Y-6765256D01*
X13030708Y-6735191D01*
X13000524Y-6703101D01*
X12971868Y-6669204D01*
X12944599Y-6633715D01*
X12918578Y-6596852D01*
X12893666Y-6558834D01*
X12869721Y-6519876D01*
X12846606Y-6480196D01*
X12824179Y-6440011D01*
X12802301Y-6399539D01*
X12780832Y-6358996D01*
X12759633Y-6318600D01*
X12738564Y-6278569D01*
X12717484Y-6239118D01*
X12696255Y-6200467D01*
X12674736Y-6162830D01*
X12652787Y-6126427D01*
X12630270Y-6091474D01*
X12607043Y-6058189D01*
X12582967Y-6026788D01*
X12557903Y-5997488D01*
X12531711Y-5970508D01*
X12504250Y-5946064D01*
X18863470Y-11260978D02*
X18858787Y-11309628D01*
X18852958Y-11357847D01*
X18845994Y-11405563D01*
X18837904Y-11452701D01*
X18828697Y-11499190D01*
X18818384Y-11544956D01*
X18806974Y-11589926D01*
X18794477Y-11634026D01*
X18780902Y-11677185D01*
X18766259Y-11719329D01*
X18750558Y-11760384D01*
X18733808Y-11800279D01*
X18716019Y-11838939D01*
X18697200Y-11876292D01*
X18677361Y-11912264D01*
X18656513Y-11946784D01*
X18634664Y-11979777D01*
X18611824Y-12011171D01*
X18588002Y-12040892D01*
X18563209Y-12068869D01*
X18537455Y-12095026D01*
X18510747Y-12119293D01*
X18483098Y-12141594D01*
X18454515Y-12161859D01*
X18425009Y-12180012D01*
X18394589Y-12195983D01*
X18363265Y-12209696D01*
X18331046Y-12221080D01*
X18297943Y-12230062D01*
X18263964Y-12236567D01*
X18229120Y-12240524D01*
X18193421Y-12241859D01*
X15655810Y-6908891D02*
X15835348Y-6908859D01*
X15835348Y-6908859D02*
X15888495Y-6906797D01*
X15938717Y-6900754D01*
X15986153Y-6890949D01*
X16030943Y-6877597D01*
X16073228Y-6860917D01*
X16113146Y-6841126D01*
X16150838Y-6818440D01*
X16186443Y-6793078D01*
X16220101Y-6765256D01*
X16251953Y-6735191D01*
X16282137Y-6703101D01*
X16310793Y-6669204D01*
X16338062Y-6633715D01*
X16364083Y-6596852D01*
X16388995Y-6558834D01*
X16412940Y-6519876D01*
X16436055Y-6480196D01*
X16458482Y-6440011D01*
X16480360Y-6399539D01*
X16501828Y-6358996D01*
X16523028Y-6318600D01*
X16544097Y-6278569D01*
X16565177Y-6239118D01*
X16586406Y-6200467D01*
X16607925Y-6162830D01*
X16629874Y-6126427D01*
X16652391Y-6091474D01*
X16675618Y-6058189D01*
X16699694Y-6026788D01*
X16724758Y-5997488D01*
X16750950Y-5970508D01*
X16778411Y-5946064D01*
X13625810Y-6908891D02*
X13447313Y-6908859D01*
X11089241Y-12241859D02*
X18193421Y-12241859D01*
X17935414Y-7505925D02*
X17946710Y-7550287D01*
X17958426Y-7595299D01*
X17970538Y-7640893D01*
X17983021Y-7687005D01*
X17995851Y-7733567D01*
X18009004Y-7780513D01*
X18022456Y-7827778D01*
X18036182Y-7875295D01*
X18050158Y-7922998D01*
X18064360Y-7970821D01*
X18078764Y-8018698D01*
X18093345Y-8066563D01*
X18108079Y-8114349D01*
X18122941Y-8161991D01*
X18137909Y-8209422D01*
X18152956Y-8256576D01*
X18168059Y-8303386D01*
X18183195Y-8349788D01*
X18198337Y-8395715D01*
X18213463Y-8441100D01*
X18228548Y-8485878D01*
X18243567Y-8529981D01*
X18258497Y-8573345D01*
X18273312Y-8615904D01*
X18287990Y-8657589D01*
X18302505Y-8698337D01*
X18316833Y-8738080D01*
X18330951Y-8776753D01*
X18344833Y-8814289D01*
X18358456Y-8850623D01*
X18371795Y-8885687D01*
X18384826Y-8919416D01*
X10897835Y-8919416D02*
X10886825Y-8947517D01*
X10875962Y-8975042D01*
X10865146Y-9002463D01*
X10854278Y-9030251D01*
X10843257Y-9058877D01*
X10831983Y-9088811D01*
X10823301Y-9112403D01*
X10814377Y-9137195D01*
X10808274Y-9154488D01*
X17668726Y-6348037D02*
X17678832Y-6382632D01*
X17688575Y-6417065D01*
X17697980Y-6451363D01*
X17707071Y-6485552D01*
X17715874Y-6519659D01*
X17724413Y-6553710D01*
X17732714Y-6587732D01*
X17740801Y-6621750D01*
X17748698Y-6655792D01*
X17756432Y-6689883D01*
X17764026Y-6724051D01*
X17771506Y-6758321D01*
X17778897Y-6792720D01*
X17786223Y-6827274D01*
X17793509Y-6862010D01*
X17800781Y-6896955D01*
X17808062Y-6932134D01*
X17815379Y-6967574D01*
X17822755Y-7003301D01*
X17830216Y-7039342D01*
X17837787Y-7075723D01*
X17845492Y-7112471D01*
X17853357Y-7149612D01*
X17861406Y-7187173D01*
X17869663Y-7225179D01*
X17878155Y-7263657D01*
X17886906Y-7302635D01*
X17895941Y-7342137D01*
X17905284Y-7382191D01*
X17914961Y-7422822D01*
X17924996Y-7464058D01*
X17935414Y-7505925D01*
X10808274Y-9154488D02*
X10796035Y-9189979D01*
X10783322Y-9227912D01*
X10770182Y-9268161D01*
X10756665Y-9310604D01*
X10742817Y-9355114D01*
X10728687Y-9401568D01*
X10714324Y-9449841D01*
X10699775Y-9499807D01*
X10685089Y-9551344D01*
X10670313Y-9604325D01*
X10655496Y-9658627D01*
X10640686Y-9714125D01*
X10625931Y-9770695D01*
X10611279Y-9828211D01*
X10596778Y-9886549D01*
X10582476Y-9945584D01*
X10568422Y-10005193D01*
X10554663Y-10065250D01*
X10541248Y-10125631D01*
X10528225Y-10186211D01*
X10515641Y-10246866D01*
X10503546Y-10307470D01*
X10491987Y-10367901D01*
X10481012Y-10428032D01*
X10470670Y-10487739D01*
X10461008Y-10546898D01*
X10452075Y-10605385D01*
X10443918Y-10663074D01*
X10436586Y-10719840D01*
X10430128Y-10775561D01*
X10424590Y-10830110D01*
X10420022Y-10883363D01*
X12504250Y-5946064D02*
X12481059Y-5928287D01*
X12457020Y-5912283D01*
X12432207Y-5898025D01*
X12406691Y-5885489D01*
X12380545Y-5874649D01*
X12353841Y-5865478D01*
X12326652Y-5857952D01*
X12299050Y-5852043D01*
X12271107Y-5847728D01*
X12242896Y-5844979D01*
X12214489Y-5843771D01*
X12185958Y-5844079D01*
X12157376Y-5845877D01*
X12128816Y-5849138D01*
X12100349Y-5853838D01*
X12072047Y-5859950D01*
X12043985Y-5867449D01*
X12016232Y-5876309D01*
X11988863Y-5886504D01*
X11961949Y-5898009D01*
X11935564Y-5910798D01*
X11909778Y-5924845D01*
X11884664Y-5940124D01*
X11860296Y-5956610D01*
X11836745Y-5974277D01*
X11814083Y-5993099D01*
X11792384Y-6013050D01*
X11771719Y-6034105D01*
X11752160Y-6056238D01*
X11733781Y-6079424D01*
X11716653Y-6103635D01*
X11700849Y-6128848D01*
X11700849Y-6128848D02*
X11686736Y-6154379D01*
X11673819Y-6180707D01*
X11661964Y-6207701D01*
X11651038Y-6235228D01*
X11640906Y-6263157D01*
X11631434Y-6291356D01*
X11622488Y-6319693D01*
X11613935Y-6348037D01*
X12506330Y-6364859D02*
G75*
G02*
X11836330Y-6364859I-335000J0D01*
G01*
X11836330Y-6364859D02*
G75*
G02*
X12506330Y-6364859I335000J0D01*
G01*
D11*
X13625810Y-6118891D02*
X13675810Y-6068891D01*
X13625810Y-6908891D02*
X13625810Y-6118891D01*
X14295810Y-6068891D02*
X13675810Y-6068891D01*
X14345810Y-6118891D02*
X14295810Y-6068891D01*
X14345810Y-6813891D02*
X14345810Y-6118891D01*
X14535810Y-6118891D02*
X14585810Y-6068891D01*
X14535810Y-6813891D02*
X14535810Y-6118891D01*
X15605810Y-6068891D02*
X14585810Y-6068891D01*
X15655810Y-6118891D02*
X15605810Y-6068891D01*
X15655810Y-6908891D02*
X15655810Y-6118891D01*
X14535810Y-6813891D02*
G75*
G02*
X14345810Y-6813891I-95000J0D01*
G01*
D12*
X10657463Y-12565843D02*
X10657463Y-12365843D01*
X10657463Y-12365843D02*
X10705082Y-12365843D01*
X10705082Y-12365843D02*
X10733654Y-12375367D01*
X10733654Y-12375367D02*
X10752701Y-12394415D01*
X10752701Y-12394415D02*
X10762225Y-12413462D01*
X10762225Y-12413462D02*
X10771749Y-12451557D01*
X10771749Y-12451557D02*
X10771749Y-12480129D01*
X10771749Y-12480129D02*
X10762225Y-12518224D01*
X10762225Y-12518224D02*
X10752701Y-12537272D01*
X10752701Y-12537272D02*
X10733654Y-12556319D01*
X10733654Y-12556319D02*
X10705082Y-12565843D01*
X10705082Y-12565843D02*
X10657463Y-12565843D01*
X10857463Y-12565843D02*
X10857463Y-12432510D01*
X10857463Y-12470605D02*
X10866987Y-12451557D01*
X10866987Y-12451557D02*
X10876511Y-12442034D01*
X10876511Y-12442034D02*
X10895558Y-12432510D01*
X10895558Y-12432510D02*
X10914606Y-12432510D01*
X10981273Y-12565843D02*
X10981273Y-12432510D01*
X10981273Y-12365843D02*
X10971749Y-12375367D01*
X10971749Y-12375367D02*
X10981273Y-12384891D01*
X10981273Y-12384891D02*
X10990796Y-12375367D01*
X10990796Y-12375367D02*
X10981273Y-12365843D01*
X10981273Y-12365843D02*
X10981273Y-12384891D01*
X11105082Y-12565843D02*
X11086034Y-12556319D01*
X11086034Y-12556319D02*
X11076511Y-12537272D01*
X11076511Y-12537272D02*
X11076511Y-12365843D01*
X11209844Y-12565843D02*
X11190796Y-12556319D01*
X11190796Y-12556319D02*
X11181273Y-12537272D01*
X11181273Y-12537272D02*
X11181273Y-12365843D01*
X11438415Y-12565843D02*
X11438415Y-12365843D01*
X11438415Y-12365843D02*
X11505082Y-12508700D01*
X11505082Y-12508700D02*
X11571749Y-12365843D01*
X11571749Y-12365843D02*
X11571749Y-12565843D01*
X11752701Y-12565843D02*
X11752701Y-12461081D01*
X11752701Y-12461081D02*
X11743177Y-12442034D01*
X11743177Y-12442034D02*
X11724130Y-12432510D01*
X11724130Y-12432510D02*
X11686034Y-12432510D01*
X11686034Y-12432510D02*
X11666987Y-12442034D01*
X11752701Y-12556319D02*
X11733653Y-12565843D01*
X11733653Y-12565843D02*
X11686034Y-12565843D01*
X11686034Y-12565843D02*
X11666987Y-12556319D01*
X11666987Y-12556319D02*
X11657463Y-12537272D01*
X11657463Y-12537272D02*
X11657463Y-12518224D01*
X11657463Y-12518224D02*
X11666987Y-12499177D01*
X11666987Y-12499177D02*
X11686034Y-12489653D01*
X11686034Y-12489653D02*
X11733653Y-12489653D01*
X11733653Y-12489653D02*
X11752701Y-12480129D01*
X11847939Y-12432510D02*
X11847939Y-12632510D01*
X11847939Y-12442034D02*
X11866987Y-12432510D01*
X11866987Y-12432510D02*
X11905082Y-12432510D01*
X11905082Y-12432510D02*
X11924130Y-12442034D01*
X11924130Y-12442034D02*
X11933653Y-12451557D01*
X11933653Y-12451557D02*
X11943177Y-12470605D01*
X11943177Y-12470605D02*
X11943177Y-12527748D01*
X11943177Y-12527748D02*
X11933653Y-12546796D01*
X11933653Y-12546796D02*
X11924130Y-12556319D01*
X11924130Y-12556319D02*
X11905082Y-12565843D01*
X11905082Y-12565843D02*
X11866987Y-12565843D01*
X11866987Y-12565843D02*
X11847939Y-12556319D01*
X12028892Y-12546796D02*
X12038415Y-12556319D01*
X12038415Y-12556319D02*
X12028892Y-12565843D01*
X12028892Y-12565843D02*
X12019368Y-12556319D01*
X12019368Y-12556319D02*
X12028892Y-12546796D01*
X12028892Y-12546796D02*
X12028892Y-12565843D01*
X12028892Y-12442034D02*
X12038415Y-12451557D01*
X12038415Y-12451557D02*
X12028892Y-12461081D01*
X12028892Y-12461081D02*
X12019368Y-12451557D01*
X12019368Y-12451557D02*
X12028892Y-12442034D01*
X12028892Y-12442034D02*
X12028892Y-12461081D01*
M02*
