<svg width="31.90378176mm" height="47.33746438mm" viewBox="0 0 12560544 18636797"  version="1.1" xmlns="http://www.w3.org/2000/svg" xmlns:xlink="http://www.w3.org/1999/xlink">
<desc>
Origin 47244094 17224409 Bound 40997224 8134916 12560544 18636797
</desc>
<g fill-rule="evenodd" fill="rgb(255, 255, 0)" stroke="black" stroke-width="1" transform="translate(0, 18636797) scale(1, -1) translate(-40997224, -8134916)">
<path id="N" d="M 44710076.00 13773574.00 L 44710077.00 13707978.00 L 44694225.00 13669709.00 L 44525422.36 13500907.00 L 44650096.00 13500908.00 L 44688365.71 13485054.29 L 44753960.00 13419460.00 L 44769811.00 13381188.59 L 44769812.00 13250000.00 L 44753958.29 13211730.29 L 44693835.46 13151606.54 L 44753960.00 13091482.00 A 54121.84 54121.84 0 0 0 44677422.00 13014944.00 L 44562082.00 13130284.00 L 44507429.00 13130284.00 L 44507429.00 13087890.00 L 44515748.00 13087890.00 L 44545881.00 13075409.00 L 44558362.00 13045276.00 L 44545881.00 13015143.00 L 44515748.00 13002662.00 L 44461925.62 13002662.00 L 44453309.00 12999093.00 L 44444692.38 13002662.00 L 44079456.36 13002662.00 L 44109360.00 12990276.00 L 44121841.00 12960143.00 L 44109360.00 12930010.00 L 44079227.00 12917529.00 L 44045406.68 12917529.00 L 44090263.00 12872673.00 L 44106114.00 12834401.59 L 44106115.00 12768809.00 L 44090261.29 12730539.29 L 44024668.00 12664944.00 L 43986396.59 12649093.00 L 43855208.00 12649092.00 L 43816938.29 12664945.71 L 43782070.00 12699412.00 A 100354.75 100354.75 0 0 0 43727759.00 12830529.00 L 43735492.00 12842102.19 L 43735492.00 12900000.00 L 43742752.50 12917529.00 L 43450158.00 12917529.00 L 43450158.00 12791226.76 L 43484051.24 12757333.00 L 43570407.76 12757333.00 L 43620151.00 12807077.00 A 54117.01 54117.01 0 0 0 43696689.00 12730541.00 L 43631094.00 12664944.00 L 43592822.59 12649093.00 L 43461634.00 12649092.00 L 43423364.29 12664945.71 L 43357769.00 12730540.00 L 43341918.00 12768811.41 L 43341917.00 13031191.00 L 43357770.71 13069460.71 L 43423365.00 13135056.00 L 43461636.41 13150907.00 L 43592825.00 13150908.00 L 43631094.71 13135054.29 L 43696689.00 13069459.00 L 43712541.00 13031191.00 L 43700762.17 13002757.00 L 43815831.00 13002757.00 L 43882534.00 13069460.00 L 43890765.21 13072869.58 L 43896600.00 13079597.00 L 44027791.00 13145193.00 L 44069108.00 13148130.00 L 44100400.00 13120990.00 L 44102752.90 13087890.00 L 44137920.01 13087890.00 L 44137307.00 13201575.00 L 44149788.00 13231708.00 L 44179921.00 13244189.00 L 44210054.00 13231708.00 L 44222535.00 13201575.00 L 44222535.00 13131984.00 L 44292125.00 13131984.00 L 44322258.00 13119503.00 L 44334739.00 13089370.00 L 44334125.99 13087890.00 L 44399189.00 13087890.00 L 44399189.00 13328205.73 L 44393574.00 13325880.00 L 44355305.00 13341731.00 L 44339454.00 13380000.00 L 44339454.00 13445596.00 L 44355306.71 13483865.71 L 44590894.10 13719454.00 L 44393574.00 13719454.00 A 54118.70 54118.70 0 0 0 44393574.00 13827694.00 L 44655956.00 13827694.00 L 44694225.00 13811843.00 L 44710076.00 13773574.00  zM 43963981.76 12845880.00 L 43902929.74 12845880.00 L 43913187.00 12830529.00 L 43920826.00 12792126.00 L 43913905.09 12757333.00 L 43963981.76 12757333.00 L 43997874.00 12791225.76 L 43997874.00 12811987.24 L 43963981.76 12845880.00  zM 43570407.76 13042667.00 L 43484051.76 13042667.00 L 43450158.00 13008773.76 L 43450158.00 13002757.00 L 43610317.15 13002757.00 L 43570407.76 13042667.00  zM 44627678.76 13392667.00 L 44507429.00 13392667.00 L 44507429.00 13238524.00 L 44627678.76 13238524.00 L 44661571.00 13272416.76 L 44661571.00 13358774.24 L 44627678.76 13392667.00  z"/>
<path id="N" d="M 43442334.00 14000330.00 L 43442334.00 13987883.44 L 43478965.00 14024515.00 L 43517236.41 14040366.00 L 43845212.00 14040366.00 L 43883481.00 14024515.00 L 43886094.60 14018205.00 L 43963386.00 14018205.00 L 43993519.00 14005724.00 L 44006000.00 13975591.00 L 43993519.00 13945458.00 L 43963386.00 13932977.00 L 43539651.76 13932126.00 L 43505758.00 13898232.76 L 43505758.00 13811876.24 L 43539650.76 13777984.00 L 43845212.00 13777984.00 A 54118.70 54118.70 0 1 0 43845212.00 13669744.00 L 43517234.00 13669743.00 L 43478964.29 13685596.71 L 43442334.00 13722226.44 L 43442334.00 13642939.04 L 43451638.00 13646793.00 L 43489907.00 13630941.00 L 43538376.82 13582471.00 L 43729720.63 13582471.00 L 43725495.00 13592672.00 A 54122.11 54122.11 0 0 0 43817884.00 13630941.00 L 43866354.74 13582471.00 L 43945880.00 13582471.00 L 43945879.00 13707978.00 L 43961732.71 13746247.71 L 44027327.00 13811843.00 L 44065598.41 13827694.00 L 44196787.00 13827695.00 L 44235056.71 13811841.29 L 44300651.00 13746246.00 A 54117.01 54117.01 0 1 0 44224113.00 13669710.00 L 44174369.76 13719454.00 L 44088013.76 13719454.00 L 44054120.00 13685560.76 L 44054120.00 13582471.00 L 44079227.00 13582471.00 L 44109360.00 13569990.00 L 44121841.00 13539857.00 L 44109360.00 13509724.00 L 44079227.00 13497243.00 L 44054120.00 13497243.00 L 44054120.00 13468013.76 L 44088013.24 13434120.00 L 44174369.76 13434120.00 L 44224113.00 13483864.00 A 54117.01 54117.01 0 1 0 44300651.00 13407328.00 L 44235056.00 13341731.00 L 44196784.59 13325880.00 L 44065596.00 13325879.00 L 44027326.29 13341732.71 L 43980269.99 13388788.30 L 43963386.00 13381795.00 L 43893496.19 13381795.00 L 43883479.29 13357615.29 L 43817885.00 13292021.00 L 43779613.59 13276170.00 L 43714020.00 13276170.00 L 43675750.29 13292022.71 L 43585977.66 13381795.00 L 43510630.00 13381795.00 L 43505758.00 13383812.97 L 43505758.00 13330290.00 A 54118.70 54118.70 0 1 0 43397518.00 13330290.00 L 43397518.00 13506875.15 L 43390640.00 13509724.00 L 43378159.00 13539857.00 L 43383452.02 13552636.00 L 43191427.00 13552635.00 L 43153157.29 13568488.71 L 43087563.00 13634083.00 L 43071712.00 13672354.41 L 43071711.00 13803543.00 L 43087564.71 13841812.71 L 43147687.54 13901936.46 L 43087563.00 13962061.00 A 54121.84 54121.84 0 1 0 43164101.00 14038599.00 L 43279441.00 13923259.00 L 43334094.00 13923259.00 L 43334094.00 14000330.00 A 54118.70 54118.70 0 0 0 43442334.00 14000330.00  zM 43334094.00 13815019.00 L 43213844.24 13815019.00 L 43179952.00 13781126.24 L 43179952.00 13694768.76 L 43213844.24 13660876.00 L 43334094.00 13660876.00 L 43334094.00 13815019.00  zM 43791092.00 13497243.00 L 43623604.49 13497243.00 L 43653824.38 13467023.00 L 43791092.00 13467023.00 L 43791092.00 13497243.00  zM 43945880.00 13497243.00 L 43899332.00 13497243.00 L 43899332.00 13467023.00 L 43945880.00 13467023.00 L 43945880.00 13497243.00  z"/>
<path id="N" d="M 45925056.71 14201841.29 L 45990651.00 14136247.00 L 46006502.00 14097975.59 L 46006502.00 14018205.00 L 46058454.00 14018205.00 L 46176496.00 14136247.00 L 46184727.21 14139656.58 L 46190562.00 14146384.00 L 46321753.00 14211980.00 L 46363070.00 14214917.00 L 46394362.00 14187777.00 L 46396059.50 14163897.00 L 46468808.00 14163898.00 L 46507077.00 14148046.00 L 46572673.00 14082449.00 A 54118.22 54118.22 0 0 0 46496136.00 14005912.00 L 46446390.24 14055657.00 L 46360034.24 14055657.00 L 46326142.00 14021764.24 L 46326142.00 13997542.89 L 46384225.00 13939460.00 L 46398311.97 13905451.91 L 46510201.00 13961396.00 L 46522764.86 13962289.07 L 46534404.00 13967110.00 L 46542633.40 13963701.39 L 46551519.00 13964333.00 L 46561034.82 13956079.53 L 46572673.00 13951259.00 L 46576082.12 13943028.37 L 46582810.00 13937193.00 L 46583703.07 13924629.14 L 46588524.00 13912990.00 L 46588524.00 13716203.00 L 46572673.00 13677934.00 L 46534404.00 13662083.00 L 46272022.00 13662083.00 L 46233753.00 13677934.00 L 46218035.79 13715880.00 L 46149170.00 13715879.00 L 46110900.29 13731732.71 L 46045305.00 13797327.00 L 46029454.00 13835598.41 L 46029454.00 13932977.00 L 45992497.92 13932977.00 L 45990649.29 13928517.29 L 45930526.46 13868393.54 L 45990651.00 13808269.00 A 54121.84 54121.84 0 0 0 45914113.00 13731731.00 L 45798773.00 13847071.00 L 45744120.00 13847071.00 L 45744120.00 13770000.00 A 54118.70 54118.70 0 0 0 45635880.00 13770000.00 L 45635880.00 13932977.00 L 45623622.00 13932977.00 L 45593489.00 13945458.00 L 45581008.00 13975591.00 L 45593489.00 14005724.00 L 45623622.00 14018205.00 L 45635880.00 14018205.00 L 45635880.00 14163574.00 L 45651731.00 14201843.00 L 45690000.00 14217694.00 L 45886787.00 14217695.00 L 45925056.71 14201841.29  zM 45864369.76 14109454.00 L 45744120.00 14109454.00 L 45744120.00 14018205.00 L 45898262.00 14018205.00 L 45898262.00 14075561.24 L 45864369.76 14109454.00  zM 46480284.00 13825422.20 L 46427416.00 13798988.00 L 46414850.11 13798095.09 L 46403213.00 13793275.00 L 46380172.06 13793275.00 L 46357220.41 13770323.00 L 46480284.00 13770323.00 L 46480284.00 13825422.20  zM 46218035.79 13912667.00 L 46137694.00 13912667.00 L 46137694.00 13858013.76 L 46171587.24 13824120.00 L 46257943.76 13824120.00 L 46271148.99 13837325.44 L 46233753.00 13874721.00 L 46218035.79 13912667.00  z"/>
<path id="N" d="M 50700907.00 16595299.00 L 50700908.00 16398512.00 L 50685054.29 16360242.29 L 50619460.00 16294648.00 L 50581188.59 16278797.00 L 50536315.00 16278797.00 L 50536315.00 16224043.76 L 50542922.00 16239994.00 L 50581191.00 16255846.00 L 50619460.00 16239994.00 L 50685056.00 16174398.00 L 50700907.00 16136126.59 L 50700908.00 16004938.00 L 50685054.29 15966668.29 L 50619460.00 15901074.00 L 50581188.59 15885223.00 L 50536315.00 15885223.00 L 50536315.00 15847416.00 L 50523834.00 15817283.00 L 50493701.00 15804802.00 L 50463568.00 15817283.00 L 50451087.00 15847416.00 L 50451087.00 15927313.40 L 50449999.42 15928401.00 L 50422673.00 15901074.00 L 50384401.59 15885223.00 L 50318809.00 15885222.00 L 50280539.29 15901075.71 L 50214944.00 15966669.00 L 50199093.00 16004940.41 L 50199092.00 16136129.00 L 50214944.00 16174398.00 L 50280541.00 16239994.00 A 54118.22 54118.22 0 0 0 50357078.00 16163457.00 L 50307333.00 16113711.24 L 50307333.00 16027355.24 L 50341225.76 15993463.00 L 50361987.24 15993463.00 L 50395880.00 16027355.24 L 50395880.00 16070534.00 L 50411731.00 16108803.00 L 50451087.00 16124203.77 L 50451087.00 16278797.00 L 50411730.29 16294649.71 L 50351606.54 16354772.54 L 50291482.00 16294648.00 A 54121.84 54121.84 0 0 0 50214944.00 16371186.00 L 50330284.00 16486526.00 L 50330284.00 16541179.00 L 50253213.00 16541179.00 A 54118.70 54118.70 0 0 0 50253213.00 16649419.00 L 50646787.00 16649419.00 L 50685056.00 16633568.00 L 50700907.00 16595299.00  zM 50536315.00 16179406.24 L 50536315.00 15995160.73 L 50538012.76 15993463.00 L 50558774.24 15993463.00 L 50592667.00 16027355.24 L 50592667.00 16113711.76 L 50542922.00 16163456.00 L 50536315.00 16179406.24  zM 50592667.00 16541179.00 L 50438524.00 16541179.00 L 50438524.00 16420929.24 L 50451087.00 16408366.43 L 50451087.00 16437968.00 L 50463568.00 16468101.00 L 50493701.00 16480582.00 L 50523834.00 16468101.00 L 50536315.00 16437968.00 L 50536315.00 16387037.00 L 50558774.24 16387037.00 L 50592667.00 16420929.24 L 50592667.00 16541179.00  z"/>
<path id="N" d="M 50064140.00 15114110.00 L 50064140.00 14720536.00 L 50048289.00 14682267.00 L 50010020.00 14666416.00 L 49813233.00 14666415.00 L 49774963.29 14682268.71 L 49709369.00 14747863.00 L 49693518.00 14786134.41 L 49693517.00 14917323.00 L 49709370.71 14955592.71 L 49769493.54 15015716.46 L 49714438.00 15070772.00 L 49642476.94 15070772.00 L 49616446.00 15059990.00 L 49604970.00 15059990.00 L 49604970.00 14835499.22 L 49616446.00 14840253.00 A 54122.11 54122.11 0 0 0 49654715.00 14747864.00 L 49589119.00 14682267.00 A 54119.43 54119.43 0 0 0 49496730.00 14720538.41 L 49496730.00 15059990.00 L 49485255.00 15059990.00 A 54118.70 54118.70 0 0 0 49485255.00 15168230.00 L 49616446.00 15168230.00 L 49645972.84 15156000.00 L 49718111.16 15156000.00 L 49747638.00 15168230.00 L 49777164.84 15156000.00 L 49956693.00 15156000.00 L 49970826.13 15150146.10 L 49971751.00 15152379.00 A 54121.84 54121.84 0 0 0 50064140.00 15114110.00  zM 49955900.00 14928799.00 L 49835650.24 14928799.00 L 49801758.00 14894906.24 L 49801758.00 14808548.76 L 49835650.24 14774656.00 L 49955900.00 14774656.00 L 49955900.00 14928799.00  zM 49955900.00 15070772.00 L 49867514.00 15070772.00 L 49901247.00 15037039.00 L 49955900.00 15037039.00 L 49955900.00 15070772.00  z"/>
<path id="N" d="M 48704499.71 23996374.29 L 48770095.00 23930781.00 L 48785946.00 23892509.59 L 48785947.00 23761321.00 L 48770095.00 23723052.00 L 48704498.00 23657456.00 A 54118.22 54118.22 0 0 0 48627961.00 23733993.00 L 48677706.00 23783738.76 L 48677706.00 23870094.76 L 48643813.24 23903987.00 L 48557456.24 23903987.00 L 48523564.00 23870094.24 L 48523564.00 23839690.91 L 48583445.00 23719928.00 L 48584338.07 23707364.14 L 48589159.00 23695725.00 L 48585750.39 23687495.60 L 48586382.00 23678610.00 L 48578128.53 23669094.18 L 48573308.00 23657456.00 L 48565077.37 23654046.88 L 48559242.00 23647319.00 L 48546678.14 23646425.93 L 48535039.00 23641605.00 L 48338252.00 23641605.00 L 48299983.00 23657456.00 L 48284132.00 23695725.00 L 48284132.00 23958107.00 A 54118.70 54118.70 0 0 0 48392372.00 23958107.00 L 48392372.00 23749845.00 L 48447471.20 23749845.00 L 48421037.00 23802713.00 L 48420144.09 23815278.89 L 48415324.00 23826916.00 L 48415323.00 23892512.00 L 48431175.00 23930781.00 L 48496770.00 23996376.00 L 48535039.00 24012227.00 L 48666230.00 24012228.00 L 48704499.71 23996374.29  z"/>
<path id="N" d="M 48884634.00 19968521.00 L 48950230.00 19902924.00 A 54118.22 54118.22 0 0 0 48873693.00 19826387.00 L 48823947.24 19876132.00 L 48737591.24 19876132.00 L 48703699.00 19842239.24 L 48703699.00 19755882.24 L 48737591.76 19721990.00 L 48767995.09 19721990.00 L 48887758.00 19781871.00 L 48900321.86 19782764.07 L 48911961.00 19787585.00 L 48920190.40 19784176.39 L 48929076.00 19784808.00 L 48938591.82 19776554.53 L 48950230.00 19771734.00 L 48953639.12 19763503.37 L 48960367.00 19757668.00 L 48961260.07 19745104.14 L 48966081.00 19733465.00 L 48966081.00 19536678.00 L 48950230.00 19498409.00 L 48911961.00 19482558.00 L 48649579.00 19482558.00 A 54118.70 54118.70 0 0 0 48649579.00 19590798.00 L 48857841.00 19590798.00 L 48857841.00 19645897.20 L 48804973.00 19619463.00 L 48792407.11 19618570.09 L 48780770.00 19613750.00 L 48715174.00 19613749.00 L 48676905.00 19629601.00 L 48611310.00 19695196.00 L 48595459.00 19733465.00 L 48595458.00 19864656.00 L 48611311.71 19902925.71 L 48676905.00 19968521.00 L 48715176.41 19984372.00 L 48846365.00 19984373.00 L 48884634.00 19968521.00  z"/>
<path id="N" d="M 49263735.71 16950371.29 L 49329330.00 16884777.00 L 49345181.00 16846505.59 L 49345182.00 16715317.00 L 49329328.29 16677047.29 L 49269205.46 16616923.54 L 49329330.00 16556799.00 A 54121.84 54121.84 0 0 0 49252792.00 16480261.00 L 49137452.00 16595601.00 L 49082799.00 16595601.00 L 49082799.00 16518530.00 L 49066948.00 16480261.00 L 49028679.00 16464410.00 L 49011554.61 16471502.91 L 49009231.00 16465893.00 L 48979098.00 16453412.00 L 47640516.00 16453412.00 L 47610383.00 16465893.00 L 47597902.00 16496026.00 L 47597902.00 16535395.00 L 47610383.00 16565528.00 L 47640516.00 16578009.00 L 47670649.00 16565528.00 L 47681785.93 16538640.00 L 48937827.66 16538640.00 L 48948965.00 16565529.00 L 48974559.00 16576129.96 L 48974559.00 16912104.00 L 48990410.00 16950373.00 L 49028679.00 16966224.00 L 49225466.00 16966225.00 L 49263735.71 16950371.29  zM 49160561.57 16857984.00 L 49082799.00 16857984.00 L 49082799.00 16703841.00 L 49162197.35 16703841.00 L 49152233.00 16710499.00 A 100353.26 100353.26 0 0 0 49152233.00 16852419.00 L 49160561.57 16857984.00  z"/>
<path id="N" d="M 47016104.00 13409242.00 L 47081700.00 13343646.00 L 47097551.00 13305374.59 L 47097552.00 13239782.00 L 47081700.00 13201513.00 L 47054372.58 13174186.00 L 47081700.00 13146860.00 L 47097551.00 13108588.59 L 47097552.00 13042995.00 L 47081700.00 13004726.00 L 47016104.00 12939130.00 L 46977832.59 12923279.00 L 46846644.00 12923278.00 L 46808374.29 12939131.71 L 46742780.00 13004726.00 L 46726929.00 13042997.41 L 46726928.00 13108591.00 L 46742780.00 13146860.00 L 46770107.00 13174186.58 L 46742780.00 13201513.00 L 46726929.00 13239784.41 L 46726928.00 13305377.00 L 46742781.71 13343646.71 L 46808375.00 13409242.00 L 46846646.41 13425093.00 L 46977835.00 13425094.00 L 47016104.00 13409242.00  zM 46955418.24 13120066.00 L 46869061.24 13120066.00 L 46835169.00 13086173.24 L 46835169.00 13065411.76 L 46869061.24 13031519.00 L 46955417.76 13031519.00 L 46989311.00 13065412.76 L 46989311.00 13086173.76 L 46955418.24 13120066.00  zM 46955417.24 13316853.00 L 46869061.24 13316853.00 L 46835169.00 13282960.24 L 46835169.00 13262198.76 L 46869061.24 13228306.00 L 46955417.76 13228306.00 L 46989311.00 13262199.76 L 46989311.00 13282959.76 L 46955417.24 13316853.00  z"/>
<path id="N" d="M 46228630.71 14741841.29 L 46294225.00 14676247.00 L 46310076.00 14637975.59 L 46310077.00 14572382.00 L 46294225.00 14534113.00 L 46266898.00 14506786.42 L 46294225.00 14479460.00 L 46310076.00 14441188.59 L 46310077.00 14375596.00 L 46294223.29 14337326.29 L 46228630.00 14271731.00 L 46190358.59 14255880.00 L 46059170.00 14255879.00 L 46020901.00 14271731.00 L 45955305.00 14337327.00 L 45939454.00 14375598.41 L 45939453.00 14441191.00 L 45955305.00 14479460.00 L 45982632.42 14506787.00 L 45955305.00 14534113.00 L 45939454.00 14572384.41 L 45939453.00 14637978.00 L 45955305.00 14676247.00 L 46020901.00 14741843.00 L 46059172.41 14757694.00 L 46190361.00 14757695.00 L 46228630.71 14741841.29  zM 46167943.76 14452667.00 L 46081587.24 14452667.00 L 46047694.00 14418773.24 L 46047694.00 14398013.24 L 46081587.76 14364120.00 L 46167943.76 14364120.00 L 46201836.00 14398012.76 L 46201836.00 14418774.24 L 46167943.76 14452667.00  zM 46167943.76 14649454.00 L 46081587.24 14649454.00 L 46047694.00 14615560.24 L 46047694.00 14594799.24 L 46081586.76 14560907.00 L 46167943.76 14560907.00 L 46201836.00 14594799.76 L 46201836.00 14615561.24 L 46167943.76 14649454.00  z"/>
<path id="N" d="M 46704499.71 21946374.29 L 46770095.00 21880781.00 L 46785946.00 21842509.59 L 46785947.00 21711321.00 L 46770095.00 21673052.00 L 46704498.00 21607456.00 A 54118.22 54118.22 0 1 0 46627961.00 21683993.00 L 46677706.00 21733738.76 L 46677706.00 21820094.76 L 46643813.24 21853987.00 L 46623051.76 21853987.00 L 46589159.00 21820094.76 L 46589159.00 21776916.00 L 46573308.00 21738647.00 A 54121.84 54121.84 0 0 0 46480919.00 21776916.00 L 46480919.00 21820094.76 L 46447026.24 21853987.00 L 46426264.76 21853987.00 L 46392372.00 21820094.76 L 46392372.00 21733738.24 L 46442117.00 21683994.00 A 54119.43 54119.43 0 0 0 46365579.00 21607456.00 L 46299983.00 21673052.00 L 46284132.00 21711323.41 L 46284131.00 21842512.00 L 46299984.71 21880781.71 L 46365579.00 21946376.00 L 46403850.41 21962227.00 L 46469444.00 21962228.00 L 46507713.00 21946376.00 L 46535039.58 21919049.00 L 46562366.00 21946376.00 L 46600637.41 21962227.00 L 46666230.00 21962228.00 L 46704499.71 21946374.29  z"/>
<path id="N" d="M 45122699.71 15375211.29 L 45188294.00 15309617.00 L 45204145.00 15271345.59 L 45204146.00 15205752.00 L 45188294.00 15167483.00 L 45160967.00 15140156.42 L 45188294.00 15112830.00 L 45204145.00 15074558.59 L 45204146.00 15008966.00 L 45188292.29 14970696.29 L 45122699.00 14905101.00 L 45084427.59 14889250.00 L 44953239.00 14889249.00 L 44914970.00 14905101.00 L 44849374.00 14970698.00 A 54118.22 54118.22 0 1 0 44925911.00 15047235.00 L 44975656.76 14997490.00 L 45062012.76 14997490.00 L 45095905.00 15031382.76 L 45095905.00 15052144.24 L 45062012.76 15086037.00 L 45018834.00 15086037.00 L 44980565.00 15101888.00 A 54121.84 54121.84 0 0 0 45018834.00 15194277.00 L 45062012.76 15194277.00 L 45095905.00 15228169.76 L 45095905.00 15248931.24 L 45062012.76 15282824.00 L 44975656.24 15282824.00 L 44925912.00 15233079.00 A 54119.43 54119.43 0 0 0 44849374.00 15309617.00 L 44914970.00 15375213.00 L 44953241.41 15391064.00 L 45084430.00 15391065.00 L 45122699.71 15375211.29  z"/>
<path id="N" d="M 46378630.71 18311841.29 L 46444225.00 18246247.00 L 46460076.00 18207975.59 L 46460077.00 18142382.00 L 46444225.00 18104113.00 L 46416898.00 18076786.42 L 46444225.00 18049460.00 L 46460076.00 18011188.59 L 46460077.00 17945596.00 L 46444223.29 17907326.29 L 46378630.00 17841731.00 L 46340358.59 17825880.00 L 46209170.00 17825879.00 L 46170901.00 17841731.00 L 46105305.00 17907328.00 A 54118.22 54118.22 0 1 0 46181842.00 17983865.00 L 46231587.76 17934120.00 L 46317943.76 17934120.00 L 46351836.00 17968012.76 L 46351836.00 17988774.24 L 46317943.76 18022667.00 L 46274765.00 18022667.00 L 46236496.00 18038518.00 A 54121.84 54121.84 0 0 0 46274765.00 18130907.00 L 46317943.76 18130907.00 L 46351836.00 18164799.76 L 46351836.00 18185561.24 L 46317943.76 18219454.00 L 46231587.24 18219454.00 L 46181843.00 18169709.00 A 54119.43 54119.43 0 0 0 46105305.00 18246247.00 L 46170901.00 18311843.00 L 46209172.41 18327694.00 L 46340361.00 18327695.00 L 46378630.71 18311841.29  z"/>
<path id="N" d="M 49292994.71 17918765.29 L 49353118.46 17858642.46 L 49413243.00 17918767.00 A 54121.84 54121.84 0 0 0 49489781.00 17842229.00 L 49374441.00 17726889.00 L 49374441.00 17672236.00 L 49451512.00 17672236.00 A 54118.70 54118.70 0 1 0 49451512.00 17563996.00 L 49057938.00 17563996.00 L 49019669.00 17579847.00 L 49003818.00 17618116.00 L 49003818.00 17762862.95 L 48979098.00 17752624.00 L 48948965.00 17765105.00 L 48937827.66 17791994.00 L 47681785.93 17791994.00 L 47670649.00 17765106.00 L 47640516.00 17752625.00 L 47610383.00 17765106.00 L 47597902.00 17795239.00 L 47597902.00 17834608.00 L 47610383.00 17864741.00 L 47640516.00 17877222.00 L 48979098.00 17877222.00 L 49009231.00 17864741.00 L 49016845.91 17846356.24 L 49019670.71 17853172.71 L 49085265.00 17918767.00 L 49123536.41 17934618.00 L 49254725.00 17934619.00 L 49292994.71 17918765.29  zM 49232308.24 17826378.00 L 49145950.76 17826378.00 L 49112058.00 17792485.76 L 49112058.00 17672236.00 L 49266201.00 17672236.00 L 49266201.00 17792485.76 L 49232308.24 17826378.00  z"/>
<path id="N" d="M 43643082.00 18004971.00 L 43655563.00 17974838.00 L 43655563.00 17481334.38 L 43680651.00 17456247.00 L 43696502.00 17417975.59 L 43696503.00 17286787.00 L 43680649.29 17248517.29 L 43620526.46 17188393.54 L 43680651.00 17128269.00 A 54121.84 54121.84 0 0 0 43604113.00 17051731.00 L 43488773.00 17167071.00 L 43434120.00 17167071.00 L 43434120.00 17090000.00 A 54118.70 54118.70 0 0 0 43325880.00 17090000.00 L 43325880.00 17483574.00 L 43341731.00 17521843.00 L 43380000.00 17537694.00 L 43570335.00 17537694.00 L 43570335.00 17974838.00 L 43582816.00 18004971.00 L 43612949.00 18017452.00 L 43643082.00 18004971.00  zM 43554369.76 17429454.00 L 43434120.00 17429454.00 L 43434120.00 17275311.00 L 43554369.76 17275311.00 L 43588262.00 17309203.76 L 43588262.00 17328977.28 L 43582816.00 17331233.00 L 43570335.00 17361366.00 L 43570335.00 17413488.51 L 43554369.76 17429454.00  z"/>
<path id="N" d="M 42400000.00 12142667.00 L 42388525.00 12142667.00 L 42388526.00 11868809.00 L 42372674.00 11830540.00 L 42307078.00 11764944.00 L 42267811.00 11749093.00 L 42267811.00 10870079.00 L 42255330.00 10839946.00 L 42225197.00 10827465.00 L 42195064.00 10839946.00 L 42182583.00 10870079.00 L 42182583.00 11757637.89 L 42164945.00 11764944.00 L 42099349.00 11830541.00 A 54118.22 54118.22 0 1 0 42182583.00 11900381.10 L 42182583.00 12129921.00 L 42195064.00 12160054.00 L 42224801.94 12172371.37 L 42214689.00 12196787.00 L 42230540.00 12235056.00 L 42268809.00 12250907.00 L 42400000.00 12250907.00 A 54121.84 54121.84 0 0 0 42400000.00 12142667.00  zM 42261231.68 12145805.52 L 42267811.00 12129921.00 L 42267811.00 11878752.57 L 42280285.00 11891226.76 L 42280285.00 12142667.00 L 42268809.00 12142667.00 L 42261231.68 12145805.52  z"/>
<path id="N" d="M 45461446.00 13398381.00 L 45338112.12 13336713.12 L 45305519.00 13304120.00 L 45371648.00 13304121.00 L 45409917.71 13288267.29 L 45475512.00 13222673.00 L 45491363.00 13184401.59 L 45491364.00 13118809.00 L 45475510.29 13080539.29 L 45409917.00 13014944.00 L 45371645.59 12999093.00 L 45240457.00 12999092.00 L 45202187.29 13014945.71 L 45136592.00 13080540.00 L 45120741.00 13118811.41 L 45120741.00 13250000.00 L 45136592.00 13288269.00 L 45267783.00 13419460.00 L 45276014.21 13422869.58 L 45281849.00 13429597.00 L 45413040.00 13495193.00 A 54118.07 54118.07 0 0 0 45461446.00 13398381.00  zM 45349230.76 13195880.00 L 45228981.00 13195880.00 L 45228981.00 13141226.76 L 45262874.24 13107333.00 L 45272699.22 13107333.00 L 45277740.00 13119503.00 L 45307873.00 13131984.00 L 45373881.38 13131984.00 L 45377464.00 13135566.67 L 45377464.00 13167646.33 L 45349230.76 13195880.00  z"/>
<path id="N" d="M 43088630.71 18741841.29 L 43154225.00 18676247.00 L 43170076.00 18637975.59 L 43170077.00 18375596.00 L 43154223.29 18337326.29 L 43088630.00 18271731.00 L 43050358.59 18255880.00 L 42919170.00 18255879.00 L 42880900.29 18271732.71 L 42815305.00 18337327.00 A 54119.43 54119.43 0 0 0 42891843.00 18413865.00 L 42941587.24 18364120.00 L 43027943.76 18364120.00 L 43061836.00 18398012.76 L 43061836.00 18452667.00 L 42919170.00 18452666.00 L 42880900.29 18468519.71 L 42815305.00 18534113.00 L 42799454.00 18572384.41 L 42799453.00 18637978.00 L 42815306.71 18676247.71 L 42880901.00 18741843.00 L 42919172.41 18757694.00 L 43050361.00 18757695.00 L 43088630.71 18741841.29  zM 43027943.76 18649454.00 L 42941587.76 18649454.00 L 42907694.00 18615560.76 L 42907694.00 18594799.24 L 42941586.76 18560907.00 L 43061836.00 18560907.00 L 43061836.00 18615561.24 L 43027943.76 18649454.00  z"/>
<path id="N" d="M 44217184.00 18004971.00 L 44229665.00 17974838.00 L 44229665.00 17537694.00 L 44298339.00 17537695.00 L 44336608.71 17521841.29 L 44402203.00 17456247.00 L 44418054.00 17417975.59 L 44418055.00 17155596.00 L 44402201.29 17117326.29 L 44336608.00 17051731.00 L 44298336.59 17035880.00 L 44167148.00 17035879.00 L 44128879.00 17051731.00 L 44063283.00 17117327.00 L 44047432.00 17155598.41 L 44047431.00 17417978.00 L 44063283.00 17456247.00 L 44128879.00 17521843.00 L 44144437.00 17528287.28 L 44144437.00 17974838.00 L 44156918.00 18004971.00 L 44187051.00 18017452.00 L 44217184.00 18004971.00  zM 44229665.00 17429454.00 L 44229665.00 17361366.00 L 44217184.00 17331233.00 L 44187051.00 17318752.00 L 44156918.00 17331233.00 L 44155672.00 17334241.23 L 44155672.00 17178013.24 L 44189565.76 17144120.00 L 44275921.76 17144120.00 L 44309814.00 17178012.76 L 44309814.00 17395561.24 L 44275921.76 17429454.00 L 44229665.00 17429454.00  z"/>
<path id="N" d="M 47169280.71 17501761.29 L 47234875.00 17436167.00 L 47250726.00 17397895.59 L 47250727.00 17135516.00 L 47237141.09 17102718.00 L 47250726.00 17069920.00 A 54118.70 54118.70 0 0 0 47163808.50 17029384.71 L 47131008.59 17015800.00 L 46999820.00 17015799.00 L 46961550.29 17031652.71 L 46895955.00 17097247.00 L 46880104.00 17135518.41 L 46880103.00 17397898.00 L 46895956.71 17436167.71 L 46961551.00 17501763.00 L 46999822.41 17517614.00 L 47131011.00 17517615.00 L 47169280.71 17501761.29  zM 47108593.76 17409374.00 L 47022237.76 17409374.00 L 46988344.00 17375480.76 L 46988344.00 17157933.76 L 47022237.24 17124040.00 L 47065948.00 17124040.00 L 47027146.00 17162842.00 A 54119.43 54119.43 0 0 0 47103684.00 17239380.00 L 47142486.00 17200578.00 L 47142486.00 17375481.24 L 47108593.76 17409374.00  z"/>
<path id="N" d="M 46935573.71 15794369.29 L 47001168.00 15728775.00 L 47017019.00 15690503.59 L 47017020.00 15428124.00 L 47003434.09 15395326.00 L 47017019.00 15362528.00 A 54118.70 54118.70 0 0 0 46930101.50 15321992.71 L 46897301.59 15308408.00 L 46766113.00 15308407.00 L 46727843.29 15324260.71 L 46662248.00 15389855.00 L 46646397.00 15428126.41 L 46646396.00 15690506.00 L 46662249.71 15728775.71 L 46727844.00 15794371.00 L 46766115.41 15810222.00 L 46897304.00 15810223.00 L 46935573.71 15794369.29  zM 46874886.76 15701982.00 L 46788530.76 15701982.00 L 46754637.00 15668088.76 L 46754637.00 15450541.76 L 46788530.24 15416648.00 L 46832241.00 15416648.00 L 46793439.00 15455450.00 A 54119.43 54119.43 0 0 0 46869977.00 15531988.00 L 46908779.00 15493186.00 L 46908779.00 15668089.24 L 46874886.76 15701982.00  z"/>
<path id="N" d="M 43537978.00 27728075.00 L 43637946.00 27628107.00 L 43653797.00 27589838.00 L 43653798.00 27489871.00 L 43637946.00 27451602.00 L 43438010.00 27251667.00 L 43409727.42 27239951.63 L 43438010.00 27228237.00 L 43453861.00 27189968.00 L 43453861.00 27090000.00 A 54118.70 54118.70 0 1 0 43345621.00 27090000.00 L 43345621.00 27189968.00 L 43361472.00 27228237.00 L 43389754.71 27239951.68 L 43361473.00 27251667.00 L 43345621.00 27289935.00 L 43361473.00 27328204.00 L 43545557.00 27512288.92 L 43545557.00 27567420.00 L 43477291.00 27635686.00 L 43322192.00 27635686.00 L 43238075.00 27551569.00 A 54119.43 54119.43 0 0 0 43161537.00 27628107.00 L 43261505.00 27728075.00 L 43299774.00 27743926.00 L 43499709.00 27743927.00 L 43537978.00 27728075.00  z"/>
<path id="N" d="M 50558172.00 23508075.00 L 50658140.00 23408107.00 L 50673991.00 23369838.00 L 50673992.00 23169903.00 L 50658140.00 23131634.00 L 50558172.00 23031666.00 L 50541604.32 23024803.68 L 50658139.00 22908269.00 A 54118.22 54118.22 0 0 0 50581602.00 22831732.00 L 50397517.16 23015815.00 L 50274120.00 23015815.00 L 50274120.00 22870000.00 A 54118.70 54118.70 0 0 0 50165880.00 22870000.00 L 50165880.00 23469806.00 L 50181731.00 23508075.00 L 50220000.00 23523926.00 L 50519903.00 23523927.00 L 50558172.00 23508075.00  zM 50497485.00 23415686.00 L 50274120.00 23415686.00 L 50274120.00 23124055.00 L 50497485.00 23124055.00 L 50565751.00 23192321.00 L 50565751.00 23347420.00 L 50497485.00 23415686.00  z"/>
<path id="N" d="M 49722674.71 14402377.29 L 49788269.00 14336782.00 A 54117.01 54117.01 0 0 0 49711731.00 14260246.00 L 49661987.76 14309990.00 L 49575631.76 14309990.00 L 49541738.00 14276096.76 L 49541738.00 14058549.76 L 49575631.24 14024656.00 L 49661987.76 14024656.00 L 49711731.00 14074400.00 A 54117.01 54117.01 0 0 0 49788269.00 13997864.00 L 49722674.00 13932267.00 L 49684402.59 13916416.00 L 49553214.00 13916415.00 L 49514944.29 13932268.71 L 49449349.00 13997863.00 L 49433498.00 14036134.41 L 49433497.00 14298514.00 L 49449350.71 14336783.71 L 49514945.00 14402379.00 L 49553216.41 14418230.00 L 49684405.00 14418231.00 L 49722674.71 14402377.29  z"/>
<path id="N" d="M 45985056.71 18311841.29 L 46050651.00 18246246.00 A 54117.01 54117.01 0 0 0 45974113.00 18169710.00 L 45924369.76 18219454.00 L 45838013.76 18219454.00 L 45804120.00 18185560.76 L 45804120.00 17968013.76 L 45838013.24 17934120.00 L 45924369.76 17934120.00 L 45974113.00 17983864.00 A 54117.01 54117.01 0 0 0 46050651.00 17907328.00 L 45985056.00 17841731.00 L 45946784.59 17825880.00 L 45815596.00 17825879.00 L 45777326.29 17841732.71 L 45711731.00 17907327.00 L 45695880.00 17945598.41 L 45695879.00 18207978.00 L 45711732.71 18246247.71 L 45777327.00 18311843.00 L 45815598.41 18327694.00 L 45946787.00 18327695.00 L 45985056.71 18311841.29  z"/>
<path id="N" d="M 49278208.71 19968519.29 L 49343804.00 19902925.00 L 49359655.00 19864653.59 L 49359656.00 19602274.00 L 49343802.29 19564004.29 L 49278208.00 19498409.00 L 49239936.59 19482558.00 L 49108748.00 19482557.00 L 49070478.29 19498410.71 L 49004884.00 19564006.00 A 54117.01 54117.01 0 0 0 49081422.00 19640542.00 L 49131165.24 19590798.00 L 49217521.24 19590798.00 L 49251415.00 19624691.24 L 49251415.00 19842238.24 L 49217521.76 19876132.00 L 49131165.24 19876132.00 L 49081422.00 19826388.00 A 54117.01 54117.01 0 0 0 49004884.00 19902924.00 L 49070479.00 19968521.00 L 49108750.41 19984372.00 L 49239939.00 19984373.00 L 49278208.71 19968519.29  z"/>
<path id="N" d="M 45835056.71 14741841.29 L 45900651.00 14676246.00 A 54117.01 54117.01 0 0 0 45824113.00 14599710.00 L 45774369.76 14649454.00 L 45688013.76 14649454.00 L 45654120.00 14615560.76 L 45654120.00 14398013.76 L 45688013.24 14364120.00 L 45774369.76 14364120.00 L 45824113.00 14413864.00 A 54117.01 54117.01 0 1 0 45900651.00 14337328.00 L 45835056.00 14271731.00 L 45796784.59 14255880.00 L 45665596.00 14255879.00 L 45627326.29 14271732.71 L 45561731.00 14337327.00 L 45545880.00 14375598.41 L 45545879.00 14637978.00 L 45561732.71 14676247.71 L 45627327.00 14741843.00 L 45665598.41 14757694.00 L 45796787.00 14757695.00 L 45835056.71 14741841.29  z"/>
<path id="N" d="M 42418809.41 10488791.00 L 42484403.00 10488791.00 L 42522672.71 10472938.29 L 42692665.00 10302946.65 L 42692665.00 10434671.00 A 54118.70 54118.70 0 0 0 42800905.00 10434671.00 L 42800906.00 10172289.00 A 54122.11 54122.11 0 0 0 42708516.00 10134020.00 L 42461985.94 10380551.00 L 42441223.76 10380551.00 L 42407331.00 10346658.76 L 42407331.00 10260302.76 L 42457076.00 10210557.00 A 54118.22 54118.22 0 1 0 42380539.00 10134020.00 L 42314942.00 10199616.00 L 42299091.00 10237887.41 L 42299090.00 10369076.00 L 42314943.71 10407345.71 L 42380538.00 10472940.00 L 42391747.17 10477582.83 L 42418809.41 10488791.00  z"/>
<path id="N" d="M 49318250.71 20560645.29 L 49383846.00 20495051.00 L 49399697.00 20456779.59 L 49399698.00 20194400.00 L 49383844.29 20156130.29 L 49318250.00 20090535.00 L 49279978.59 20074684.00 L 49148790.00 20074683.00 L 49110520.29 20090536.71 L 49044926.00 20156132.00 A 54117.01 54117.01 0 0 0 49121464.00 20232668.00 L 49171207.24 20182924.00 L 49257563.24 20182924.00 L 49291457.00 20216817.24 L 49291457.00 20434364.24 L 49257563.76 20468258.00 L 49171207.24 20468258.00 L 49121464.00 20418514.00 A 54117.01 54117.01 0 0 0 49044926.00 20495050.00 L 49110521.00 20560647.00 L 49148792.41 20576498.00 L 49279981.00 20576499.00 L 49318250.71 20560645.29  z"/>
<path id="N" d="M 43707078.71 18735054.29 L 43772673.00 18669459.00 A 54117.01 54117.01 0 1 0 43696135.00 18592923.00 L 43646391.76 18642667.00 L 43560035.76 18642667.00 L 43526142.00 18608773.76 L 43526142.00 18391226.76 L 43560035.24 18357333.00 L 43646391.76 18357333.00 L 43696135.00 18407077.00 A 54117.01 54117.01 0 1 0 43772673.00 18330541.00 L 43707078.00 18264944.00 L 43668806.59 18249093.00 L 43537618.00 18249092.00 L 43499348.29 18264945.71 L 43433753.00 18330540.00 L 43417902.00 18368811.41 L 43417901.00 18631191.00 L 43433754.71 18669460.71 L 43499349.00 18735056.00 L 43537620.41 18750907.00 L 43668809.00 18750908.00 L 43707078.71 18735054.29  z"/>
<path id="N" d="M 47603850.41 23962227.00 L 47669444.00 23962227.00 L 47707713.71 23946374.29 L 47877706.00 23776382.65 L 47877706.00 23908107.00 A 54118.70 54118.70 0 0 0 47985946.00 23908107.00 L 47985947.00 23645725.00 A 54122.11 54122.11 0 0 0 47893557.00 23607456.00 L 47647026.94 23853987.00 L 47626264.76 23853987.00 L 47592372.00 23820094.76 L 47592372.00 23733738.76 L 47642117.00 23683993.00 A 54118.22 54118.22 0 1 0 47565580.00 23607456.00 L 47499983.00 23673052.00 L 47484132.00 23711323.41 L 47484131.00 23842512.00 L 47499984.71 23880781.71 L 47565579.00 23946376.00 L 47576788.17 23951018.83 L 47603850.41 23962227.00  z"/>
<path id="N" d="M 46573308.71 21224822.29 L 46633432.46 21164699.46 L 46693557.00 21224824.00 A 54121.84 54121.84 0 1 0 46770095.00 21148286.00 L 46654755.00 21032946.00 L 46654755.00 20978293.00 L 46731826.00 20978293.00 A 54118.70 54118.70 0 1 0 46731826.00 20870053.00 L 46338252.00 20870053.00 L 46299983.00 20885904.00 L 46284132.00 20924173.00 L 46284131.00 21120960.00 L 46299984.71 21159229.71 L 46365579.00 21224824.00 L 46403850.41 21240675.00 L 46535039.00 21240676.00 L 46573308.71 21224822.29  zM 46512622.24 21132435.00 L 46426264.76 21132435.00 L 46392372.00 21098542.76 L 46392372.00 20978293.00 L 46546515.00 20978293.00 L 46546515.00 21098542.76 L 46512622.24 21132435.00  z"/>
<path id="N" d="M 42695056.71 18741841.29 L 42760651.00 18676247.00 L 42776502.00 18637975.59 L 42776503.00 18506787.00 L 42760649.29 18468517.29 L 42700526.46 18408393.54 L 42760651.00 18348269.00 A 54121.84 54121.84 0 0 0 42684113.00 18271731.00 L 42568773.00 18387071.00 L 42514120.00 18387071.00 L 42514120.00 18310000.00 A 54118.70 54118.70 0 0 0 42405880.00 18310000.00 L 42405880.00 18703574.00 L 42421731.00 18741843.00 L 42460000.00 18757694.00 L 42656787.00 18757695.00 L 42695056.71 18741841.29  zM 42634369.76 18649454.00 L 42514120.00 18649454.00 L 42514120.00 18495311.00 L 42634369.76 18495311.00 L 42668262.00 18529203.76 L 42668262.00 18615561.24 L 42634369.76 18649454.00  z"/>
<path id="N" d="M 46982098.00 14109777.00 L 46982098.00 13716203.00 L 46966247.00 13677934.00 L 46927978.00 13662083.00 L 46731191.00 13662082.00 L 46692921.29 13677935.71 L 46627327.00 13743530.00 L 46611476.00 13781801.41 L 46611475.00 13912990.00 L 46627328.71 13951259.71 L 46687451.54 14011383.46 L 46627327.00 14071508.00 A 54121.84 54121.84 0 0 0 46703865.00 14148046.00 L 46819205.00 14032706.00 L 46873858.00 14032706.00 L 46873858.00 14109777.00 A 54118.70 54118.70 0 0 0 46982098.00 14109777.00  zM 46873858.00 13924466.00 L 46753608.24 13924466.00 L 46719716.00 13890573.24 L 46719716.00 13804215.76 L 46753608.24 13770323.00 L 46873858.00 13770323.00 L 46873858.00 13924466.00  z"/>
<path id="N" d="M 47773308.71 23224822.29 L 47833432.46 23164699.46 L 47893557.00 23224824.00 A 54121.84 54121.84 0 1 0 47970095.00 23148286.00 L 47854755.00 23032946.00 L 47854755.00 22978293.00 L 47931826.00 22978293.00 A 54118.70 54118.70 0 0 0 47931826.00 22870053.00 L 47538252.00 22870053.00 L 47499983.00 22885904.00 L 47484132.00 22924173.00 L 47484131.00 23120960.00 L 47499984.71 23159229.71 L 47565579.00 23224824.00 L 47603850.41 23240675.00 L 47735039.00 23240676.00 L 47773308.71 23224822.29  zM 47712622.24 23132435.00 L 47626264.76 23132435.00 L 47592372.00 23098542.76 L 47592372.00 22978293.00 L 47746515.00 22978293.00 L 47746515.00 23098542.76 L 47712622.24 23132435.00  z"/>
<path id="N" d="M 47491125.00 13370973.00 L 47491125.00 12977399.00 L 47475274.00 12939130.00 L 47437005.00 12923279.00 L 47240218.00 12923278.00 L 47201948.29 12939131.71 L 47136354.00 13004726.00 L 47120503.00 13042997.41 L 47120502.00 13174186.00 L 47136355.71 13212455.71 L 47196478.54 13272579.46 L 47136354.00 13332704.00 A 54121.84 54121.84 0 1 0 47212892.00 13409242.00 L 47328232.00 13293902.00 L 47382885.00 13293902.00 L 47382885.00 13370973.00 A 54118.70 54118.70 0 0 0 47491125.00 13370973.00  zM 47382885.00 13185662.00 L 47262635.24 13185662.00 L 47228743.00 13151769.24 L 47228743.00 13065411.76 L 47262635.24 13031519.00 L 47382885.00 13031519.00 L 47382885.00 13185662.00  z"/>
<path id="N" d="M 50839755.71 18135054.29 L 50905350.00 18069460.00 L 50921201.00 18031188.59 L 50921202.00 17900000.00 L 50905348.29 17861730.29 L 50845225.46 17801606.54 L 50905350.00 17741482.00 A 54121.84 54121.84 0 1 0 50828812.00 17664944.00 L 50713472.00 17780284.00 L 50658819.00 17780284.00 L 50658819.00 17703213.00 A 54118.70 54118.70 0 0 0 50550579.00 17703213.00 L 50550579.00 18096787.00 L 50566430.00 18135056.00 L 50604699.00 18150907.00 L 50801486.00 18150908.00 L 50839755.71 18135054.29  zM 50779068.76 18042667.00 L 50658819.00 18042667.00 L 50658819.00 17888524.00 L 50779068.76 17888524.00 L 50812961.00 17922416.76 L 50812961.00 18008774.24 L 50779068.76 18042667.00  z"/>
<path id="N" d="M 48573308.71 23274822.29 L 48633432.46 23214699.46 L 48693557.00 23274824.00 A 54121.84 54121.84 0 0 0 48770095.00 23198286.00 L 48654755.00 23082946.00 L 48654755.00 23028293.00 L 48731826.00 23028293.00 A 54118.70 54118.70 0 0 0 48731826.00 22920053.00 L 48338252.00 22920053.00 L 48299983.00 22935904.00 L 48284132.00 22974173.00 L 48284131.00 23170960.00 L 48299984.71 23209229.71 L 48365579.00 23274824.00 L 48403850.41 23290675.00 L 48535039.00 23290676.00 L 48573308.71 23274822.29  zM 48512622.24 23182435.00 L 48426264.76 23182435.00 L 48392372.00 23148542.76 L 48392372.00 23028293.00 L 48546515.00 23028293.00 L 48546515.00 23148542.76 L 48512622.24 23182435.00  z"/>
<path id="N" d="M 44100652.71 18735054.29 L 44166247.00 18669460.00 L 44182098.00 18631188.59 L 44182098.00 18565595.00 L 44166245.29 18527325.29 L 43996253.65 18357333.00 L 44127978.00 18357333.00 A 54118.70 54118.70 0 0 0 44127978.00 18249093.00 L 43865596.00 18249092.00 A 54122.11 54122.11 0 0 0 43827327.00 18341482.00 L 44073858.00 18588012.06 L 44073858.00 18608774.24 L 44039965.76 18642667.00 L 43953609.76 18642667.00 L 43903864.00 18592922.00 A 54118.22 54118.22 0 1 0 43827327.00 18669459.00 L 43892923.00 18735056.00 L 43931194.41 18750907.00 L 44062383.00 18750908.00 L 44100652.71 18735054.29  z"/>
<path id="N" d="M 47329147.71 15794369.29 L 47394742.00 15728775.00 L 47410593.00 15690503.59 L 47410593.00 15624910.00 L 47394740.29 15586640.29 L 47224748.65 15416648.00 L 47356473.00 15416648.00 A 54118.70 54118.70 0 0 0 47356473.00 15308408.00 L 47094091.00 15308407.00 A 54122.11 54122.11 0 0 0 47055822.00 15400797.00 L 47302353.00 15647327.06 L 47302353.00 15668089.24 L 47268460.76 15701982.00 L 47182104.76 15701982.00 L 47132359.00 15652237.00 A 54118.22 54118.22 0 0 0 47055822.00 15728774.00 L 47121418.00 15794371.00 L 47159689.41 15810222.00 L 47290878.00 15810223.00 L 47329147.71 15794369.29  z"/>
<path id="N" d="M 51233329.71 18135054.29 L 51298924.00 18069460.00 L 51314775.00 18031188.59 L 51314775.00 17965595.00 L 51298922.29 17927325.29 L 51128930.65 17757333.00 L 51260655.00 17757333.00 A 54118.70 54118.70 0 0 0 51260655.00 17649093.00 L 50998273.00 17649092.00 A 54122.11 54122.11 0 0 0 50960004.00 17741482.00 L 51206535.00 17988012.06 L 51206535.00 18008774.24 L 51172642.76 18042667.00 L 51086286.76 18042667.00 L 51036541.00 17992922.00 A 54118.22 54118.22 0 0 0 50960004.00 18069459.00 L 51025600.00 18135056.00 L 51063871.41 18150907.00 L 51195060.00 18150908.00 L 51233329.71 18135054.29  z"/>
<path id="N" d="M 42999871.00 27635686.00 L 42954023.00 27635686.00 L 42954024.00 27189968.00 L 42938172.00 27151699.00 L 42838204.00 27051731.00 L 42799935.00 27035880.00 L 42699968.00 27035879.00 L 42661699.00 27051731.00 L 42561731.00 27151699.00 A 54121.84 54121.84 0 0 0 42638269.00 27228237.00 L 42722386.00 27144120.00 L 42777517.00 27144120.00 L 42845783.00 27212386.00 L 42845783.00 27635686.00 L 42799935.00 27635686.00 A 54118.70 54118.70 0 1 0 42799935.00 27743926.00 L 42999871.00 27743926.00 A 54121.84 54121.84 0 0 0 42999871.00 27635686.00  z"/>
<path id="N" d="M 51673667.00 23469803.59 L 51673667.00 23224023.00 L 51719515.00 23224023.00 A 54118.70 54118.70 0 1 0 51719515.00 23115783.00 L 51673667.00 23115783.00 L 51673667.00 22870000.00 A 54118.70 54118.70 0 1 0 51565427.00 22870000.00 L 51565427.00 23115783.00 L 51319644.00 23115782.00 A 54122.11 54122.11 0 0 0 51281375.00 23208172.00 L 51581278.00 23508075.00 A 54119.43 54119.43 0 0 0 51673667.00 23469803.59  zM 51565427.00 23339148.00 L 51450302.00 23224023.00 L 51565427.00 23224023.00 L 51565427.00 23339148.00  z"/>
<path id="N" d="M 50973894.00 23469803.59 L 50973894.00 22924120.00 L 51019741.00 22924120.00 A 54118.70 54118.70 0 1 0 51019741.00 22815880.00 L 50819806.00 22815880.00 A 54118.70 54118.70 0 1 0 50819806.00 22924120.00 L 50865654.00 22924120.00 L 50865654.00 23339148.00 L 50858075.00 23331569.00 A 54121.84 54121.84 0 1 0 50781537.00 23408107.00 L 50881505.00 23508075.00 A 54119.43 54119.43 0 0 0 50973894.00 23469803.59  z"/>
<path id="N" d="M 44810571.00 15336944.00 L 44810572.00 15008966.00 L 44794718.29 14970696.29 L 44729125.00 14905101.00 L 44690853.59 14889250.00 L 44559665.00 14889249.00 L 44521395.29 14905102.71 L 44455800.00 14970697.00 L 44439949.00 15008968.41 L 44439949.00 15336944.00 A 54118.70 54118.70 0 1 0 44548189.00 15336944.00 L 44548189.00 15031383.76 L 44582082.24 14997490.00 L 44668438.76 14997490.00 L 44702331.00 15031382.76 L 44702331.00 15336944.00 A 54118.70 54118.70 0 0 0 44810571.00 15336944.00  z"/>
<path id="N" d="M 49775758.71 21645113.29 L 49841354.00 21579520.00 L 49857205.00 21541248.59 L 49857206.00 21410060.00 L 49841352.29 21371790.29 L 49775758.00 21306195.00 L 49737486.59 21290344.00 L 49409511.00 21290344.00 A 54118.70 54118.70 0 0 0 49409511.00 21398584.00 L 49715071.24 21398584.00 L 49748965.00 21432477.24 L 49748965.00 21518833.76 L 49715072.24 21552726.00 L 49409511.00 21552726.00 A 54118.70 54118.70 0 1 0 49409511.00 21660966.00 L 49737489.00 21660967.00 L 49775758.71 21645113.29  z"/>
<path id="N" d="M 50204120.00 17389479.00 L 50204121.00 17061501.00 L 50188267.29 17023231.29 L 50122674.00 16957636.00 L 50084402.59 16941785.00 L 49953214.00 16941784.00 L 49914944.29 16957637.71 L 49849349.00 17023232.00 L 49833498.00 17061503.41 L 49833498.00 17389479.00 A 54118.70 54118.70 0 0 0 49941738.00 17389479.00 L 49941738.00 17083918.76 L 49975631.24 17050025.00 L 50061987.76 17050025.00 L 50095880.00 17083917.76 L 50095880.00 17389479.00 A 54118.70 54118.70 0 0 0 50204120.00 17389479.00  z"/>
<path id="N" d="M 43893290.00 17483571.59 L 43893290.00 17144120.00 L 43904765.00 17144120.00 A 54118.70 54118.70 0 0 0 43904765.00 17035880.00 L 43773574.00 17035880.00 A 54118.70 54118.70 0 0 0 43773574.00 17144120.00 L 43785050.00 17144120.00 L 43785050.00 17368610.78 L 43773574.00 17363857.00 A 54122.11 54122.11 0 0 0 43735305.00 17456246.00 L 43800901.00 17521843.00 A 54119.43 54119.43 0 0 0 43893290.00 17483571.59  z"/>
<path id="N" d="M 49673160.00 16912101.59 L 49673160.00 16769437.00 L 49684635.00 16769437.00 A 54118.70 54118.70 0 0 0 49684635.00 16661197.00 L 49673160.00 16661197.00 L 49673160.00 16518530.00 A 54118.70 54118.70 0 0 0 49564920.00 16518530.00 L 49564920.00 16661197.00 L 49422253.00 16661196.00 A 54122.11 54122.11 0 0 0 49383984.00 16753586.00 L 49580771.00 16950373.00 A 54119.43 54119.43 0 0 0 49673160.00 16912101.59  z"/>
<path id="N" d="M 47450907.00 10512383.00 L 47450907.00 10381192.00 A 54118.70 54118.70 0 0 0 47342667.00 10381192.00 L 47342667.00 10392668.00 L 47118176.22 10392668.00 L 47122930.00 10381192.00 A 54122.11 54122.11 0 0 0 47030541.00 10342923.00 L 46964944.00 10408519.00 A 54119.43 54119.43 0 0 0 47003215.41 10500908.00 L 47342667.00 10500908.00 L 47342667.00 10512383.00 A 54118.70 54118.70 0 0 0 47450907.00 10512383.00  z"/>
<path id="N" d="M 44966599.00 13446784.59 L 44966599.00 13107333.00 L 44978074.00 13107333.00 A 54118.70 54118.70 0 0 0 44978074.00 12999093.00 L 44846883.00 12999093.00 A 54118.70 54118.70 0 0 0 44846883.00 13107333.00 L 44858359.00 13107333.00 L 44858359.00 13331823.78 L 44846883.00 13327070.00 A 54122.11 54122.11 0 0 0 44808614.00 13419459.00 L 44874210.00 13485056.00 A 54119.43 54119.43 0 0 0 44966599.00 13446784.59  z"/>
<path id="N" d="M 49505632.00 18142881.00 L 49505632.00 18011690.00 A 54118.70 54118.70 0 0 0 49397392.00 18011690.00 L 49397392.00 18023166.00 L 49172901.22 18023166.00 L 49177655.00 18011690.00 A 54122.11 54122.11 0 0 0 49085266.00 17973421.00 L 49019669.00 18039017.00 A 54119.43 54119.43 0 0 0 49057940.41 18131406.00 L 49397392.00 18131406.00 L 49397392.00 18142881.00 A 54118.70 54118.70 0 0 0 49505632.00 18142881.00  z"/>
<path id="N" d="M 48785946.00 23498938.00 L 48785946.00 23367747.00 A 54118.70 54118.70 0 1 0 48677706.00 23367747.00 L 48677706.00 23379223.00 L 48453215.22 23379223.00 L 48457969.00 23367747.00 A 54122.11 54122.11 0 0 0 48365580.00 23329478.00 L 48299983.00 23395074.00 A 54119.43 54119.43 0 0 0 48338254.41 23487463.00 L 48677706.00 23487463.00 L 48677706.00 23498938.00 A 54118.70 54118.70 0 0 0 48785946.00 23498938.00  z"/>
<path id="N" d="M 47447514.00 17463491.59 L 47447514.00 17124040.00 L 47458989.00 17124040.00 A 54118.70 54118.70 0 0 0 47458989.00 17015800.00 L 47327798.00 17015800.00 A 54118.70 54118.70 0 0 0 47327798.00 17124040.00 L 47339274.00 17124040.00 L 47339274.00 17348530.78 L 47327798.00 17343777.00 A 54122.11 54122.11 0 0 0 47289529.00 17436166.00 L 47355125.00 17501763.00 A 54119.43 54119.43 0 0 0 47447514.00 17463491.59  z"/>
<path id="N" d="M 49505632.00 18470859.00 L 49505632.00 18339668.00 A 54118.70 54118.70 0 0 0 49397392.00 18339668.00 L 49397392.00 18351144.00 L 49172901.22 18351144.00 L 49177655.00 18339668.00 A 54122.11 54122.11 0 0 0 49085266.00 18301399.00 L 49019669.00 18366995.00 A 54119.43 54119.43 0 0 0 49057940.41 18459384.00 L 49397392.00 18459384.00 L 49397392.00 18470859.00 A 54118.70 54118.70 0 0 0 49505632.00 18470859.00  z"/>
<path id="N" d="M 50000908.00 14364107.59 L 50000908.00 14024656.00 L 50012383.00 14024656.00 A 54118.70 54118.70 0 0 0 50012383.00 13916416.00 L 49881192.00 13916416.00 A 54118.70 54118.70 0 0 0 49881192.00 14024656.00 L 49892668.00 14024656.00 L 49892668.00 14249146.78 L 49881192.00 14244393.00 A 54122.11 54122.11 0 0 0 49842923.00 14336782.00 L 49908519.00 14402379.00 A 54119.43 54119.43 0 0 0 50000908.00 14364107.59  z"/>
<path id="N" d="M 47985946.00 23448938.00 L 47985946.00 23317747.00 A 54118.70 54118.70 0 0 0 47877706.00 23317747.00 L 47877706.00 23329223.00 L 47653215.22 23329223.00 L 47657969.00 23317747.00 A 54122.11 54122.11 0 0 0 47565580.00 23279478.00 L 47499983.00 23345074.00 A 54119.43 54119.43 0 0 0 47538254.41 23437463.00 L 47877706.00 23437463.00 L 47877706.00 23448938.00 A 54118.70 54118.70 0 0 0 47985946.00 23448938.00  z"/>
<path id="N" d="M 46785946.00 21448938.00 L 46785946.00 21317747.00 A 54118.70 54118.70 0 0 0 46677706.00 21317747.00 L 46677706.00 21329223.00 L 46453215.22 21329223.00 L 46457969.00 21317747.00 A 54122.11 54122.11 0 0 0 46365580.00 21279478.00 L 46299983.00 21345074.00 A 54119.43 54119.43 0 0 0 46338254.41 21437463.00 L 46677706.00 21437463.00 L 46677706.00 21448938.00 A 54118.70 54118.70 0 0 0 46785946.00 21448938.00  z"/>
<path id="N" d="M 50400908.00 17389476.59 L 50400908.00 17050025.00 L 50412383.00 17050025.00 A 54118.70 54118.70 0 0 0 50412383.00 16941785.00 L 50281192.00 16941785.00 A 54118.70 54118.70 0 0 0 50281192.00 17050025.00 L 50292668.00 17050025.00 L 50292668.00 17274515.78 L 50281192.00 17269762.00 A 54122.11 54122.11 0 0 0 50242923.00 17362151.00 L 50308519.00 17427748.00 A 54119.43 54119.43 0 0 0 50400908.00 17389476.59  z"/>
<path id="N" d="M 44169038.00 21021996.59 L 44169038.00 20682545.00 L 44180513.00 20682545.00 A 54118.70 54118.70 0 1 0 44180513.00 20574305.00 L 44049322.00 20574305.00 A 54118.70 54118.70 0 1 0 44049322.00 20682545.00 L 44060798.00 20682545.00 L 44060798.00 20907035.78 L 44049322.00 20902282.00 A 54122.11 54122.11 0 0 0 44011053.00 20994671.00 L 44076649.00 21060268.00 A 54119.43 54119.43 0 0 0 44169038.00 21021996.59  z"/>
<path id="N" d="M 42650908.00 12196784.59 L 42650908.00 11857333.00 L 42662383.00 11857333.00 A 54118.70 54118.70 0 0 0 42662383.00 11749093.00 L 42531192.00 11749093.00 A 54118.70 54118.70 0 0 0 42531192.00 11857333.00 L 42542668.00 11857333.00 L 42542668.00 12081823.78 L 42531192.00 12077070.00 A 54122.11 54122.11 0 0 0 42492923.00 12169459.00 L 42558519.00 12235056.00 A 54119.43 54119.43 0 0 0 42650908.00 12196784.59  z"/>
<path id="N" d="M 49660418.00 22000420.00 L 49660418.00 21988945.00 L 49803085.00 21988945.00 A 54118.70 54118.70 0 1 0 49803085.00 21880705.00 L 49660418.00 21880705.00 L 49660419.00 21738038.00 A 54122.11 54122.11 0 0 0 49568029.00 21699769.00 L 49371242.00 21896556.00 A 54119.43 54119.43 0 0 0 49409513.41 21988945.00 L 49552178.00 21988945.00 L 49552178.00 22000420.00 A 54118.70 54118.70 0 0 0 49660418.00 22000420.00  z"/>
<path id="N" d="M 48809336.00 20522378.00 L 48809336.00 20379711.00 L 48952003.00 20379712.00 A 54122.11 54122.11 0 0 0 48990272.00 20287322.00 L 48793485.00 20090535.00 A 54119.43 54119.43 0 0 0 48701096.00 20128806.41 L 48701096.00 20271471.00 L 48689621.00 20271471.00 A 54118.70 54118.70 0 0 0 48689621.00 20379711.00 L 48701096.00 20379711.00 L 48701096.00 20522378.00 A 54118.70 54118.70 0 0 0 48809336.00 20522378.00  z"/>
<path id="N" d="M 47369460.71 10288267.29 L 47435056.00 10222674.00 L 47450907.00 10184402.59 L 47450907.00 9987618.00 L 47435056.00 9949349.00 L 47396787.00 9933498.00 L 47003213.00 9933498.00 L 46964944.00 9949349.00 L 46949093.00 9987618.00 L 46949092.00 10184405.00 L 46964945.71 10222674.71 L 47030540.00 10288269.00 L 47068811.41 10304120.00 L 47331191.00 10304121.00 L 47369460.71 10288267.29  zM 47308774.24 10195880.00 L 47091225.76 10195880.00 L 47057333.00 10161987.76 L 47057333.00 10041738.00 L 47342667.00 10041738.00 L 47342667.00 10161987.76 L 47308774.24 10195880.00  z"/>
<path id="N" d="M 42719458.71 10079364.29 L 42785054.00 10013771.00 L 42800905.00 9975499.59 L 42800905.00 9778715.00 L 42785054.00 9740446.00 L 42746785.00 9724595.00 L 42353211.00 9724595.00 L 42314942.00 9740446.00 L 42299091.00 9778715.00 L 42299090.00 9975502.00 L 42314943.71 10013771.71 L 42380538.00 10079366.00 L 42418809.41 10095217.00 L 42681189.00 10095218.00 L 42719458.71 10079364.29  zM 42658772.24 9986977.00 L 42441223.76 9986977.00 L 42407331.00 9953084.76 L 42407331.00 9832835.00 L 42692665.00 9832835.00 L 42692665.00 9953084.76 L 42658772.24 9986977.00  z"/>
<path id="N" d="M 47794400.00 20656417.00 L 47806881.00 20626284.00 L 47794400.00 20596151.00 L 47775631.16 20588377.00 L 48321353.00 20588377.00 L 48351486.00 20575896.00 L 48363967.00 20545763.00 L 48351486.00 20515630.00 L 48321353.00 20503149.00 L 47741639.00 20503149.00 L 47711506.00 20515630.00 L 47699025.00 20545763.00 L 47711506.00 20575896.00 L 47730274.84 20583670.00 L 47105813.00 20583670.00 L 47075680.00 20596151.00 L 47063199.00 20626284.00 L 47075680.00 20656417.00 L 47105813.00 20668898.00 L 47764267.00 20668898.00 L 47794400.00 20656417.00  z"/>
<path id="N" d="M 43048760.00 14000330.00 L 43048760.00 13934734.00 L 43032907.29 13896464.29 L 42797319.90 13660876.00 L 42994640.00 13660876.00 A 54118.70 54118.70 0 0 0 42994640.00 13552636.00 L 42732258.00 13552636.00 L 42693989.00 13568487.00 L 42678138.00 13606756.00 L 42678137.00 13672352.00 L 42693989.00 13710621.00 L 42940520.00 13957151.06 L 42940520.00 14000330.00 L 42956371.00 14038599.00 A 54121.84 54121.84 0 0 0 43048760.00 14000330.00  z"/>
<path id="N" d="M 47249998.47 10644486.47 m -100354.75 0 a 100354.75 100354.75 0 1 1 200709.51 0a 100354.75 100354.75 0 1 1 -200709.51 0"/>
<path id="N" d="M 45675982.47 13148423.47 m -100354.75 0 a 100354.75 100354.75 0 1 1 200709.51 0a 100354.75 100354.75 0 1 1 -200709.51 0"/>
<path id="N" d="M 42549998.47 10594486.47 m -100354.75 0 a 100354.75 100354.75 0 1 1 200709.51 0a 100354.75 100354.75 0 1 1 -200709.51 0"/>
<path id="N" d="M 48454722.47 21053148.47 m -100354.75 0 a 100354.75 100354.75 0 1 1 200709.51 0a 100354.75 100354.75 0 1 1 -200709.51 0"/>
<path id="N" d="M 48991120.00 16307349.00 L 49003601.00 16277216.00 L 49003601.00 16237846.00 L 48991120.00 16207713.00 L 48960987.00 16195232.00 L 48930854.00 16207713.00 L 48919716.66 16234602.00 L 47663674.93 16234602.00 L 47652538.00 16207714.00 L 47622405.00 16195233.00 L 47592272.00 16207714.00 L 47579791.00 16237847.00 L 47579791.00 16277216.00 L 47592272.00 16307349.00 L 47622405.00 16319830.00 L 48960987.00 16319830.00 L 48991120.00 16307349.00  z"/>
<path id="N" d="M 50296848.47 16826248.47 m -100354.75 0 a 100354.75 100354.75 0 1 1 200709.51 0a 100354.75 100354.75 0 1 1 -200709.51 0"/>
<path id="N" d="M 49205080.47 15224065.47 m -100354.75 0 a 100354.75 100354.75 0 1 1 200709.51 0a 100354.75 100354.75 0 1 1 -200709.51 0"/>
<path id="N" d="M 48991120.00 15008137.00 L 49003601.00 14978004.00 L 49003601.00 14938634.00 L 48991120.00 14908501.00 L 48960987.00 14896020.00 L 47622405.00 14896020.00 L 47592272.00 14908501.00 L 47579791.00 14938634.00 L 47579791.00 14978003.00 L 47592272.00 15008136.00 L 47622405.00 15020617.00 L 47652538.00 15008136.00 L 47663674.93 14981248.00 L 48919716.66 14981248.00 L 48930854.00 15008137.00 L 48960987.00 15020618.00 L 48991120.00 15008137.00  z"/>
<path id="N" d="M 51811026.92 25452758.92 m -80279.37 0 a 80279.37 80279.37 0 1 1 160558.73 0a 80279.37 80279.37 0 1 1 -160558.73 0"/>
<path id="N" d="M 44322258.00 14359660.00 L 44334739.00 14329527.00 L 44322258.00 14299394.00 L 44292125.00 14286913.00 L 44222535.00 14286913.00 L 44222535.00 14217323.00 L 44210054.00 14187190.00 L 44179921.00 14174709.00 L 44149788.00 14187190.00 L 44137307.00 14217323.00 L 44137307.00 14329527.00 L 44149788.00 14359660.00 L 44179921.00 14372141.00 L 44292125.00 14372141.00 L 44322258.00 14359660.00  z"/>
<path id="N" d="M 45450211.00 14359660.00 L 45462692.00 14329527.00 L 45462692.00 14217323.00 L 45450211.00 14187190.00 L 45420078.00 14174709.00 L 45389945.00 14187190.00 L 45377464.00 14217323.00 L 45377464.00 14286913.00 L 45307873.00 14286913.00 L 45277740.00 14299394.00 L 45265259.00 14329527.00 L 45277740.00 14359660.00 L 45307873.00 14372141.00 L 45420078.00 14372141.00 L 45450211.00 14359660.00  z"/>
<path id="N" d="M 48325409.00 20063598.00 L 48334031.01 20042781.81 L 48351486.00 20035552.00 L 48363967.00 20005419.00 L 48351486.00 19975286.00 L 48321353.00 19962805.00 L 47741639.00 19962805.00 L 47711506.00 19975286.00 L 47699025.00 20005419.00 L 47711506.00 20035552.00 L 47728960.99 20042781.81 L 47737583.00 20063598.00 L 47767716.00 20076079.00 L 48295276.00 20076079.00 L 48325409.00 20063598.00  z"/>
<path id="N" d="M 43709868.00 21021999.00 L 43709868.00 20682545.00 L 43918130.00 20682545.00 A 54118.70 54118.70 0 1 0 43918130.00 20574305.00 L 43655748.00 20574305.00 L 43617479.00 20590156.00 L 43601628.00 20628425.00 L 43601628.00 21021999.00 A 54118.70 54118.70 0 0 0 43709868.00 21021999.00  z"/>
<path id="N" d="M 45571472.00 15663991.00 L 45583953.00 15633858.00 L 45583953.00 15570866.00 L 45571471.00 15540732.00 L 45541338.00 15528251.00 L 45324803.00 15528251.00 L 45294670.00 15540732.00 L 45282189.00 15570865.00 L 45294670.00 15600998.00 L 45324803.00 15613479.00 L 45498725.00 15613479.00 L 45498725.00 15633858.00 L 45511206.00 15663991.00 L 45541339.00 15676472.00 L 45571472.00 15663991.00  z"/>
<path id="N" d="M 45571472.00 16939582.00 L 45583953.00 16909449.00 L 45583953.00 16846457.00 L 45571472.00 16816324.00 L 45541339.00 16803843.00 L 45511206.00 16816324.00 L 45498725.00 16846457.00 L 45498725.00 16866835.00 L 45324803.00 16866835.00 L 45294670.00 16879316.00 L 45282189.00 16909449.00 L 45294670.00 16939582.00 L 45324803.00 16952063.00 L 45541339.00 16952063.00 L 45571472.00 16939582.00  z"/>
<path id="N" d="M 44449424.00 16939582.00 L 44461905.00 16909449.00 L 44449424.00 16879316.00 L 44419291.00 16866835.00 L 44245370.00 16866835.00 L 44245370.00 16846457.00 L 44232889.00 16816324.00 L 44202756.00 16803843.00 L 44172623.00 16816324.00 L 44160142.00 16846457.00 L 44160142.00 16909449.00 L 44172623.00 16939582.00 L 44202756.00 16952063.00 L 44419291.00 16952063.00 L 44449424.00 16939582.00  z"/>
<path id="N" d="M 44232889.00 15663991.00 L 44245370.00 15633858.00 L 44245370.00 15613479.00 L 44419291.00 15613479.00 L 44449424.00 15600998.00 L 44461905.00 15570865.00 L 44449424.00 15540732.00 L 44419291.00 15528251.00 L 44202756.00 15528251.00 L 44172623.00 15540732.00 L 44160142.00 15570866.00 L 44160142.00 15633858.00 L 44172623.00 15663991.00 L 44202756.00 15676472.00 L 44232889.00 15663991.00  z"/>
<path id="N" d="M 49833282.00 21053755.00 L 49845763.00 21023622.00 L 49833282.00 20993489.00 L 49803149.00 20981008.00 L 49409449.00 20981008.00 L 49379316.00 20993489.00 L 49366835.00 21023622.00 L 49379316.00 21053755.00 L 49409449.00 21066236.00 L 49803149.00 21066236.00 L 49833282.00 21053755.00  z"/>
<path id="N" d="M 49833282.00 19951393.00 L 49845763.00 19921260.00 L 49833282.00 19891127.00 L 49803149.00 19878646.00 L 49409449.00 19878646.00 L 49379316.00 19891127.00 L 49366835.00 19921260.00 L 49379316.00 19951393.00 L 49409449.00 19963874.00 L 49803149.00 19963874.00 L 49833282.00 19951393.00  z"/>
<path id="N" d="M 44616747.00 18612810.00 L 44629228.00 18582677.00 L 44616747.00 18552544.00 L 44586614.00 18540063.00 L 44389764.00 18540063.00 L 44359631.00 18552544.00 L 44347150.00 18582677.00 L 44359631.00 18612810.00 L 44389764.00 18625291.00 L 44586614.00 18625291.00 L 44616747.00 18612810.00  z"/>
<path id="N" d="M 44616747.00 20226984.00 L 44629228.00 20196851.00 L 44616747.00 20166718.00 L 44586614.00 20154237.00 L 44389764.00 20154237.00 L 44359631.00 20166718.00 L 44347150.00 20196851.00 L 44359631.00 20226984.00 L 44389764.00 20239465.00 L 44586614.00 20239465.00 L 44616747.00 20226984.00  z"/>
<path id="N" d="M 49736432.00 16468101.00 L 49748913.00 16437968.00 L 49748913.00 15847416.00 L 49736432.00 15817283.00 L 49706299.00 15804802.00 L 49676166.00 15817283.00 L 49663685.00 15847416.00 L 49663685.00 16437968.00 L 49676166.00 16468101.00 L 49706299.00 16480582.00 L 49736432.00 16468101.00  z"/>
<path id="N" d="M 48055030.00 22583220.00 L 48067511.00 22553087.00 L 48067511.00 21894633.00 L 48055030.00 21864500.00 L 48024897.00 21852019.00 L 47994764.00 21864500.00 L 47982283.00 21894633.00 L 47982283.00 22553087.00 L 47994764.00 22583220.00 L 48024897.00 22595701.00 L 48055030.00 22583220.00  z"/>
<path id="N" d="M 46742338.00 11847850.00 L 46754819.00 11817717.00 L 46754819.00 11286221.00 L 46742338.00 11256088.00 L 46712205.00 11243607.00 L 46682072.00 11256088.00 L 46669591.00 11286221.00 L 46669591.00 11817717.00 L 46682072.00 11847850.00 L 46712205.00 11860331.00 L 46742338.00 11847850.00  z"/>
<path id="N" d="M 43124228.00 11847850.00 L 43136709.00 11817717.00 L 43136709.00 11286221.00 L 43124228.00 11256088.00 L 43094095.00 11243607.00 L 43063962.00 11256088.00 L 43051481.00 11286221.00 L 43051481.00 11817717.00 L 43063962.00 11847850.00 L 43094095.00 11860331.00 L 43124228.00 11847850.00  z"/>
<path id="N" d="M 42904936.00 12160054.00 L 42917417.00 12129921.00 L 42917417.00 10870079.00 L 42904936.00 10839946.00 L 42874803.00 10827465.00 L 42844670.00 10839946.00 L 42832189.00 10870079.00 L 42832189.00 12129921.00 L 42844670.00 12160054.00 L 42874803.00 12172535.00 L 42904936.00 12160054.00  z"/>
<path id="N" d="M 47475316.00 22583220.00 L 47487797.00 22553087.00 L 47487797.00 21894633.00 L 47475316.00 21864500.00 L 47445183.00 21852019.00 L 47415050.00 21864500.00 L 47402569.00 21894633.00 L 47402569.00 22553087.00 L 47415050.00 22583220.00 L 47445183.00 22595701.00 L 47475316.00 22583220.00  z"/>
<path id="N" d="M 47794400.00 21236131.00 L 47806881.00 21205998.00 L 47794400.00 21175865.00 L 47764267.00 21163384.00 L 47105813.00 21163384.00 L 47075680.00 21175865.00 L 47063199.00 21205998.00 L 47075680.00 21236131.00 L 47105813.00 21248612.00 L 47764267.00 21248612.00 L 47794400.00 21236131.00  z"/>
<path id="N" d="M 46955330.00 12210054.00 L 46967811.00 12179921.00 L 46967811.00 10920079.00 L 46955330.00 10889946.00 L 46925197.00 10877465.00 L 46895064.00 10889946.00 L 46882583.00 10920079.00 L 46882583.00 12179921.00 L 46895064.00 12210054.00 L 46925197.00 12222535.00 L 46955330.00 12210054.00  z"/>
<path id="N" d="M 47604936.00 12210054.00 L 47617417.00 12179921.00 L 47617417.00 10920079.00 L 47604936.00 10889946.00 L 47574803.00 10877465.00 L 47544670.00 10889946.00 L 47532189.00 10920079.00 L 47532189.00 12179921.00 L 47544670.00 12210054.00 L 47574803.00 12222535.00 L 47604936.00 12210054.00  z"/>
<path id="N" d="M 44545881.00 12575409.00 L 44558362.00 12545276.00 L 44545881.00 12515143.00 L 44515748.00 12502662.00 L 43988188.00 12502662.00 L 43958055.00 12515143.00 L 43945574.00 12545276.00 L 43958055.00 12575409.00 L 43988188.00 12587890.00 L 44515748.00 12587890.00 L 44545881.00 12575409.00  z"/>
<path id="N" d="M 43886826.00 16284070.00 L 43899307.00 16253937.00 L 43886826.00 16223804.00 L 43856693.00 16211323.00 L 43443307.00 16211323.00 L 43413174.00 16223804.00 L 43400693.00 16253937.00 L 43413174.00 16284070.00 L 43443307.00 16296551.00 L 43856693.00 16296551.00 L 43886826.00 16284070.00  z"/>
<path id="N" d="M 49986826.00 14651393.00 L 49999307.00 14621260.00 L 49986826.00 14591127.00 L 49956693.00 14578646.00 L 49543307.00 14578646.00 L 49513174.00 14591127.00 L 49500693.00 14621260.00 L 49513174.00 14651393.00 L 49543307.00 14663874.00 L 49956693.00 14663874.00 L 49986826.00 14651393.00  z"/>
<path id="N" d="M 49941551.00 18759659.00 L 49954032.00 18729526.00 L 49941551.00 18699393.00 L 49911418.00 18686912.00 L 49498032.00 18686912.00 L 49467899.00 18699393.00 L 49455418.00 18729526.00 L 49467899.00 18759659.00 L 49498032.00 18772140.00 L 49911418.00 18772140.00 L 49941551.00 18759659.00  z"/>
<path id="N" d="M 49941551.00 19489581.00 L 49954032.00 19459448.00 L 49941551.00 19429315.00 L 49911418.00 19416834.00 L 49498032.00 19416834.00 L 49467899.00 19429315.00 L 49455418.00 19459448.00 L 49467899.00 19489581.00 L 49498032.00 19502062.00 L 49911418.00 19502062.00 L 49941551.00 19489581.00  z"/>
<path id="N" d="M 43886826.00 16776196.00 L 43899307.00 16746063.00 L 43886826.00 16715930.00 L 43856693.00 16703449.00 L 43443307.00 16703449.00 L 43413174.00 16715930.00 L 43400693.00 16746063.00 L 43413174.00 16776196.00 L 43443307.00 16788677.00 L 43856693.00 16788677.00 L 43886826.00 16776196.00  z"/>
<path id="N" d="M 45719109.00 17480920.00 L 45731590.00 17450787.00 L 45731590.00 16998031.00 L 45719109.00 16967898.00 L 45688976.00 16955417.00 L 45658843.00 16967898.00 L 45646362.00 16998031.00 L 45646362.00 17450787.00 L 45658843.00 17480920.00 L 45688976.00 17493401.00 L 45719109.00 17480920.00  z"/>
<path id="N" d="M 48325409.00 19563598.00 L 48337890.00 19533465.00 L 48325409.00 19503332.00 L 48295276.00 19490851.00 L 47767716.00 19490851.00 L 47737583.00 19503332.00 L 47725102.00 19533465.00 L 47737583.00 19563598.00 L 47767716.00 19576079.00 L 48295276.00 19576079.00 L 48325409.00 19563598.00  z"/>
<path id="N" d="M 46106511.00 13454542.00 L 46118992.00 13424409.00 L 46106511.00 13394276.00 L 46076378.00 13381795.00 L 45623622.00 13381795.00 L 45593489.00 13394276.00 L 45581008.00 13424409.00 L 45593489.00 13454542.00 L 45623622.00 13467023.00 L 46076378.00 13467023.00 L 46106511.00 13454542.00  z"/>
<path id="N" d="M 46270291.00 17480920.00 L 46282772.00 17450787.00 L 46282772.00 16998031.00 L 46270291.00 16967898.00 L 46240158.00 16955417.00 L 46210025.00 16967898.00 L 46197544.00 16998031.00 L 46197544.00 17450787.00 L 46210025.00 17480920.00 L 46240158.00 17493401.00 L 46270291.00 17480920.00  z"/>
<path id="N" d="M 44075408.00 16876590.00 L 44087889.00 16846457.00 L 44075408.00 16816324.00 L 44045275.00 16803843.00 L 44015142.00 16816324.00 L 44002661.00 16846457.00 L 44015142.00 16876590.00 L 44045275.00 16889071.00 L 44075408.00 16876590.00  z"/>
</g>
</svg>
