<svg width="31.90378176mm" height="47.33746438mm" viewBox="0 0 12560544 18636797"  version="1.1" xmlns="http://www.w3.org/2000/svg" xmlns:xlink="http://www.w3.org/1999/xlink">
<desc>
Origin 47244094 17224409 Bound 40997224 8134916 12560544 18636797
</desc>
<g fill-rule="evenodd" fill="rgb(128, 0, 128)" stroke="black" stroke-width="1" transform="translate(0, 18636797) scale(1, -1) translate(-40997224, -8134916)">
<path id="N" d="M 51417323.00 26617386.00 L 51417323.00 24566929.00 L 52362205.00 24566929.00 L 52362205.00 23243760.00 L 53557768.00 22036055.00 L 53497232.00 10052339.00 L 51560336.00 8134916.00 L 42836531.00 8134916.00 L 40997224.00 9991051.00 L 41050972.00 21788370.00 L 42519685.00 23243760.00 L 42519685.00 24566929.00 L 43464567.00 24566929.00 L 43464567.00 26567382.00 L 43668898.00 26771713.00 L 46112992.00 26771713.00 L 46259843.00 26624862.00 L 46259843.00 23858327.00 L 46261739.00 23819737.00 A 393696.77 393696.77 0 0 1 47047243.00 23858327.00 L 47047244.00 26600059.00 L 47218898.00 26771713.00 L 51262992.00 26771713.00 L 51417323.00 26617386.00  zM 42981586.00 10922047.00 L 42981586.00 10685827.00 A 220780.35 220780.35 0 0 1 43423140.00 10685827.00 L 43423140.00 10922047.00 A 220780.35 220780.35 0 0 1 42981586.00 10922047.00  zM 42727165.00 11602362.00 L 42372835.00 11602362.00 L 42372835.00 10811024.00 L 42727165.00 10811024.00 L 42727165.00 11602362.00  zM 42727165.00 12188976.00 L 42372835.00 12188976.00 L 42372835.00 11751968.00 L 42727165.00 11751968.00 L 42727165.00 12188976.00  zM 42981586.00 12418110.00 L 42981586.00 12181890.00 A 220780.35 220780.35 0 0 1 43423140.00 12181890.00 L 43423140.00 12418110.00 A 220780.35 220780.35 0 0 1 42981586.00 12418110.00  zM 43977953.00 12536220.00 L 43662993.00 12536220.00 L 43662993.00 12063780.00 L 43977953.00 12063780.00 L 43977953.00 12536220.00  zM 44454331.00 12536220.00 L 44155119.00 12536220.00 L 44155119.00 12063780.00 L 44454331.00 12063780.00 L 44454331.00 12536220.00  zM 44196850.00 12897638.00 L 43992126.00 12897638.00 L 43992126.00 12692914.00 L 44196850.00 12692914.00 L 44196850.00 12897638.00  zM 44511810.00 12897638.00 L 44307086.00 12897638.00 L 44307086.00 12692914.00 L 44511810.00 12692914.00 L 44511810.00 12897638.00  zM 44844095.00 12536220.00 L 44568505.00 12536220.00 L 44568505.00 12063780.00 L 44844095.00 12063780.00 L 44844095.00 12536220.00  zM 45237795.00 12536220.00 L 44962205.00 12536220.00 L 44962205.00 12063780.00 L 45237795.00 12063780.00 L 45237795.00 12536220.00  zM 43253150.00 13056299.00 L 42967322.00 13056299.00 L 42967322.00 12750787.00 L 43253150.00 12750787.00 L 43253150.00 13056299.00  zM 43253150.00 13430315.00 L 42967322.00 13430315.00 L 42967322.00 13124803.00 L 43253150.00 13124803.00 L 43253150.00 13430315.00  zM 43683834.00 13382377.00 L 43420774.00 13382377.00 L 43420774.00 13117623.00 L 43683834.00 13117623.00 L 43683834.00 13382377.00  zM 44079226.00 13382377.00 L 43816166.00 13382377.00 L 43816166.00 13117623.00 L 44079226.00 13117623.00 L 44079226.00 13382377.00  zM 44347244.00 13481201.00 L 44150394.00 13481201.00 L 44123877.00 13470217.00 L 44112893.00 13443700.00 L 44112893.00 13384646.00 L 44123877.00 13358129.00 L 44150394.00 13347145.00 L 44347244.00 13347145.00 L 44373761.00 13358129.00 L 44384745.00 13384646.00 L 44384745.00 13443700.00 L 44373761.00 13470217.00 L 44347244.00 13481201.00  zM 44534251.00 13294194.00 L 44475197.00 13294194.00 L 44448680.00 13283210.00 L 44437696.00 13256693.00 L 44437696.00 13059843.00 L 44448680.00 13033326.00 L 44475197.00 13022342.00 L 44534251.00 13022342.00 L 44560768.00 13033326.00 L 44571752.00 13059843.00 L 44571752.00 13256693.00 L 44560768.00 13283210.00 L 44534251.00 13294194.00  zM 44731101.00 13294194.00 L 44672047.00 13294194.00 L 44645530.00 13283210.00 L 44634546.00 13256693.00 L 44634546.00 13059843.00 L 44645530.00 13033326.00 L 44672047.00 13022342.00 L 44731101.00 13022342.00 L 44757618.00 13033326.00 L 44768602.00 13059843.00 L 44768602.00 13256693.00 L 44757618.00 13283210.00 L 44731101.00 13294194.00  zM 44927952.00 13294194.00 L 44868898.00 13294194.00 L 44842381.00 13283210.00 L 44831397.00 13256693.00 L 44831397.00 13059843.00 L 44842381.00 13033326.00 L 44868898.00 13022342.00 L 44927952.00 13022342.00 L 44954469.00 13033326.00 L 44965453.00 13059843.00 L 44965453.00 13256693.00 L 44954469.00 13283210.00 L 44927952.00 13294194.00  zM 45124802.00 13294194.00 L 45065748.00 13294194.00 L 45039231.00 13283210.00 L 45028247.00 13256693.00 L 45028247.00 13059843.00 L 45039231.00 13033326.00 L 45065748.00 13022342.00 L 45124802.00 13022342.00 L 45151319.00 13033326.00 L 45162303.00 13059843.00 L 45162303.00 13256693.00 L 45151319.00 13283210.00 L 45124802.00 13294194.00  zM 43638582.00 13818110.00 L 43461418.00 13818110.00 L 43461418.00 13581890.00 L 43638582.00 13581890.00 L 43638582.00 13818110.00  zM 44012598.00 13818110.00 L 43835434.00 13818110.00 L 43835434.00 13581890.00 L 44012598.00 13581890.00 L 44012598.00 13818110.00  zM 44347244.00 13874902.00 L 44150394.00 13874902.00 L 44123877.00 13863918.00 L 44112893.00 13837401.00 L 44112893.00 13778347.00 L 44123877.00 13751830.00 L 44150394.00 13740846.00 L 44347244.00 13740846.00 L 44373761.00 13751830.00 L 44384745.00 13778347.00 L 44384745.00 13837401.00 L 44373761.00 13863918.00 L 44347244.00 13874902.00  zM 44347244.00 13678051.00 L 44150394.00 13678051.00 L 44123877.00 13667067.00 L 44112893.00 13640550.00 L 44112893.00 13581496.00 L 44123877.00 13554979.00 L 44150394.00 13543995.00 L 44347244.00 13543995.00 L 44373761.00 13554979.00 L 44384745.00 13581496.00 L 44384745.00 13640550.00 L 44373761.00 13667067.00 L 44347244.00 13678051.00  zM 44347244.00 14071752.00 L 44150394.00 14071752.00 L 44123877.00 14060768.00 L 44112893.00 14034251.00 L 44112893.00 13975197.00 L 44123877.00 13948680.00 L 44150394.00 13937696.00 L 44347244.00 13937696.00 L 44373761.00 13948680.00 L 44384745.00 13975197.00 L 44384745.00 14034251.00 L 44373761.00 14060768.00 L 44347244.00 14071752.00  zM 45114565.00 14061942.00 L 44485433.00 14061942.00 L 44458615.00 14050833.00 L 44447506.00 14024015.00 L 44447506.00 13394883.00 L 44458615.00 13368065.00 L 44485433.00 13356956.00 L 45114565.00 13356956.00 L 45141383.00 13368065.00 L 45152492.00 13394883.00 L 45152492.00 14024015.00 L 45141383.00 14050833.00 L 45114565.00 14061942.00  zM 44731101.00 14396556.00 L 44672047.00 14396556.00 L 44645530.00 14385572.00 L 44634546.00 14359055.00 L 44634546.00 14162205.00 L 44645530.00 14135688.00 L 44672047.00 14124704.00 L 44731101.00 14124704.00 L 44757618.00 14135688.00 L 44768602.00 14162205.00 L 44768602.00 14359055.00 L 44757618.00 14385572.00 L 44731101.00 14396556.00  zM 44534251.00 14396556.00 L 44475197.00 14396556.00 L 44448680.00 14385572.00 L 44437696.00 14359055.00 L 44437696.00 14162205.00 L 44448680.00 14135688.00 L 44475197.00 14124704.00 L 44534251.00 14124704.00 L 44560768.00 14135688.00 L 44571752.00 14162205.00 L 44571752.00 14359055.00 L 44560768.00 14385572.00 L 44534251.00 14396556.00  zM 44927952.00 14396556.00 L 44868898.00 14396556.00 L 44842381.00 14385572.00 L 44831397.00 14359055.00 L 44831397.00 14162205.00 L 44842381.00 14135688.00 L 44868898.00 14124704.00 L 44927952.00 14124704.00 L 44954469.00 14135688.00 L 44965453.00 14162205.00 L 44965453.00 14359055.00 L 44954469.00 14385572.00 L 44927952.00 14396556.00  zM 43680312.28 14632093.20 m -85492.80 0 a 85492.80 85492.80 0 1 1 170985.60 0a 85492.80 85492.80 0 1 1 -170985.60 0M 44194485.28 14300008.20 m -85492.80 0 a 85492.80 85492.80 0 1 1 170985.60 0a 85492.80 85492.80 0 1 1 -170985.60 0M 44685036.28 14862213.20 m -85492.80 0 a 85492.80 85492.80 0 1 1 170985.60 0a 85492.80 85492.80 0 1 1 -170985.60 0M 45124802.00 14396556.00 L 45065748.00 14396556.00 L 45039231.00 14385572.00 L 45028247.00 14359055.00 L 45028247.00 14162205.00 L 45039231.00 14135688.00 L 45065748.00 14124704.00 L 45124802.00 14124704.00 L 45151319.00 14135688.00 L 45162303.00 14162205.00 L 45162303.00 14359055.00 L 45151319.00 14385572.00 L 45124802.00 14396556.00  zM 44898422.28 14640166.20 m -85492.80 0 a 85492.80 85492.80 0 1 1 170985.60 0a 85492.80 85492.80 0 1 1 -170985.60 0M 44438820.00 15933039.00 L 44143858.00 15933039.00 L 44107579.00 15918012.00 L 44092552.00 15881733.00 L 44092552.00 15811181.00 L 44107579.00 15774902.00 L 44143858.00 15759875.00 L 44438820.00 15759875.00 L 44475099.00 15774902.00 L 44490126.00 15811181.00 L 44490126.00 15881733.00 L 44475099.00 15918012.00 L 44438820.00 15933039.00  zM 44438820.00 16129889.00 L 44143858.00 16129889.00 L 44107579.00 16114862.00 L 44092552.00 16078583.00 L 44092552.00 16008031.00 L 44107579.00 15971752.00 L 44143858.00 15956725.00 L 44438820.00 15956725.00 L 44475099.00 15971752.00 L 44490126.00 16008031.00 L 44490126.00 16078583.00 L 44475099.00 16114862.00 L 44438820.00 16129889.00  zM 44438820.00 16326739.00 L 44143858.00 16326739.00 L 44107579.00 16311712.00 L 44092552.00 16275433.00 L 44092552.00 16204881.00 L 44107579.00 16168602.00 L 44143858.00 16153575.00 L 44438820.00 16153575.00 L 44475099.00 16168602.00 L 44490126.00 16204881.00 L 44490126.00 16275433.00 L 44475099.00 16311712.00 L 44438820.00 16326739.00  zM 45025594.00 16988188.00 L 44915358.00 16988188.00 L 44915358.00 16744033.00 L 44828740.00 16744033.00 L 44828740.00 16988188.00 L 44718504.00 16988188.00 L 44718504.00 16744033.00 L 44566733.00 16744033.00 L 44530725.00 16729118.00 L 44515810.00 16693110.00 L 44515810.00 15787204.00 L 44530725.00 15751196.00 L 44566733.00 15736281.00 L 44718504.00 15736281.00 L 44718504.00 15492128.00 L 44828740.00 15492128.00 L 44828740.00 15736281.00 L 44915358.00 15736281.00 L 44915358.00 15492128.00 L 45025594.00 15492128.00 L 45025594.00 15736281.00 L 45177363.00 15736281.00 L 45213371.00 15751196.00 L 45228286.00 15787204.00 L 45228286.00 16693110.00 L 45213371.00 16729118.00 L 45177363.00 16744033.00 L 45025594.00 16744033.00 L 45025594.00 16988188.00  zM 46383160.00 10922047.00 L 46383160.00 10685827.00 A 220780.35 220780.35 0 0 1 46824714.00 10685827.00 L 46824714.00 10922047.00 A 220780.35 220780.35 0 0 1 46383160.00 10922047.00  zM 47427165.00 11652362.00 L 47072835.00 11652362.00 L 47072835.00 10861024.00 L 47427165.00 10861024.00 L 47427165.00 11652362.00  zM 47427165.00 12238976.00 L 47072835.00 12238976.00 L 47072835.00 11801968.00 L 47427165.00 11801968.00 L 47427165.00 12238976.00  zM 46143307.00 12536220.00 L 45828347.00 12536220.00 L 45828347.00 12063780.00 L 46143307.00 12063780.00 L 46143307.00 12536220.00  zM 46383160.00 12418110.00 L 46383160.00 12181890.00 A 220780.35 220780.35 0 0 1 46824714.00 12181890.00 L 46824714.00 12418110.00 A 220780.35 220780.35 0 0 1 46383160.00 12418110.00  zM 45651181.00 12536220.00 L 45351969.00 12536220.00 L 45351969.00 12063780.00 L 45651181.00 12063780.00 L 45651181.00 12536220.00  zM 45851942.00 13038755.00 L 45644856.00 13038755.00 L 45644856.00 12831669.00 L 45851942.00 12831669.00 L 45851942.00 13038755.00  zM 46166903.00 13038755.00 L 45959817.00 13038755.00 L 45959817.00 12831669.00 L 46166903.00 12831669.00 L 46166903.00 13038755.00  zM 46742914.00 13065748.00 L 46457086.00 13065748.00 L 46457086.00 12760236.00 L 46742914.00 12760236.00 L 46742914.00 13065748.00  zM 45449606.00 13481201.00 L 45252756.00 13481201.00 L 45226239.00 13470217.00 L 45215255.00 13443700.00 L 45215255.00 13384646.00 L 45226239.00 13358129.00 L 45252756.00 13347145.00 L 45449606.00 13347145.00 L 45476123.00 13358129.00 L 45487107.00 13384646.00 L 45487107.00 13443700.00 L 45476123.00 13470217.00 L 45449606.00 13481201.00  zM 45449606.00 13678051.00 L 45252756.00 13678051.00 L 45226239.00 13667067.00 L 45215255.00 13640550.00 L 45215255.00 13581496.00 L 45226239.00 13554979.00 L 45252756.00 13543995.00 L 45449606.00 13543995.00 L 45476123.00 13554979.00 L 45487107.00 13581496.00 L 45487107.00 13640550.00 L 45476123.00 13667067.00 L 45449606.00 13678051.00  zM 45751574.00 13818110.00 L 45574410.00 13818110.00 L 45574410.00 13581890.00 L 45751574.00 13581890.00 L 45751574.00 13818110.00  zM 45449606.00 13874902.00 L 45252756.00 13874902.00 L 45226239.00 13863918.00 L 45215255.00 13837401.00 L 45215255.00 13778347.00 L 45226239.00 13751830.00 L 45252756.00 13740846.00 L 45449606.00 13740846.00 L 45476123.00 13751830.00 L 45487107.00 13778347.00 L 45487107.00 13837401.00 L 45476123.00 13863918.00 L 45449606.00 13874902.00  zM 45449606.00 14071752.00 L 45252756.00 14071752.00 L 45226239.00 14060768.00 L 45215255.00 14034251.00 L 45215255.00 13975197.00 L 45226239.00 13948680.00 L 45252756.00 13937696.00 L 45449606.00 13937696.00 L 45476123.00 13948680.00 L 45487107.00 13975197.00 L 45487107.00 14034251.00 L 45476123.00 14060768.00 L 45449606.00 14071752.00  zM 45865748.00 13403543.00 L 45638976.00 13403543.00 L 45638976.00 13196457.00 L 45865748.00 13196457.00 L 45865748.00 13403543.00  zM 46125590.00 13818110.00 L 45948426.00 13818110.00 L 45948426.00 13581890.00 L 46125590.00 13581890.00 L 46125590.00 13818110.00  zM 46161024.00 13403543.00 L 45934252.00 13403543.00 L 45934252.00 13196457.00 L 46161024.00 13196457.00 L 46161024.00 13403543.00  zM 46742914.00 13439764.00 L 46457086.00 13439764.00 L 46457086.00 13134252.00 L 46742914.00 13134252.00 L 46742914.00 13439764.00  zM 45600237.00 15933039.00 L 45305275.00 15933039.00 L 45268996.00 15918012.00 L 45253969.00 15881733.00 L 45253969.00 15811181.00 L 45268996.00 15774902.00 L 45305275.00 15759875.00 L 45600237.00 15759875.00 L 45636516.00 15774902.00 L 45651543.00 15811181.00 L 45651543.00 15881733.00 L 45636516.00 15918012.00 L 45600237.00 15933039.00  zM 45600237.00 16129889.00 L 45305275.00 16129889.00 L 45268996.00 16114862.00 L 45253969.00 16078583.00 L 45253969.00 16008031.00 L 45268996.00 15971752.00 L 45305275.00 15956725.00 L 45600237.00 15956725.00 L 45636516.00 15971752.00 L 45651543.00 16008031.00 L 45651543.00 16078583.00 L 45636516.00 16114862.00 L 45600237.00 16129889.00  zM 45600237.00 16326739.00 L 45305275.00 16326739.00 L 45268996.00 16311712.00 L 45253969.00 16275433.00 L 45253969.00 16204881.00 L 45268996.00 16168602.00 L 45305275.00 16153575.00 L 45600237.00 16153575.00 L 45636516.00 16168602.00 L 45651543.00 16204881.00 L 45651543.00 16275433.00 L 45636516.00 16311712.00 L 45600237.00 16326739.00  zM 48512168.00 16090208.00 L 47602720.00 16090208.00 L 47602720.00 15893358.00 L 47764137.00 15893358.00 L 47764137.00 15834303.00 L 47602720.00 15834303.00 L 47602720.00 15637453.00 L 47764137.00 15637453.00 L 47764137.00 15578397.00 L 47602720.00 15578397.00 L 47602720.00 15381547.00 L 47764137.00 15381547.00 L 47764137.00 15322492.00 L 47602720.00 15322492.00 L 47602720.00 15125642.00 L 48512168.00 15125642.00 L 48512168.00 16090208.00  zM 48980672.00 15322492.00 L 48732642.00 15322492.00 L 48732642.00 15125642.00 L 48980672.00 15125642.00 L 48980672.00 15322492.00  zM 48980672.00 15578397.00 L 48732642.00 15578397.00 L 48732642.00 15381547.00 L 48980672.00 15381547.00 L 48980672.00 15578397.00  zM 48980672.00 15834303.00 L 48732642.00 15834303.00 L 48732642.00 15637453.00 L 48980672.00 15637453.00 L 48980672.00 15834303.00  zM 48980672.00 16090208.00 L 48732642.00 16090208.00 L 48732642.00 15893358.00 L 48980672.00 15893358.00 L 48980672.00 16090208.00  zM 49479885.00 16115711.00 L 49233429.00 16115711.00 L 49233429.00 15849569.00 L 49479885.00 15849569.00 L 49479885.00 16115711.00  zM 49671260.00 14965748.00 L 49513780.00 14965748.00 L 49513780.00 14768898.00 L 49671260.00 14768898.00 L 49671260.00 14965748.00  zM 49986220.00 14965748.00 L 49828740.00 14965748.00 L 49828740.00 14768898.00 L 49986220.00 14768898.00 L 49986220.00 14965748.00  zM 49479885.00 15781065.00 L 49233429.00 15781065.00 L 49233429.00 15514923.00 L 49479885.00 15514923.00 L 49479885.00 15781065.00  zM 50563386.00 14970866.00 L 50336614.00 14970866.00 L 50336614.00 14763780.00 L 50563386.00 14763780.00 L 50563386.00 14970866.00  zM 50858662.00 14970866.00 L 50631890.00 14970866.00 L 50631890.00 14763780.00 L 50858662.00 14763780.00 L 50858662.00 14970866.00  zM 49851486.00 16047367.00 L 49851486.00 15723401.00 A 51663.88 51663.88 0 1 1 49954814.00 15723401.00 L 49954814.00 16047367.00 A 51663.88 51663.88 0 1 1 49851486.00 16047367.00  zM 50245186.00 16047367.00 L 50245186.00 15723401.00 A 51663.88 51663.88 0 0 1 50348514.00 15723401.00 L 50348514.00 16047367.00 A 51663.88 51663.88 0 0 1 50245186.00 16047367.00  zM 50048336.00 16047367.00 L 50048336.00 15723401.00 A 51663.88 51663.88 0 0 1 50151664.00 15723401.00 L 50151664.00 16047367.00 A 51663.88 51663.88 0 0 1 50048336.00 16047367.00  zM 50344581.00 16609714.00 L 50249119.00 16609714.00 L 50249119.00 16190286.00 L 50344581.00 16190286.00 L 50344581.00 16609714.00  zM 43541713.00 16598425.00 L 43354705.00 16598425.00 L 43354705.00 16401575.00 L 43541713.00 16401575.00 L 43541713.00 16598425.00  zM 42673228.00 17615748.00 L 42426772.00 17615748.00 L 42426772.00 17349606.00 L 42673228.00 17349606.00 L 42673228.00 17615748.00  zM 43945295.00 16598425.00 L 43758287.00 16598425.00 L 43758287.00 16401575.00 L 43945295.00 16401575.00 L 43945295.00 16598425.00  zM 44438820.00 16720440.00 L 44143858.00 16720440.00 L 44107579.00 16705413.00 L 44092552.00 16669134.00 L 44092552.00 16598582.00 L 44107579.00 16562303.00 L 44143858.00 16547276.00 L 44438820.00 16547276.00 L 44475099.00 16562303.00 L 44490126.00 16598582.00 L 44490126.00 16669134.00 L 44475099.00 16705413.00 L 44438820.00 16720440.00  zM 44438820.00 16523590.00 L 44143858.00 16523590.00 L 44107579.00 16508563.00 L 44092552.00 16472284.00 L 44092552.00 16401732.00 L 44107579.00 16365453.00 L 44143858.00 16350426.00 L 44438820.00 16350426.00 L 44475099.00 16365453.00 L 44490126.00 16401732.00 L 44490126.00 16472284.00 L 44475099.00 16508563.00 L 44438820.00 16523590.00  zM 42673228.00 17950394.00 L 42426772.00 17950394.00 L 42426772.00 17684252.00 L 42673228.00 17684252.00 L 42673228.00 17950394.00  zM 44029571.00 17974838.00 L 43770429.00 17974838.00 L 43770429.00 17697650.00 L 44029571.00 17697650.00 L 44029571.00 17974838.00  zM 44029571.00 17638594.00 L 43770429.00 17638594.00 L 43770429.00 17361406.00 L 44029571.00 17361406.00 L 44029571.00 17638594.00  zM 44271654.00 20236221.00 L 43641732.00 20236221.00 L 43641732.00 18543307.00 L 44271654.00 18543307.00 L 44271628.00 18926026.00 L 44228835.00 18948531.00 A 511808.50 511808.50 0 0 0 44271654.00 19853561.00 L 44271654.00 20236221.00  zM 45334646.00 20236221.00 L 44704724.00 20236221.00 L 44704749.00 19853501.00 L 44747542.00 19830996.00 A 511808.50 511808.50 0 0 0 44704724.00 18925967.00 L 44704724.00 18543307.00 L 45334646.00 18543307.00 L 45334646.00 20236221.00  zM 45600237.00 16720440.00 L 45305275.00 16720440.00 L 45268996.00 16705413.00 L 45253969.00 16669134.00 L 45253969.00 16598582.00 L 45268996.00 16562303.00 L 45305275.00 16547276.00 L 45600237.00 16547276.00 L 45636516.00 16562303.00 L 45651543.00 16598582.00 L 45651543.00 16669134.00 L 45636516.00 16705413.00 L 45600237.00 16720440.00  zM 45600237.00 16523590.00 L 45305275.00 16523590.00 L 45268996.00 16508563.00 L 45253969.00 16472284.00 L 45253969.00 16401732.00 L 45268996.00 16365453.00 L 45305275.00 16350426.00 L 45600237.00 16350426.00 L 45636516.00 16365453.00 L 45651543.00 16401732.00 L 45651543.00 16472284.00 L 45636516.00 16508563.00 L 45600237.00 16523590.00  zM 46082677.00 17125983.00 L 45846457.00 17125983.00 L 45846457.00 16948819.00 L 46082677.00 16948819.00 L 46082677.00 17125983.00  zM 46082677.00 17499999.00 L 45846457.00 17499999.00 L 45846457.00 17322835.00 L 46082677.00 17322835.00 L 46082677.00 17499999.00  zM 48530279.00 17647600.00 L 47620831.00 17647600.00 L 47620831.00 17450750.00 L 47782248.00 17450750.00 L 47782248.00 17391695.00 L 47620831.00 17391695.00 L 47620831.00 17194845.00 L 47782248.00 17194845.00 L 47782248.00 17135789.00 L 47620831.00 17135789.00 L 47620831.00 16938939.00 L 47782248.00 16938939.00 L 47782248.00 16879884.00 L 47620831.00 16879884.00 L 47620831.00 16683034.00 L 48530279.00 16683034.00 L 48530279.00 17647600.00  zM 47976378.00 19885827.00 L 47771654.00 19885827.00 L 47771654.00 19681103.00 L 47976378.00 19681103.00 L 47976378.00 19885827.00  zM 48291338.00 19885827.00 L 48086614.00 19885827.00 L 48086614.00 19681103.00 L 48291338.00 19681103.00 L 48291338.00 19885827.00  zM 48321353.00 20388282.00 L 48069651.00 20388282.00 L 48069651.00 20162900.00 L 48321353.00 20162900.00 L 48321353.00 20388282.00  zM 48964524.00 20118110.00 L 48661417.00 20118110.00 L 48661417.00 20039370.00 L 48964524.00 20039370.00 L 48978994.00 20045363.00 L 48990069.00 20056438.00 L 48996063.00 20070908.00 L 48996063.00 20086571.00 L 48990069.00 20101041.00 L 48978994.00 20112116.00 L 48964524.00 20118110.00  zM 48998783.00 16879884.00 L 48750753.00 16879884.00 L 48750753.00 16683034.00 L 48998783.00 16683034.00 L 48998783.00 16879884.00  zM 48998783.00 17135789.00 L 48750753.00 17135789.00 L 48750753.00 16938939.00 L 48998783.00 16938939.00 L 48998783.00 17135789.00  zM 49299997.28 16800008.20 m -85492.80 0 a 85492.80 85492.80 0 1 1 170985.60 0a 85492.80 85492.80 0 1 1 -170985.60 0M 48998783.00 17391695.00 L 48750753.00 17391695.00 L 48750753.00 17194845.00 L 48998783.00 17194845.00 L 48998783.00 17391695.00  zM 49299997.28 17050008.20 m -85492.80 0 a 85492.80 85492.80 0 1 1 170985.60 0a 85492.80 85492.80 0 1 1 -170985.60 0M 49851486.00 16561983.00 L 49851486.00 16238017.00 A 51663.88 51663.88 0 1 1 49954814.00 16238017.00 L 49954814.00 16561983.00 A 51663.88 51663.88 0 1 1 49851486.00 16561983.00  zM 49299997.28 17300008.20 m -85492.80 0 a 85492.80 85492.80 0 1 1 170985.60 0a 85492.80 85492.80 0 1 1 -170985.60 0M 50048336.00 16561983.00 L 50048336.00 16238017.00 A 51663.88 51663.88 0 0 1 50151664.00 16238017.00 L 50151664.00 16561983.00 A 51663.88 51663.88 0 0 1 50048336.00 16561983.00  zM 50623228.00 17333071.00 L 50376772.00 17333071.00 L 50376772.00 17066929.00 L 50623228.00 17066929.00 L 50623228.00 17333071.00  zM 48998783.00 17647600.00 L 48750753.00 17647600.00 L 48750753.00 17450750.00 L 48998783.00 17450750.00 L 48998783.00 17647600.00  zM 49898425.00 18073228.00 L 49632283.00 18073228.00 L 49632283.00 17826772.00 L 49898425.00 17826772.00 L 49898425.00 18073228.00  zM 50623228.00 17667717.00 L 50376772.00 17667717.00 L 50376772.00 17401575.00 L 50623228.00 17401575.00 L 50623228.00 17667717.00  zM 50233071.00 18073228.00 L 49966929.00 18073228.00 L 49966929.00 17826772.00 L 50233071.00 17826772.00 L 50233071.00 18073228.00  zM 49350394.00 19474408.00 L 48700788.00 19474408.00 L 48700788.00 18714566.00 L 49350394.00 18714566.00 L 49350394.00 19474408.00  zM 48964524.00 20275591.00 L 48661417.00 20275591.00 L 48661417.00 20196850.00 L 48964524.00 20196851.00 L 48978994.00 20202844.00 L 48990069.00 20213919.00 L 48996063.00 20228389.00 L 48996063.00 20244052.00 L 48990069.00 20258522.00 L 48978994.00 20269597.00 L 48964524.00 20275591.00  zM 50551181.00 20118110.00 L 50248073.00 20118110.00 L 50233603.00 20112116.00 L 50222528.00 20101041.00 L 50216535.00 20086571.00 L 50216535.00 20070908.00 L 50222528.00 20056438.00 L 50233603.00 20045363.00 L 50248073.00 20039370.00 L 50551181.00 20039370.00 L 50551181.00 20118110.00  zM 50708662.00 19474408.00 L 50059056.00 19474408.00 L 50059056.00 18714566.00 L 50708662.00 18714566.00 L 50708662.00 19474408.00  zM 50551181.00 20275591.00 L 50248073.00 20275591.00 L 50233603.00 20269597.00 L 50222528.00 20258522.00 L 50216535.00 20244052.00 L 50216535.00 20228389.00 L 50222528.00 20213919.00 L 50233603.00 20202844.00 L 50248073.00 20196851.00 L 50551181.00 20196850.00 L 50551181.00 20275591.00  zM 47368874.00 21048518.00 L 47105814.00 21048518.00 L 47105814.00 20783764.00 L 47368874.00 20783764.00 L 47368874.00 21048518.00  zM 47764266.00 21048518.00 L 47501206.00 21048518.00 L 47501206.00 20783764.00 L 47764266.00 20783764.00 L 47764266.00 21048518.00  zM 47993341.00 20388282.00 L 47741639.00 20388282.00 L 47741639.00 20162900.00 L 47993341.00 20162900.00 L 47993341.00 20388282.00  zM 47867417.00 22157694.00 L 47602663.00 22157694.00 L 47602663.00 21894634.00 L 47867417.00 21894634.00 L 47867417.00 22157694.00  zM 48638583.00 22181889.00 L 48431497.00 22181889.00 L 48431497.00 21955117.00 L 48638583.00 21955117.00 L 48638583.00 22181889.00  zM 44247244.00 25838701.00 L 43941732.00 25838701.00 L 43941732.00 24548937.00 L 44247244.00 24548937.00 L 44247244.00 25838701.00  zM 44640945.00 26235433.00 L 44335433.00 26235433.00 L 44335433.00 24551969.00 L 44640945.00 24551969.00 L 44640945.00 26235433.00  zM 47867417.00 22553086.00 L 47602663.00 22553086.00 L 47602663.00 22290026.00 L 47867417.00 22290026.00 L 47867417.00 22553086.00  zM 48638583.00 22477165.00 L 48431497.00 22477165.00 L 48431497.00 22250393.00 L 48638583.00 22250393.00 L 48638583.00 22477165.00  zM 43853544.00 26235433.00 L 43548032.00 26235433.00 L 43548032.00 24551969.00 L 43853544.00 24551969.00 L 43853544.00 26235433.00  zM 45034646.00 26235433.00 L 44729134.00 26235433.00 L 44729134.00 24551969.00 L 45034646.00 24551969.00 L 45034646.00 26235433.00  zM 45428347.00 26235433.00 L 45122835.00 26235433.00 L 45122835.00 24551969.00 L 45428347.00 24551969.00 L 45428347.00 26235433.00  zM 45822047.00 26235433.00 L 45516535.00 26235433.00 L 45516535.00 24551969.00 L 45822047.00 24551969.00 L 45822047.00 26235433.00  zM 46215748.00 26235433.00 L 45910236.00 26235433.00 L 45910236.00 24551969.00 L 46215748.00 24551969.00 L 46215748.00 26235433.00  zM 47790551.00 26235433.00 L 47485039.00 26235433.00 L 47485039.00 24551969.00 L 47790551.00 24551969.00 L 47790551.00 26235433.00  zM 48184252.00 26235433.00 L 47878740.00 26235433.00 L 47878740.00 24551969.00 L 48184252.00 24551969.00 L 48184252.00 26235433.00  zM 47396851.00 26235433.00 L 47091339.00 26235433.00 L 47091339.00 24551969.00 L 47396851.00 24551969.00 L 47396851.00 26235433.00  zM 48577953.00 26235433.00 L 48272441.00 26235433.00 L 48272441.00 24551969.00 L 48577953.00 24551969.00 L 48577953.00 26235433.00  zM 48964524.00 20590551.00 L 48661417.00 20590551.00 L 48661417.00 20511811.00 L 48964524.00 20511811.00 L 48978994.00 20517804.00 L 48990069.00 20528879.00 L 48996063.00 20543349.00 L 48996063.00 20559012.00 L 48990069.00 20573482.00 L 48978994.00 20584557.00 L 48964524.00 20590551.00  zM 48661417.00 20748032.00 L 48661417.00 20669291.00 L 48964524.00 20669291.00 L 48978994.00 20675284.00 L 48990069.00 20686359.00 L 48996063.00 20700829.00 L 48996063.00 20716492.00 L 48990069.00 20730962.00 L 48978994.00 20742037.00 L 48964524.00 20748031.00 L 48956693.00 20748031.00 L 48661417.00 20748032.00  zM 48964524.00 20905512.00 L 48661417.00 20905512.00 L 48661417.00 20826772.00 L 48964524.00 20826772.00 L 48978994.00 20832765.00 L 48990069.00 20843840.00 L 48996063.00 20858310.00 L 48996063.00 20873973.00 L 48990069.00 20888443.00 L 48978994.00 20899518.00 L 48964524.00 20905512.00  zM 48964524.00 20433071.00 L 48661417.00 20433071.00 L 48661417.00 20354331.00 L 48964524.00 20354331.00 L 48978994.00 20360324.00 L 48990069.00 20371399.00 L 48996063.00 20385869.00 L 48996063.00 20401532.00 L 48990069.00 20416002.00 L 48978994.00 20427077.00 L 48964524.00 20433071.00  zM 50088582.00 21122047.00 L 49990157.00 21122047.00 L 49990157.00 20856299.00 L 49222441.00 20856299.00 L 49222441.00 21122047.00 L 49124016.00 21122047.00 L 49124016.00 19822835.00 L 49222441.00 19822835.00 L 49222441.00 20088583.00 L 49990157.00 20088583.00 L 49990157.00 19822835.00 L 50088582.00 19822835.00 L 50088582.00 21122047.00  zM 50551181.00 20433071.00 L 50248073.00 20433071.00 L 50233603.00 20427077.00 L 50222528.00 20416002.00 L 50216535.00 20401532.00 L 50216535.00 20385869.00 L 50222528.00 20371399.00 L 50233603.00 20360324.00 L 50248073.00 20354331.00 L 50551181.00 20354331.00 L 50551181.00 20433071.00  zM 50551181.00 20590551.00 L 50248073.00 20590551.00 L 50233603.00 20584557.00 L 50222528.00 20573482.00 L 50216535.00 20559012.00 L 50216535.00 20543349.00 L 50222528.00 20528879.00 L 50233603.00 20517804.00 L 50248073.00 20511811.00 L 50551181.00 20511811.00 L 50551181.00 20590551.00  zM 50551181.00 20748032.00 L 50248073.00 20748031.00 L 50233603.00 20742037.00 L 50222528.00 20730962.00 L 50216535.00 20716492.00 L 50216535.00 20700829.00 L 50222528.00 20686359.00 L 50233603.00 20675284.00 L 50248073.00 20669291.00 L 50551181.00 20669291.00 L 50551181.00 20748032.00  zM 50551181.00 20905512.00 L 50248073.00 20905512.00 L 50233603.00 20899518.00 L 50222528.00 20888443.00 L 50216535.00 20873973.00 L 50216535.00 20858310.00 L 50222528.00 20843840.00 L 50233603.00 20832765.00 L 50248073.00 20826772.00 L 50551181.00 20826772.00 L 50551181.00 20905512.00  zM 50388583.00 22234251.00 L 50181497.00 22234251.00 L 50181497.00 22007479.00 L 50388583.00 22007479.00 L 50388583.00 22234251.00  zM 50388583.00 22529527.00 L 50181497.00 22529527.00 L 50181497.00 22302755.00 L 50388583.00 22302755.00 L 50388583.00 22529527.00  zM 50940158.00 26235433.00 L 50634646.00 26235433.00 L 50634646.00 24551969.00 L 50940158.00 24551969.00 L 50940158.00 26235433.00  zM 50546457.00 26235433.00 L 50240945.00 26235433.00 L 50240945.00 24551969.00 L 50546457.00 24551969.00 L 50546457.00 26235433.00  zM 49759055.00 26235433.00 L 49453543.00 26235433.00 L 49453543.00 24551969.00 L 49759055.00 24551969.00 L 49759055.00 26235433.00  zM 48971654.00 26235433.00 L 48666142.00 26235433.00 L 48666142.00 24551969.00 L 48971654.00 24551969.00 L 48971654.00 26235433.00  zM 49365355.00 26235433.00 L 49059843.00 26235433.00 L 49059843.00 24551969.00 L 49365355.00 24551969.00 L 49365355.00 26235433.00  zM 50152756.00 26235433.00 L 49847244.00 26235433.00 L 49847244.00 24551969.00 L 50152756.00 24551969.00 L 50152756.00 26235433.00  zM 51333858.00 26235433.00 L 51028346.00 26235433.00 L 51028346.00 24551969.00 L 51333858.00 24551969.00 L 51333858.00 26235433.00  z"/>
</g>
</svg>
