<svg width="31.90378176mm" height="47.33746438mm" viewBox="0 0 12560544 18636797"  version="1.1" xmlns="http://www.w3.org/2000/svg" xmlns:xlink="http://www.w3.org/1999/xlink">
<desc>
Origin 47244094 17224409 Bound 40997224 8134916 12560544 18636797
</desc>
<g fill-rule="evenodd" fill="rgb(255, 0, 255)" stroke="black" stroke-width="1" transform="translate(0, 18636797) scale(1, -1) translate(-40997224, -8134916)">
<path id="N" d="M 51417323.00 26617386.00 L 51417323.00 24566929.00 L 52362205.00 24566929.00 L 52362205.00 23243760.00 L 53557768.00 22036055.00 L 53497232.00 10052339.00 L 51560336.00 8134916.00 L 42836531.00 8134916.00 L 40997224.00 9991051.00 L 41050972.00 21788370.00 L 42519685.00 23243760.00 L 42519685.00 24566929.00 L 43464567.00 24566929.00 L 43464567.00 26567382.00 L 43668898.00 26771713.00 L 46112992.00 26771713.00 L 46259843.00 26624862.00 L 46259843.00 23858327.00 L 46261739.00 23819737.00 A 393696.77 393696.77 0 0 1 47047243.00 23858327.00 L 47047244.00 26600059.00 L 47218898.00 26771713.00 L 51262992.00 26771713.00 L 51417323.00 26617386.00  zM 42549997.28 11303158.20 m -85492.80 0 a 85492.80 85492.80 0 1 1 170985.60 0a 85492.80 85492.80 0 1 1 -170985.60 0M 42981586.00 10922047.00 L 42981586.00 10685827.00 A 220780.35 220780.35 0 0 1 43423140.00 10685827.00 L 43423140.00 10922047.00 A 220780.35 220780.35 0 0 1 42981586.00 10922047.00  zM 42981586.00 12418110.00 L 42981586.00 12181890.00 A 220780.35 220780.35 0 0 1 43423140.00 12181890.00 L 43423140.00 12418110.00 A 220780.35 220780.35 0 0 1 42981586.00 12418110.00  zM 43110233.28 13297252.20 m -85492.80 0 a 85492.80 85492.80 0 1 1 170985.60 0a 85492.80 85492.80 0 1 1 -170985.60 0M 44603147.59 13512604.79 m -115601.21 0 a 115601.21 115601.21 0 1 1 231202.43 0a 115601.21 115601.21 0 1 1 -231202.43 0M 44799997.59 13709454.79 m -115601.21 0 a 115601.21 115601.21 0 1 1 231202.43 0a 115601.21 115601.21 0 1 1 -231202.43 0M 44603147.59 13906304.79 m -115601.21 0 a 115601.21 115601.21 0 1 1 231202.43 0a 115601.21 115601.21 0 1 1 -231202.43 0M 46383160.00 10922047.00 L 46383160.00 10685827.00 A 220780.35 220780.35 0 0 1 46824714.00 10685827.00 L 46824714.00 10922047.00 A 220780.35 220780.35 0 0 1 46383160.00 10922047.00  zM 47249997.28 11256701.20 m -85492.80 0 a 85492.80 85492.80 0 1 1 170985.60 0a 85492.80 85492.80 0 1 1 -170985.60 0M 46383160.00 12418110.00 L 46383160.00 12181890.00 A 220780.35 220780.35 0 0 1 46824714.00 12181890.00 L 46824714.00 12418110.00 A 220780.35 220780.35 0 0 1 46383160.00 12418110.00  zM 44996847.59 13512604.79 m -115601.21 0 a 115601.21 115601.21 0 1 1 231202.43 0a 115601.21 115601.21 0 1 1 -231202.43 0M 44996847.59 13906304.79 m -115601.21 0 a 115601.21 115601.21 0 1 1 231202.43 0a 115601.21 115601.21 0 1 1 -231202.43 0M 46599997.28 13287016.20 m -85492.80 0 a 85492.80 85492.80 0 1 1 170985.60 0a 85492.80 85492.80 0 1 1 -170985.60 0M 43680312.28 14632093.20 m -85492.80 0 a 85492.80 85492.80 0 1 1 170985.60 0a 85492.80 85492.80 0 1 1 -170985.60 0M 44194485.28 14300008.20 m -85492.80 0 a 85492.80 85492.80 0 1 1 170985.60 0a 85492.80 85492.80 0 1 1 -170985.60 0M 44685036.28 14862213.20 m -85492.80 0 a 85492.80 85492.80 0 1 1 170985.60 0a 85492.80 85492.80 0 1 1 -170985.60 0M 44675195.59 15944886.79 m -115601.21 0 a 115601.21 115601.21 0 1 1 231202.43 0a 115601.21 115601.21 0 1 1 -231202.43 0M 44872045.59 16240162.79 m -115601.21 0 a 115601.21 115601.21 0 1 1 231202.43 0a 115601.21 115601.21 0 1 1 -231202.43 0M 44675195.59 16535438.79 m -115601.21 0 a 115601.21 115601.21 0 1 1 231202.43 0a 115601.21 115601.21 0 1 1 -231202.43 0M 44898422.28 14640166.20 m -85492.80 0 a 85492.80 85492.80 0 1 1 170985.60 0a 85492.80 85492.80 0 1 1 -170985.60 0M 45068895.59 15944886.79 m -115601.21 0 a 115601.21 115601.21 0 1 1 231202.43 0a 115601.21 115601.21 0 1 1 -231202.43 0M 45068895.59 16535438.79 m -115601.21 0 a 115601.21 115601.21 0 1 1 231202.43 0a 115601.21 115601.21 0 1 1 -231202.43 0M 49299997.28 16800008.20 m -85492.80 0 a 85492.80 85492.80 0 1 1 170985.60 0a 85492.80 85492.80 0 1 1 -170985.60 0M 49299997.28 17050008.20 m -85492.80 0 a 85492.80 85492.80 0 1 1 170985.60 0a 85492.80 85492.80 0 1 1 -170985.60 0M 49299997.28 17300008.20 m -85492.80 0 a 85492.80 85492.80 0 1 1 170985.60 0a 85492.80 85492.80 0 1 1 -170985.60 0M 43853544.00 26235433.00 L 43548032.00 26235433.00 L 43548032.00 24551969.00 L 43853544.00 24551969.00 L 43853544.00 26235433.00  zM 44247244.00 26235433.00 L 43941732.00 26235433.00 L 43941732.00 24551969.00 L 44247244.00 24551969.00 L 44247244.00 26235433.00  zM 44640945.00 26235433.00 L 44335433.00 26235433.00 L 44335433.00 24551969.00 L 44640945.00 24551969.00 L 44640945.00 26235433.00  zM 45428347.00 26235433.00 L 45122835.00 26235433.00 L 45122835.00 24551969.00 L 45428347.00 24551969.00 L 45428347.00 26235433.00  zM 45034646.00 26235433.00 L 44729134.00 26235433.00 L 44729134.00 24551969.00 L 45034646.00 24551969.00 L 45034646.00 26235433.00  zM 45822047.00 26235433.00 L 45516535.00 26235433.00 L 45516535.00 24551969.00 L 45822047.00 24551969.00 L 45822047.00 26235433.00  zM 46215748.00 26235433.00 L 45910236.00 26235433.00 L 45910236.00 24551969.00 L 46215748.00 24551969.00 L 46215748.00 26235433.00  zM 47396851.00 26235433.00 L 47091339.00 26235433.00 L 47091339.00 24551969.00 L 47396851.00 24551969.00 L 47396851.00 26235433.00  zM 47790551.00 26235433.00 L 47485039.00 26235433.00 L 47485039.00 24551969.00 L 47790551.00 24551969.00 L 47790551.00 26235433.00  zM 48577953.00 26235433.00 L 48272441.00 26235433.00 L 48272441.00 24551969.00 L 48577953.00 24551969.00 L 48577953.00 26235433.00  zM 48184252.00 26235433.00 L 47878740.00 26235433.00 L 47878740.00 24551969.00 L 48184252.00 24551969.00 L 48184252.00 26235433.00  zM 48971654.00 26235433.00 L 48666142.00 26235433.00 L 48666142.00 24551969.00 L 48971654.00 24551969.00 L 48971654.00 26235433.00  zM 49251970.46 20275583.27 m -120431.73 0 a 120431.73 120431.73 0 1 1 240863.46 0a 120431.73 120431.73 0 1 1 -240863.46 0M 49606301.46 20275583.27 m -120431.73 0 a 120431.73 120431.73 0 1 1 240863.46 0a 120431.73 120431.73 0 1 1 -240863.46 0M 49251970.46 20669283.27 m -120431.73 0 a 120431.73 120431.73 0 1 1 240863.46 0a 120431.73 120431.73 0 1 1 -240863.46 0M 49960632.46 20275583.27 m -120431.73 0 a 120431.73 120431.73 0 1 1 240863.46 0a 120431.73 120431.73 0 1 1 -240863.46 0M 49960632.46 20669283.27 m -120431.73 0 a 120431.73 120431.73 0 1 1 240863.46 0a 120431.73 120431.73 0 1 1 -240863.46 0M 49606301.46 20669283.27 m -120431.73 0 a 120431.73 120431.73 0 1 1 240863.46 0a 120431.73 120431.73 0 1 1 -240863.46 0M 49759055.00 26235433.00 L 49453543.00 26235433.00 L 49453543.00 24551969.00 L 49759055.00 24551969.00 L 49759055.00 26235433.00  zM 49365355.00 26235433.00 L 49059843.00 26235433.00 L 49059843.00 24551969.00 L 49365355.00 24551969.00 L 49365355.00 26235433.00  zM 50152756.00 26235433.00 L 49847244.00 26235433.00 L 49847244.00 24551969.00 L 50152756.00 24551969.00 L 50152756.00 26235433.00  zM 51333858.00 25841732.00 L 51028346.00 25841732.00 L 51028346.00 24551968.00 L 51333858.00 24551968.00 L 51333858.00 25841732.00  zM 50546457.00 26235433.00 L 50240945.00 26235433.00 L 50240945.00 24551969.00 L 50546457.00 24551969.00 L 50546457.00 26235433.00  zM 50940158.00 26235433.00 L 50634646.00 26235433.00 L 50634646.00 24551969.00 L 50940158.00 24551969.00 L 50940158.00 26235433.00  z"/>
</g>
</svg>
