**ABCDEFGHIJKLMNOPQRSTUVWXYZabcdefghijklmnopqrstuvwxyz**************************
**PARASOLID !"#$%&'()*+,-./:;<=>?@[\]^_`{|}~0123456789**************************
**PART1;
MC=AMD64;
MC_MODEL=Intel64 Family 6 Model 154 Stepping 3, GenuineIntel;
MC_ID=unknown;
OS=Windows_NT;
OS_RELEASE=unknown;
FRU=CAD Exchanger 3.23.0 (cadexchanger.com);
APPL=unknown;
SITE=unknown;
USER=unknown;
FORMAT=text;
GUISE=transmit;
KEY=FP-GRM15-MFG_CMP-2100-03641-2;
FILE=FP-GRM15-MFG_CMP-2100-03641-2.x_t;
DATE=Tue Nov 26 20:43:51 2024;
**PART2;
SCH=SCH_1200000_12103;
USFLD_SIZE=0;
**PART3;
**END_OF_HEADER*****************************************************************
T51 : TRANSMIT FILE created by modeller version 120000017 SCH_1200000_121030 12
 1 226 0 2 0 0 0 0 1000.0 1.0e-08 0 0 0 1 0 1 1 11 13 19 17 8 18 16 70 2 0 1 0 0
 4 1 20 0 3 3 1 T74 20 3 1 0 4 0 0 0 0 0 0 0 0 0 0 0 0 0 0 0 0 0 0 0 81 1 4 7 5
 12 0 0 23 0 7 80 1 5 0 6 8001 0 0 0 0 3 5 0 0 0 FFFFTFTFFFFFFF2 79 15 6 SDL/TYS
A_COLOUR83 3 7 0.0 0.0 0.0 19 8 1 0 1 10 0 9 V13 9 2 0 1 0 0 0 0 8 12 19 10 3 0
 1 0 8 11 S13 11 4 0 1 0 12 0 0 10 0 14 12 5 4 1.0e-08 47 0 14 11 13 -0 0 47 0 9
 50 13 6 0 12 48 0 0 +-2.999999999999999e-04 1.500000000000001e-04 3.20320000000
0001e-04 -2.449293598294707e-16 -1.0 0.0 0.0 0.0 -1.0 15 14 8 0 15 12 0 17 15 0
 14 25 41 16 20 18 0 30 -18 16 9 0 15 0 21 17 ?1 29 17 10 0 16 22 0 -2.0e-04 1.5
e-04 3.2032e-04 16 18 11 23 ?20 0 28 19 0 0 1 30 19 12 0 18 29 0 0 +-2.000000000
1e-04 1.5000000001e-04 3.2032000001e-04 0.0 0.0 -1.0 17 20 0 319 55 320 21 15 18
 0 41 +18 21 13 0 20 16 26 22 ?1 29 22 14 0 21 27 17 -2.0e-04 1.5e-04 2.032e-05
 81 1 23 15 5 18 0 0 31 4 24 83 3 24 1.0 1.0 1.0 17 25 0 14 33 15 26 30 28 0 192
 -18 26 16 0 25 21 34 27 ?1 29 27 17 0 26 35 22 2.0e-04 1.499999999999999e-04 3.
2032e-04 16 28 18 31 ?30 18 36 29 0 0 1 30 29 19 0 28 37 19 0 +-3.0000000001e-04
 1.500000000100001e-04 3.2032000001e-04 -1.0 2.449293598294707e-16 0.0 17 30 0 3
55 323 192 16 25 28 0 320 +81 1 31 20 5 28 0 0 39 23 32 83 3 32 1.0 1.0 1.0 17 3
3 0 14 41 25 34 38 36 0 46 -18 34 21 0 33 26 56 35 ?1 29 35 22 0 34 57 27 2.0e-0
4 1.499999999999999e-04 2.032e-05 16 36 23 39 ?38 28 42 37 0 0 1 30 37 24 0 36 4
3 29 0 +2.0000000001e-04 1.500000000099999e-04 3.2032000001e-04 0.0 0.0 1.0 17 3
8 0 186 187 65 26 33 36 0 0 +81 1 39 25 5 36 0 0 44 31 40 83 3 40 1.0 1.0 1.0 17
 41 0 14 15 33 21 46 42 0 52 +16 42 26 44 ?41 36 53 43 0 0 1 30 43 27 0 42 54 37
 0 +-3.0000000001e-04 1.500000000100001e-04 2.032000001e-05 -1.0 2.4492935982947
07e-16 0.0 81 1 44 28 5 42 0 0 49 39 45 83 3 45 1.0 1.0 1.0 17 46 0 51 60 52 34
 41 42 0 65 -14 47 29 49 1.0e-08 74 12 51 11 48 -0 0 74 12 9 50 48 30 0 47 75 13
 0 +0.0 0.0 2.032e-05 0.0 0.0 1.0 1.0 -2.449293598294707e-16 0.0 81 1 49 31 5 47
 0 0 58 44 50 83 3 50 0.0 0.0 0.0 15 51 32 0 52 47 0 17 52 0 51 46 68 21 55 53 0
 0 -16 53 33 58 ?55 42 63 54 0 0 1 30 54 34 0 53 64 43 0 +-2.0000000001e-04 4.89
8587196834343e-20 2.032000001e-05 -2.449293598294707e-16 -1.0 0.0 17 55 0 319 32
8 20 56 52 53 0 68 +18 56 35 0 55 34 61 57 ?1 29 57 36 0 56 62 35 -2.0e-04 -1.49
9999999999999e-04 2.032e-05 81 1 58 37 5 53 0 0 66 49 59 83 3 59 1.0 1.0 1.0 17
 60 0 51 68 46 61 65 63 0 0 -18 61 38 0 195 56 80 62 ?1 29 62 39 0 61 81 57 2.0e
-04 -1.5e-04 2.032e-05 16 63 40 66 ?65 53 69 64 0 0 1 30 64 41 0 63 70 54 0 +2.0
000000001e-04 -4.898587196834343e-20 2.032000001e-05 2.449293598294707e-16 1.0 0
.0 17 65 0 186 38 195 34 60 63 0 0 +81 1 66 42 5 63 0 0 72 58 67 83 3 67 1.0 1.0
 1.0 17 68 0 51 52 60 56 71 69 0 333 -16 69 43 72 ?71 63 82 70 0 0 1 30 70 44 0
 69 83 64 0 +-3.0000000001e-04 -1.500000000099999e-04 2.032000001e-05 1.0 -2.449
293598294707e-16 0.0 17 71 0 344 200 333 61 68 69 0 60 +81 1 72 45 5 69 0 0 76 6
6 73 83 3 73 1.0 1.0 1.0 14 74 46 76 1.0e-08 111 47 78 11 75 +0 0 111 47 9 50 75
 47 0 74 112 48 0 +2.0e-04 1.6e-04 3.3032e-04 0.0 0.0 1.0 1.0 -2.449293598294707
e-16 0.0 81 1 76 48 5 74 0 0 87 72 77 83 3 77 0.0 0.0 0.0 15 78 49 0 79 74 0 17
 79 0 78 89 105 80 84 82 0 121 -18 80 50 0 79 61 85 81 ?1 29 81 51 0 80 86 62 3.
0e-04 1.599999999999999e-04 3.3032e-04 16 82 52 87 ?84 69 92 83 0 0 1 30 83 53 0
 82 93 70 0 +3.0000000001e-04 1.600000000099999e-04 3.3032000001e-04 -2.44929359
8294707e-16 -1.0 0.0 17 84 0 206 173 121 85 79 82 0 105 +18 85 54 0 84 80 90 86
 ?1 29 86 55 0 85 91 81 2.999999999999999e-04 -1.600000000000001e-04 3.3032e-04
 81 1 87 56 5 82 0 0 95 76 88 83 3 88 1.0 1.0 1.0 17 89 0 78 97 79 90 94 92 0 0
 -18 90 57 0 132 85 98 91 ?1 29 91 58 0 90 99 86 2.0e-04 1.6e-04 3.3032e-04 16 9
2 59 95 ?94 82 100 93 0 0 1 30 93 60 0 92 101 83 0 +2.0000000001e-04 1.600000000
099999e-04 3.3032000001e-04 1.0 -2.449293598294707e-16 0.0 17 94 0 115 116 132 8
0 89 92 0 0 +81 1 95 61 5 92 0 0 102 87 96 83 3 96 1.0 1.0 1.0 17 97 0 78 105 89
 98 104 100 0 110 +18 98 62 0 181 90 117 99 ?1 29 99 63 0 98 118 91 2.0e-04 -1.6
00000000000001e-04 3.3032e-04 16 100 64 102 ?97 92 106 101 0 0 1 30 101 65 0 100
 107 93 0 +2.0000000001e-04 1.600000000099999e-04 3.3032000001e-04 -2.4492935982
94707e-16 -1.0 0.0 81 1 102 66 5 100 0 0 108 95 103 83 3 103 1.0 1.0 1.0 17 104
 0 201 137 181 90 97 100 0 89 -17 105 0 78 79 97 85 110 106 0 170 +16 106 67 108
 ?105 100 119 107 0 0 1 30 107 68 0 106 120 101 0 +2.0000000001e-04 -1.600000000
100001e-04 3.3032000001e-04 1.0 -2.449293598294707e-16 0.0 81 1 108 69 5 106 0 0
 113 102 109 83 3 109 1.0 1.0 1.0 17 110 0 169 176 170 98 105 106 0 0 -14 111 70
 113 1.0e-08 138 74 115 11 112 +0 0 138 74 9 50 112 71 0 111 139 75 0 +2.0e-04 1
.6e-04 3.3032e-04 2.449293598294707e-16 1.0 0.0 1.0 -2.449293598294707e-16 0.0 8
1 1 113 72 5 111 0 0 122 108 114 83 3 114 0.0 0.0 0.0 15 115 73 0 116 111 0 17 1
16 0 115 124 94 117 121 119 0 129 -18 117 74 0 116 98 125 118 ?1 29 118 75 0 117
 126 99 3.0e-04 1.599999999999999e-04 1.032e-05 16 119 76 122 ?121 106 127 120 0
 0 1 30 120 77 0 119 128 107 0 +3.0000000001e-04 1.600000000099999e-04 3.3032000
001e-04 0.0 0.0 1.0 17 121 0 206 84 148 80 116 119 0 94 +81 1 122 78 5 119 0 0 1
30 113 123 83 3 123 1.0 1.0 1.0 17 124 0 115 132 116 125 129 127 0 159 -18 125 7
9 0 124 117 144 126 ?1 29 126 80 0 125 145 118 2.0e-04 1.6e-04 1.032e-05 16 127
 81 130 ?129 119 133 128 0 0 1 30 128 82 0 127 134 120 0 +2.0000000001e-04 1.600
000000099999e-04 1.032000001e-05 1.0 -2.449293598294707e-16 0.0 17 129 0 142 143
 159 117 124 127 0 148 +81 1 130 83 5 127 0 0 135 122 131 83 3 131 1.0 1.0 1.0 1
7 132 0 115 94 124 90 137 133 0 104 +16 133 84 135 ?132 127 146 134 0 0 1 30 134
 85 0 133 147 128 0 +2.0000000001e-04 1.600000000099999e-04 3.3032000001e-04 0.0
 0.0 1.0 81 1 135 86 5 133 0 0 140 130 136 83 3 136 1.0 1.0 1.0 17 137 0 201 164
 104 125 132 133 0 0 -14 138 87 140 1.0e-08 165 111 142 11 139 +0 0 165 111 9 50
 139 88 0 138 166 112 0 +2.0e-04 1.6e-04 1.032e-05 0.0 0.0 -1.0 -2.4492935982947
07e-16 -1.0 0.0 81 1 140 89 5 138 0 0 149 135 141 83 3 141 0.0 0.0 0.0 15 142 90
 0 143 138 0 17 143 0 142 151 129 144 148 146 0 173 -18 144 91 0 156 125 152 145
 ?1 29 145 92 0 144 153 126 2.999999999999999e-04 -1.600000000000001e-04 1.032e-
05 16 146 93 149 ?148 133 154 147 0 0 1 30 147 94 0 146 155 134 0 +3.0000000001e
-04 1.600000000099999e-04 1.032000001e-05 2.449293598294707e-16 1.0 0.0 17 148 0
 206 121 173 117 143 146 0 0 +81 1 149 95 5 146 0 0 157 140 150 83 3 150 1.0 1.0
 1.0 17 151 0 142 159 143 152 156 154 0 164 -18 152 96 0 176 144 188 153 ?1 29 1
53 97 0 152 189 145 2.0e-04 -1.600000000000001e-04 1.032e-05 16 154 98 157 ?156
 146 160 155 0 0 1 30 155 99 0 154 161 147 0 +2.0000000001e-04 -1.60000000010000
1e-04 1.032000001e-05 1.0 -2.449293598294707e-16 0.0 17 156 0 169 170 176 144 15
1 154 0 143 +81 1 157 100 5 154 0 0 162 149 158 83 3 158 1.0 1.0 1.0 17 159 0 14
2 129 151 125 164 160 0 137 +16 160 101 162 ?159 154 171 161 0 0 1 30 161 102 0
 160 172 155 0 +2.0000000001e-04 1.600000000099999e-04 1.032000001e-05 2.4492935
98294707e-16 1.0 0.0 81 1 162 103 5 160 0 0 167 157 163 83 3 163 1.0 1.0 1.0 17
 164 0 201 181 137 152 159 160 0 0 -14 165 104 167 1.0e-08 182 138 169 11 166 +0
 0 182 138 9 50 166 105 0 165 183 139 0 +2.0e-04 -1.600000000000001e-04 3.3032e-
04 -2.449293598294707e-16 -1.0 0.0 0.0 0.0 -1.0 81 1 167 106 5 165 0 0 174 162 1
68 83 3 168 0.0 0.0 0.0 15 169 107 0 170 165 0 17 170 0 169 110 156 85 173 171 0
 0 -16 171 108 174 ?173 160 177 172 0 0 1 30 172 109 0 171 178 161 0 +3.00000000
01e-04 -1.600000000100001e-04 3.3032000001e-04 0.0 0.0 -1.0 17 173 0 206 148 84
 144 170 171 0 0 +81 1 174 110 5 171 0 0 179 167 175 83 3 175 1.0 1.0 1.0 17 176
 0 169 156 110 152 181 177 0 151 +16 177 111 179 ?176 171 190 178 0 0 1 30 178 1
12 0 177 191 172 0 +2.0000000001e-04 -1.600000000100001e-04 3.3032000001e-04 0.0
 0.0 -1.0 81 1 179 113 5 177 0 0 184 174 180 83 3 180 1.0 1.0 1.0 17 181 0 201 1
04 164 98 176 177 0 97 -14 182 114 184 1.0e-08 202 165 186 11 183 -0 0 202 165 9
 50 183 115 0 182 203 166 0 +2.0e-04 -4.898587196589413e-20 2.032e-05 1.0 -2.449
293598294707e-16 0.0 2.449293598294707e-16 1.0 0.0 81 1 184 116 5 182 0 0 193 17
9 185 83 3 185 0.0 0.0 0.0 15 186 117 0 187 182 201 17 187 0 186 195 38 188 192
 190 0 200 -18 188 118 0 187 152 213 189 ?1 29 189 119 0 188 214 153 2.0e-04 -1.
5e-04 3.2032e-04 16 190 120 193 ?192 177 196 191 0 0 1 30 191 121 0 190 197 178
 0 +2.0000000001e-04 -4.898587196834343e-20 3.2032000001e-04 2.449293598294707e-
16 1.0 0.0 17 192 0 355 30 348 26 187 190 0 38 +81 1 193 122 5 190 0 0 198 184 1
94 83 3 194 1.0 1.0 1.0 17 195 0 186 65 187 61 200 196 0 71 +16 196 123 198 ?195
 190 215 197 0 0 1 30 197 124 0 196 216 191 0 +2.0000000001e-04 -1.5000000001e-0
4 3.2032000001e-04 0.0 0.0 -1.0 81 1 198 125 5 196 0 0 204 193 199 83 3 199 1.0
 1.0 1.0 17 200 0 344 345 71 188 195 196 0 348 -15 201 126 0 104 182 0 14 202 12
7 204 1.0e-08 207 182 206 11 203 -0 0 207 182 9 50 203 128 0 202 208 183 0 +3.0e
-04 1.499999999999999e-04 3.203200000000001e-04 -1.0 2.449293598294707e-16 0.0 0
.0 0.0 1.0 81 1 204 129 5 202 0 0 209 198 205 83 3 205 0.0 0.0 0.0 15 206 130 0
 84 202 0 14 207 131 209 1.0e-08 244 202 211 11 208 -0 0 244 202 9 50 208 132 0
 207 245 203 0 +-2.0e-04 1.600000000000001e-04 3.3032e-04 0.0 0.0 -1.0 -2.449293
598294707e-16 -1.0 0.0 81 1 209 133 5 207 0 0 217 204 210 83 3 210 0.0 0.0 0.0 1
5 211 134 0 212 207 0 17 212 0 211 222 238 213 219 215 0 227 +18 213 135 0 212 1
88 220 214 ?1 29 214 136 0 213 221 189 -3.0e-04 -1.599999999999999e-04 3.3032e-0
4 16 215 137 217 ?212 196 225 216 0 0 1 30 216 138 0 215 226 197 0 +-3.000000000
1e-04 1.600000000100001e-04 3.3032000001e-04 -2.449293598294707e-16 -1.0 0.0 81
 1 217 139 5 215 0 0 228 209 218 83 3 218 1.0 1.0 1.0 17 219 0 339 308 256 220 2
12 215 0 238 -18 220 140 0 219 213 223 221 ?1 29 221 141 0 220 224 214 -2.999999
999999999e-04 1.600000000000001e-04 3.3032e-04 17 222 0 211 230 212 223 227 225
 0 0 -18 223 142 0 265 220 231 224 ?1 29 224 143 0 223 232 221 -2.0e-04 -1.6e-04
 3.3032e-04 16 225 144 228 ?227 215 233 226 0 0 1 30 226 145 0 225 234 216 0 +-2
.0000000001e-04 -1.600000000099999e-04 3.3032000001e-04 -1.0 2.449293598294707e-
16 0.0 17 227 0 248 249 265 213 222 225 0 256 +81 1 228 146 5 225 0 0 236 217 22
9 83 3 229 1.0 1.0 1.0 17 230 0 211 238 222 231 235 233 0 312 -18 231 147 0 243
 223 250 232 ?1 29 232 148 0 231 251 224 -2.0e-04 1.600000000000001e-04 3.3032e-
04 16 233 149 236 ?235 225 239 234 0 0 1 30 234 150 0 233 240 226 0 +-2.00000000
01e-04 1.600000000100001e-04 3.3032000001e-04 -2.449293598294707e-16 -1.0 0.0 17
 235 0 334 268 312 223 230 233 0 222 +81 1 236 151 5 233 0 0 241 228 237 83 3 23
7 1.0 1.0 1.0 17 238 0 211 212 230 220 243 239 0 303 +16 239 152 241 ?238 233 25
2 240 0 0 1 30 240 153 0 239 253 234 0 +-2.0000000001e-04 1.600000000100001e-04
 3.3032000001e-04 -1.0 2.449293598294707e-16 0.0 81 1 241 154 5 239 0 0 246 236
 242 83 3 242 1.0 1.0 1.0 17 243 0 302 309 303 231 238 239 0 230 -14 244 155 246
 1.0e-08 271 207 248 11 245 -0 0 271 207 9 50 245 156 0 244 272 208 0 +-2.0e-04
 -1.6e-04 3.3032e-04 2.449293598294707e-16 1.0 0.0 1.0 -2.449293598294707e-16 0.
0 81 1 246 157 5 244 0 0 254 241 247 83 3 247 0.0 0.0 0.0 15 248 158 0 249 244 0
 17 249 0 248 257 227 250 256 252 0 283 +18 250 159 0 249 231 258 251 ?1 29 251
 160 0 250 259 232 -3.0e-04 -1.599999999999999e-04 1.032e-05 16 252 161 254 ?249
 239 260 253 0 0 1 30 253 162 0 252 261 240 0 +-3.0000000001e-04 -1.600000000099
999e-04 3.3032000001e-04 0.0 0.0 -1.0 81 1 254 163 5 252 0 0 263 246 255 83 3 25
5 1.0 1.0 1.0 17 256 0 339 219 283 213 249 252 0 0 -17 257 0 248 265 249 258 262
 260 0 292 -18 258 164 0 268 250 277 259 ?1 29 259 165 0 258 278 251 -2.0e-04 -1
.6e-04 1.032e-05 16 260 166 263 ?262 252 266 261 0 0 1 30 261 167 0 260 267 253
 0 +-2.0000000001e-04 -1.600000000099999e-04 1.032000001e-05 -1.0 2.449293598294
707e-16 0.0 17 262 0 275 276 292 250 257 260 0 0 +81 1 263 168 5 260 0 0 269 254
 264 83 3 264 1.0 1.0 1.0 17 265 0 248 227 257 223 268 266 0 235 -16 266 169 269
 ?268 260 279 267 0 0 1 30 267 170 0 266 280 261 0 +-2.0000000001e-04 -1.6000000
00099999e-04 3.3032000001e-04 0.0 0.0 -1.0 17 268 0 334 295 235 258 265 266 0 25
7 +81 1 269 171 5 266 0 0 273 263 270 83 3 270 1.0 1.0 1.0 14 271 172 273 1.0e-0
8 298 244 275 11 272 -0 0 298 244 9 50 272 173 0 271 299 245 0 +-2.0e-04 1.60000
0000000001e-04 1.032e-05 0.0 0.0 1.0 1.0 -2.449293598294707e-16 0.0 81 1 273 174
 5 271 0 0 281 269 274 83 3 274 0.0 0.0 0.0 15 275 175 0 276 271 0 17 276 0 275
 284 262 277 283 279 0 308 +18 277 176 0 289 258 285 278 ?1 29 278 177 0 277 286
 259 -2.999999999999999e-04 1.600000000000001e-04 1.032e-05 16 279 178 281 ?276
 266 287 280 0 0 1 30 280 179 0 279 288 267 0 +-3.0000000001e-04 1.6000000001000
01e-04 1.032000001e-05 2.449293598294707e-16 1.0 0.0 81 1 281 180 5 279 0 0 290
 273 282 83 3 282 1.0 1.0 1.0 17 283 0 339 256 308 250 276 279 0 262 -17 284 0 2
75 292 276 285 289 287 0 309 -18 285 181 0 284 277 324 286 ?1 29 286 182 0 285 3
25 278 -2.0e-04 1.600000000000001e-04 1.032e-05 16 287 183 290 ?289 279 293 288
 0 0 1 30 288 184 0 287 294 280 0 +-2.0000000001e-04 1.600000000100001e-04 1.032
000001e-05 -1.0 2.449293598294707e-16 0.0 17 289 0 302 303 309 277 284 287 0 276
 +81 1 290 185 5 287 0 0 296 281 291 83 3 291 1.0 1.0 1.0 17 292 0 275 262 284 2
58 295 293 0 0 -16 293 186 296 ?295 287 304 294 0 0 1 30 294 187 0 293 305 288 0
 +-2.0000000001e-04 1.600000000100001e-04 1.032000001e-05 2.449293598294707e-16
 1.0 0.0 17 295 0 334 312 268 285 292 293 0 0 +81 1 296 188 5 293 0 0 300 290 29
7 83 3 297 1.0 1.0 1.0 14 298 189 300 1.0e-08 315 271 302 11 299 -0 0 315 271 9
 50 299 190 0 298 316 272 0 +-2.0e-04 1.600000000000001e-04 3.3032e-04 -2.449293
598294707e-16 -1.0 0.0 0.0 0.0 -1.0 81 1 300 191 5 298 0 0 306 296 301 83 3 301
 0.0 0.0 0.0 15 302 192 0 303 298 0 17 303 0 302 243 289 220 308 304 0 0 +16 304
 193 306 ?303 293 310 305 0 0 1 30 305 194 0 304 311 294 0 +-3.0000000001e-04 1.
600000000100001e-04 3.3032000001e-04 0.0 0.0 1.0 81 1 306 195 5 304 0 0 313 300
 307 83 3 307 1.0 1.0 1.0 17 308 0 339 283 219 277 303 304 0 0 -17 309 0 302 289
 243 285 312 310 0 295 -16 310 196 313 ?312 304 321 311 0 0 1 30 311 197 0 310 3
22 305 0 +-2.0000000001e-04 1.600000000100001e-04 3.3032000001e-04 0.0 0.0 1.0 1
7 312 0 334 235 295 231 309 310 0 0 +81 1 313 198 5 310 0 0 317 306 314 83 3 314
 1.0 1.0 1.0 14 315 199 317 1.0e-08 335 298 319 11 316 -0 0 335 298 9 50 316 200
 0 315 336 299 0 +-2.0e-04 4.898587196589413e-20 2.032e-05 -1.0 2.44929359829470
7e-16 0.0 0.0 0.0 1.0 81 1 317 201 5 315 0 0 326 313 318 83 3 318 0.0 0.0 0.0 15
 319 202 0 320 315 334 17 320 0 319 20 328 16 323 321 0 0 -16 321 203 326 ?323 3
10 329 322 0 0 1 30 322 204 0 321 330 311 0 +-2.0000000001e-04 4.898587196834343
e-20 3.2032000001e-04 -2.449293598294707e-16 -1.0 0.0 17 323 0 355 348 30 324 32
0 321 0 345 +18 324 205 0 323 285 0 325 ?1 29 325 206 0 324 0 286 -2.0e-04 -1.49
9999999999999e-04 3.2032e-04 81 1 326 207 5 321 0 0 331 317 327 83 3 327 1.0 1.0
 1.0 17 328 0 319 320 55 324 333 329 0 0 +16 329 208 331 ?328 321 346 330 0 0 1
 30 330 209 0 329 347 322 0 +-2.0000000001e-04 -1.500000000099999e-04 3.20320000
01e-04 0.0 0.0 1.0 81 1 331 210 5 329 0 0 337 326 332 83 3 332 1.0 1.0 1.0 17 33
3 0 344 71 345 56 328 329 0 0 -15 334 211 0 235 315 0 14 335 212 337 1.0e-08 340
 315 339 11 336 -0 0 340 315 9 50 336 213 0 335 341 316 0 +-2.999999999999999e-0
4 1.500000000000001e-04 3.203200000000001e-04 1.0 -2.449293598294707e-16 0.0 2.4
49293598294707e-16 1.0 0.0 81 1 337 214 5 335 0 0 342 331 338 83 3 338 0.0 0.0 0
.0 15 339 215 0 219 335 0 14 340 216 342 1.0e-08 351 335 344 11 341 -0 0 351 335
 9 50 341 217 0 340 352 336 0 +-3.0e-04 -1.499999999999999e-04 3.203200000000001
e-04 2.449293598294707e-16 1.0 0.0 1.0 -2.449293598294707e-16 0.0 81 1 342 218 5
 340 0 0 349 337 343 83 3 343 0.0 0.0 0.0 15 344 219 0 333 340 0 17 345 0 344 33
3 200 324 348 346 0 328 -16 346 220 349 ?348 329 0 347 0 0 1 30 347 221 0 346 0
 330 0 +-3.0000000001e-04 -1.500000000099999e-04 3.2032000001e-04 1.0 -2.4492935
98294707e-16 0.0 17 348 0 355 192 323 188 345 346 0 0 +81 1 349 222 5 346 0 0 35
3 342 350 83 3 350 1.0 1.0 1.0 14 351 223 353 1.0e-08 0 340 355 11 352 +0 0 0 34
0 9 50 352 224 0 351 0 341 0 +0.0 0.0 3.203200000000001e-04 0.0 0.0 1.0 1.0 -2.4
49293598294707e-16 0.0 81 1 353 225 5 351 0 0 0 349 354 83 3 354 0.0 0.0 0.0 15
 355 226 0 30 351 0 1 0 
