<svg width="31.90378176mm" height="47.33746438mm" viewBox="0 0 12560544 18636797"  version="1.1" xmlns="http://www.w3.org/2000/svg" xmlns:xlink="http://www.w3.org/1999/xlink">
<desc>
Origin 47244094 17224409 Bound 40997224 8134916 12560544 18636797
</desc>
<g fill-rule="evenodd" fill="rgb(255, 0, 0)" stroke="black" stroke-width="1" transform="translate(0, 18636797) scale(1, -1) translate(-40997224, -8134916)">
<path id="N" d="M 45237795.00 12063780.00 L 44962205.00 12063780.00 L 44962205.00 12536220.00 L 45237795.00 12536220.00 L 45237795.00 12063780.00  z"/>
<path id="N" d="M 44278860.00 13474530.00 L 44288383.00 13465007.00 L 44347244.00 13465007.00 L 44362310.00 13458766.00 L 44368551.00 13443700.00 L 44368551.00 13384646.00 L 44362310.00 13369580.00 L 44347244.00 13363339.00 L 44280413.88 13363339.00 L 44248819.00 13350252.00 L 44217224.12 13363339.00 L 44150587.00 13363339.00 L 44079226.00 13291978.00 L 44079226.00 13117623.00 L 43816166.00 13117623.00 L 43816166.00 13382377.00 L 43988829.00 13382377.00 L 44080982.00 13474530.00 L 44126181.00 13493252.00 L 44233661.00 13493252.00 L 44278860.00 13474530.00  z"/>
<path id="N" d="M 49350394.00 24566930.00 L 49074804.00 24566930.00 L 49074804.00 26220472.00 L 49350394.00 26220472.00 L 49350394.00 24566930.00  z"/>
<path id="N" d="M 44625984.00 24566930.00 L 44350394.00 24566930.00 L 44350394.00 26220472.00 L 44625984.00 26220472.00 L 44625984.00 24566930.00  z"/>
<path id="N" d="M 44454007.00 15896920.00 L 44460297.00 15881733.00 L 44460724.00 15818991.00 A 100353.26 100353.26 0 0 0 44389764.00 15647678.00 L 44165514.83 15647678.00 L 44048778.00 15530941.83 L 44048778.00 14404150.00 L 44041139.00 14365747.00 L 44024369.00 14340647.89 L 44024369.00 13858268.00 L 44077365.82 13858268.00 L 44096629.00 13845397.00 L 44129676.15 13838823.22 L 44135328.00 13852467.00 L 44150394.00 13858708.00 L 44347244.00 13858708.00 L 44362310.00 13852467.00 L 44368551.00 13837401.00 L 44368551.00 13778347.00 L 44362310.00 13763281.00 L 44344537.00 13757040.00 L 44344537.00 13661857.00 L 44362310.00 13655616.00 L 44368551.00 13640550.00 L 44368551.00 13581496.00 L 44362310.00 13566430.00 L 44347244.00 13560189.00 L 44150394.00 13560189.00 L 44135328.00 13566430.00 L 44129676.15 13580073.78 L 44096629.00 13573500.00 L 44073832.27 13558268.00 L 43848425.00 13558268.00 L 43848425.00 13581890.00 L 43835434.00 13581890.00 L 43835434.00 13655413.06 L 43831302.00 13661597.00 L 43823663.00 13700000.00 L 43823663.00 14379741.00 L 43831302.00 14418145.00 L 43848072.00 14443242.18 L 43848072.00 14576237.00 L 43720744.09 14576237.00 L 43707197.00 14567185.00 A 70248.02 70248.02 0 0 0 43615415.00 14605203.00 L 43611681.93 14623970.98 L 43608321.00 14632085.00 L 43611681.93 14640199.02 L 43615415.00 14658967.00 L 43630643.00 14681757.00 L 43653433.00 14696985.00 L 43672200.98 14700718.07 L 43680315.00 14704079.00 L 43848072.00 14704079.00 L 43848072.00 15572509.00 L 43855711.00 15610913.00 L 43877465.00 15643469.00 L 44052987.00 15818992.00 L 44085544.00 15840745.00 L 44122381.00 15848072.50 L 44122381.00 15881733.00 L 44128671.00 15896920.00 L 44143858.00 15903210.00 L 44438820.00 15903210.00 L 44454007.00 15896920.00  z"/>
<path id="N" d="M 44963325.00 14613276.00 L 44962346.00 14260630.00 L 44949259.00 14229035.12 L 44949259.00 14162205.00 L 44943018.00 14147139.00 L 44927952.00 14140898.00 L 44868898.00 14140898.00 L 44853832.00 14147139.00 L 44847591.00 14162205.00 L 44847591.00 14229035.12 L 44834504.00 14260630.00 L 44834504.00 14611810.84 A 68360.19 68360.19 0 1 0 44963325.00 14613276.00  z"/>
<path id="N" d="M 45334646.00 18543307.00 L 44704724.00 18543307.00 L 44704620.00 18925966.00 L 44747419.00 18948459.00 A 511779.76 511779.76 0 0 1 44704724.00 19853448.00 L 44704724.00 20236221.00 L 45334646.00 20236221.00 L 45334646.00 18543307.00  z"/>
<path id="N" d="M 45615424.00 16290620.00 L 45621714.00 16275433.00 L 45621714.00 16204881.00 L 45615424.00 16189694.00 L 45600237.00 16183404.00 L 45305275.00 16183404.00 L 45290088.00 16189694.00 L 45283798.00 16204881.00 L 45283798.00 16275433.00 L 45290088.00 16290620.00 L 45305275.00 16296910.00 L 45600237.00 16296910.00 L 45615424.00 16290620.00  z"/>
<path id="N" d="M 45615424.00 15896920.00 L 45621714.00 15881733.00 L 45621714.00 15811181.00 L 45615424.00 15795994.00 L 45600237.00 15789704.00 L 45305275.00 15789704.00 L 45290088.00 15795994.00 L 45283798.00 15811181.00 L 45283798.00 15881733.00 L 45290088.00 15896920.00 L 45305275.00 15903210.00 L 45600237.00 15903210.00 L 45615424.00 15896920.00  z"/>
<path id="N" d="M 43238189.00 13139764.00 L 42982283.00 13139764.00 L 42982283.00 13415354.00 L 43238189.00 13415354.00 L 43238189.00 13139764.00  z"/>
<path id="N" d="M 46082677.00 16948819.00 L 45846457.00 16948819.00 L 45846457.00 17125983.00 L 46082677.00 17125983.00 L 46082677.00 16948819.00  z"/>
<path id="N" d="M 46727953.00 13149213.00 L 46472047.00 13149213.00 L 46472047.00 13424803.00 L 46727953.00 13424803.00 L 46727953.00 13149213.00  z"/>
<path id="N" d="M 51200353.00 18450000.00 L 51200353.00 12450000.00 L 51192714.00 12411597.00 L 51170960.00 12379040.00 L 51000353.00 12208433.00 L 51000353.00 12087732.00 L 50992714.00 12049328.00 L 50970960.00 12016772.00 L 50722991.00 11768803.00 L 50690435.00 11747049.00 L 50652031.00 11739410.00 L 49791120.00 11739410.00 L 49752716.00 11747049.00 L 49720160.00 11768803.00 L 49604847.00 11884116.00 L 49583093.00 11916672.00 L 49575454.00 11955076.00 L 49575454.00 12561024.00 L 49453150.00 12561024.00 L 49453150.00 13938976.00 L 49846850.00 13938976.00 L 49846850.00 12561024.00 L 49776160.00 12561024.00 L 49776160.00 11996643.00 L 49832687.00 11940116.00 L 50610464.00 11940116.00 L 50799647.00 12129299.00 L 50799647.00 12250000.00 L 50807286.00 12288404.00 L 50829040.00 12320960.00 L 50999647.00 12491567.00 L 50999647.00 14749647.00 L 50762599.00 14749647.00 L 50724196.00 14757286.00 L 50692085.50 14778741.00 L 50646851.00 14778741.00 L 50646851.00 14857630.25 L 50644923.00 14867323.00 L 50646851.00 14877015.75 L 50646851.00 14955905.00 L 50700688.25 14955905.00 L 50706872.00 14960037.00 L 50745276.00 14967676.00 L 50783680.00 14960037.00 L 50789863.75 14955905.00 L 50843701.00 14955905.00 L 50843701.00 14950353.00 L 50999647.00 14950353.00 L 50999647.00 18450000.00 A 100353.26 100353.26 0 0 0 51200353.00 18450000.00  z"/>
<path id="N" d="M 50551181.00 20039370.00 L 50248073.00 20039370.00 L 50233603.00 20045363.00 L 50222528.00 20056438.00 L 50216535.00 20070908.00 L 50216535.00 20086571.00 L 50222528.00 20101041.00 L 50233603.00 20112116.00 L 50248073.00 20118110.00 L 50551181.00 20118110.00 L 50551181.00 20039370.00  z"/>
<path id="N" d="M 48978994.00 20112116.00 L 48990069.00 20101041.00 L 48996063.00 20086571.00 L 48996063.00 20070908.00 L 48990069.00 20056438.00 L 48978994.00 20045363.00 L 48964524.00 20039370.00 L 48661417.00 20039370.00 L 48661417.00 20118110.00 L 48964524.00 20118110.00 L 48978994.00 20112116.00  z"/>
<path id="N" d="M 48291338.00 19681103.00 L 48086614.00 19681103.00 L 48086614.00 19885827.00 L 48291338.00 19885827.00 L 48291338.00 19681103.00  z"/>
<path id="N" d="M 50708662.00 18714566.00 L 50059056.00 18714566.00 L 50059056.00 19474408.00 L 50708662.00 19474408.00 L 50708662.00 18714566.00  z"/>
<path id="N" d="M 44735921.00 14814343.87 L 44735921.00 14378365.34 L 44746167.00 14374121.00 L 44752408.00 14359055.00 L 44752408.00 14162205.00 L 44746167.00 14147139.00 L 44731101.00 14140898.00 L 44672047.00 14140898.00 L 44656981.00 14147139.00 L 44650740.00 14162205.00 L 44650693.00 14802292.35 L 44635367.00 14812533.00 A 70244.85 70244.85 0 1 0 44735921.00 14814343.87  z"/>
<path id="N" d="M 42727165.00 10811024.00 L 42372835.00 10811024.00 L 42372835.00 11602362.00 L 42727165.00 11602362.00 L 42727165.00 10811024.00  z"/>
<path id="N" d="M 45139868.00 14374121.00 L 45146109.00 14359055.00 L 45146109.00 14162205.00 L 45139868.00 14147139.00 L 45127235.00 14141905.86 L 45127235.00 14040500.44 L 45129933.00 14039383.00 L 45131050.85 14036684.00 L 45232456.86 14036684.00 L 45237690.00 14049317.00 L 45252756.00 14055558.00 L 45449606.00 14055558.00 L 45464672.00 14049317.00 L 45470913.00 14034251.00 L 45470913.00 13975197.00 L 45464672.00 13960131.00 L 45449606.00 13953890.00 L 45252756.00 13953890.00 L 45237690.00 13960131.00 L 45232456.86 13972764.00 L 45136298.00 13972764.00 L 45136298.00 13394883.00 L 45129933.00 13379515.00 L 45114565.00 13373150.00 L 44941039.00 13373150.00 L 44941039.00 13272578.79 L 44943018.00 13271759.00 L 44949259.00 13256693.00 L 44949259.00 13059843.00 L 44943018.00 13044777.00 L 44927952.00 13038536.00 L 44868898.00 13038536.00 L 44853832.00 13044777.00 L 44847591.00 13059843.00 L 44847591.00 13256693.00 L 44853832.00 13271759.00 L 44855811.00 13272578.79 L 44855811.00 13373150.00 L 44485433.00 13373150.00 L 44470065.00 13379515.00 L 44463700.00 13394883.00 L 44463700.00 13995350.71 L 44462631.88 14003464.03 L 44462110.00 14146319.21 L 44460131.00 14147139.00 L 44453890.00 14162205.00 L 44453890.00 14359055.00 L 44460131.00 14374121.00 L 44475197.00 14380362.00 L 44534251.00 14380362.00 L 44549317.00 14374121.00 L 44555558.00 14359055.00 L 44555558.00 14162205.00 L 44549317.00 14147139.00 L 44547338.00 14146319.21 L 44547338.00 14045748.00 L 45063315.00 14045748.00 L 45063315.00 14141905.86 L 45050682.00 14147139.00 L 45044441.00 14162205.00 L 45044441.00 14359055.00 L 45050682.00 14374121.00 L 45065748.00 14380362.00 L 45124802.00 14380362.00 L 45139868.00 14374121.00  z"/>
<path id="N" d="M 46824714.00 12418110.00 L 46824714.00 12181890.00 A 220780.35 220780.35 0 0 0 46383160.00 12181890.00 L 46383160.00 12418110.00 A 220780.35 220780.35 0 0 0 46824714.00 12418110.00  zM 46483513.00 12418110.00 L 46483513.00 12181890.00 A 120431.73 120431.73 0 0 1 46724361.00 12181890.00 L 46724361.00 12418110.00 A 120431.73 120431.73 0 0 1 46483513.00 12418110.00  z"/>
<path id="N" d="M 43423140.00 10922047.00 L 43423140.00 10685827.00 A 220780.35 220780.35 0 0 0 42981586.00 10685827.00 L 42981586.00 10922047.00 A 220780.35 220780.35 0 0 0 43423140.00 10922047.00  zM 43081939.00 10922047.00 L 43081939.00 10685827.00 A 120431.73 120431.73 0 0 1 43322787.00 10685827.00 L 43322787.00 10922047.00 A 120431.73 120431.73 0 0 1 43081939.00 10922047.00  z"/>
<path id="N" d="M 46824714.00 10922047.00 L 46824714.00 10685827.00 A 220780.35 220780.35 0 0 0 46383160.00 10685827.00 L 46383160.00 10922047.00 A 220780.35 220780.35 0 0 0 46824714.00 10922047.00  zM 46483513.00 10922047.00 L 46483513.00 10685827.00 A 120431.73 120431.73 0 0 1 46724361.00 10685827.00 L 46724361.00 10922047.00 A 120431.73 120431.73 0 0 1 46483513.00 10922047.00  z"/>
<path id="N" d="M 43423140.00 12418110.00 L 43423140.00 12181890.00 A 220780.35 220780.35 0 0 0 42981586.00 12181890.00 L 42981586.00 12418110.00 A 220780.35 220780.35 0 0 0 43423140.00 12418110.00  zM 43081939.00 12418110.00 L 43081939.00 12181890.00 A 120431.73 120431.73 0 0 1 43322787.00 12181890.00 L 43322787.00 12418110.00 A 120431.73 120431.73 0 0 1 43081939.00 12418110.00  z"/>
<path id="N" d="M 49450000.00 16667985.00 L 49048783.00 16667985.00 L 49048783.00 16732248.01 L 48998783.00 16732248.01 L 48998783.00 16683034.00 L 48750753.00 16683034.00 L 48750753.00 16879884.00 L 48998783.00 16879884.00 L 48998783.00 16830672.01 L 49048783.00 16830672.01 L 49048783.00 16988152.01 L 48998783.00 16988152.01 L 48998783.00 16938939.00 L 48750753.00 16938939.00 L 48750753.00 17135789.00 L 48998783.00 17135789.00 L 48998783.00 17086576.01 L 49048783.00 17086576.01 L 49048783.00 17240003.00 L 48998783.00 17240003.00 L 48998783.00 17194845.00 L 48750753.00 17194845.00 L 48750753.00 17391695.00 L 48998783.00 17391695.00 L 48998783.00 17346537.00 L 49100850.87 17346537.00 L 49116893.00 17353182.00 L 49116893.00 17400000.00 L 49450000.00 17400000.00 L 49450000.00 16667985.00  z"/>
<path id="N" d="M 45025594.00 16714204.00 L 45177363.00 16714204.00 L 45192279.00 16708026.00 L 45198457.00 16693110.00 L 45198457.00 15787204.00 L 45192279.00 15772288.00 L 45177363.00 15766110.00 L 45025594.00 15766110.00 L 45025594.00 15492128.00 L 44915358.00 15492128.00 L 44915358.00 15766110.00 L 44828740.00 15766110.00 L 44828740.00 15492128.00 L 44718504.00 15492128.00 L 44718504.00 15766110.00 L 44566733.00 15766110.00 L 44551817.00 15772288.00 L 44545639.00 15787204.00 L 44545639.00 16693110.00 L 44551817.00 16708026.00 L 44566733.00 16714204.00 L 44718504.00 16714204.00 L 44718504.00 16988188.00 L 44828740.00 16988188.00 L 44828740.00 16714204.00 L 44915358.00 16714204.00 L 44915358.00 16988188.00 L 45025594.00 16988188.00 L 45025594.00 16714204.00  z"/>
<path id="N" d="M 50088582.00 19822835.00 L 49990157.00 19822835.00 L 49990157.00 20088583.00 L 49222441.00 20088583.00 L 49222441.00 19822835.00 L 49124016.00 19822835.00 L 49124016.00 21122047.00 L 49222441.00 21122047.00 L 49222441.00 20856299.00 L 49990157.00 20856299.00 L 49990157.00 21122047.00 L 50088582.00 21122047.00 L 50088582.00 19822835.00  z"/>
<path id="N" d="M 45615424.00 16487471.00 L 45621714.00 16472284.00 L 45621714.00 16401732.00 L 45615424.00 16386545.00 L 45600237.00 16380255.00 L 45305275.00 16380255.00 L 45290088.00 16386545.00 L 45283798.00 16401732.00 L 45283798.00 16472284.00 L 45290088.00 16487471.00 L 45305275.00 16493761.00 L 45600237.00 16493761.00 L 45615424.00 16487471.00  z"/>
<path id="N" d="M 44454007.00 16093770.00 L 44460297.00 16078583.00 L 44460297.00 16008031.00 L 44454007.00 15992844.00 L 44438820.00 15986554.00 L 44143858.00 15986554.00 L 44128671.00 15992844.00 L 44122381.00 16008031.00 L 44122381.00 16078583.00 L 44128671.00 16093770.00 L 44143858.00 16100060.00 L 44438820.00 16100060.00 L 44454007.00 16093770.00  z"/>
<path id="N" d="M 48978994.00 20584557.00 L 48990069.00 20573482.00 L 48996063.00 20559012.00 L 48996063.00 20543349.00 L 48990069.00 20528879.00 L 48978994.00 20517804.00 L 48964524.00 20511811.00 L 48661417.00 20511811.00 L 48661417.00 20590551.00 L 48964524.00 20590551.00 L 48978994.00 20584557.00  z"/>
<path id="N" d="M 43945295.00 16401575.00 L 43758287.00 16401575.00 L 43758287.00 16598425.00 L 43945295.00 16598425.00 L 43945295.00 16401575.00  z"/>
<path id="N" d="M 46125590.00 13581890.00 L 45948426.00 13581890.00 L 45948426.00 13818110.00 L 46125590.00 13818110.00 L 46125590.00 13581890.00  z"/>
<path id="N" d="M 46146063.00 13211418.00 L 45949213.00 13211418.00 L 45949213.00 13388582.00 L 46146063.00 13388582.00 L 46146063.00 13211418.00  z"/>
<path id="N" d="M 50373622.00 22317716.00 L 50196458.00 22317716.00 L 50196458.00 22514566.00 L 50373622.00 22514566.00 L 50373622.00 22317716.00  z"/>
<path id="N" d="M 43638582.00 13581890.00 L 43461418.00 13581890.00 L 43461418.00 13818110.00 L 43638582.00 13818110.00 L 43638582.00 13581890.00  z"/>
<path id="N" d="M 44196850.00 12692914.00 L 43992126.00 12692914.00 L 43992126.00 12897638.00 L 44196850.00 12897638.00 L 44196850.00 12692914.00  z"/>
<path id="N" d="M 49883464.00 17841733.00 L 49647244.00 17841733.00 L 49647244.00 18058267.00 L 49883464.00 18058267.00 L 49883464.00 17841733.00  z"/>
<path id="N" d="M 46082677.00 17322835.00 L 45846457.00 17322835.00 L 45846457.00 17499999.00 L 46082677.00 17499999.00 L 46082677.00 17322835.00  z"/>
<path id="N" d="M 47976378.00 19681103.00 L 47771654.00 19681103.00 L 47771654.00 19885827.00 L 47976378.00 19885827.00 L 47976378.00 19681103.00  z"/>
<path id="N" d="M 46151942.00 12846630.00 L 45974778.00 12846630.00 L 45974778.00 13023794.00 L 46151942.00 13023794.00 L 46151942.00 12846630.00  z"/>
<path id="N" d="M 50608267.00 17416536.00 L 50391733.00 17416536.00 L 50391733.00 17652756.00 L 50608267.00 17652756.00 L 50608267.00 17416536.00  z"/>
<path id="N" d="M 44029571.00 17361406.00 L 43770429.00 17361406.00 L 43770429.00 17638594.00 L 44029571.00 17638594.00 L 44029571.00 17361406.00  z"/>
<path id="N" d="M 46143307.00 12063780.00 L 45828347.00 12063780.00 L 45828347.00 12536220.00 L 46143307.00 12536220.00 L 46143307.00 12063780.00  z"/>
<path id="N" d="M 47993341.00 20162900.00 L 47741639.00 20162900.00 L 47741639.00 20388282.00 L 47993341.00 20388282.00 L 47993341.00 20162900.00  z"/>
<path id="N" d="M 43683834.00 13117623.00 L 43420774.00 13117623.00 L 43420774.00 13382377.00 L 43683834.00 13382377.00 L 43683834.00 13117623.00  z"/>
<path id="N" d="M 43977953.00 12063780.00 L 43662993.00 12063780.00 L 43662993.00 12536220.00 L 43977953.00 12536220.00 L 43977953.00 12063780.00  z"/>
<path id="N" d="M 48978994.00 20899518.00 L 48990069.00 20888443.00 L 48996063.00 20873973.00 L 48996063.00 20858310.00 L 48990069.00 20843840.00 L 48978994.00 20832765.00 L 48964524.00 20826772.00 L 48661417.00 20826772.00 L 48661417.00 20905512.00 L 48964524.00 20905512.00 L 48978994.00 20899518.00  z"/>
<path id="N" d="M 47867417.00 22290026.00 L 47602663.00 22290026.00 L 47602663.00 22553086.00 L 47867417.00 22553086.00 L 47867417.00 22290026.00  z"/>
<path id="N" d="M 46200787.00 24566930.00 L 45925197.00 24566930.00 L 45925197.00 26220472.00 L 46200787.00 26220472.00 L 46200787.00 24566930.00  z"/>
<path id="N" d="M 45807086.00 24566930.00 L 45531496.00 24566930.00 L 45531496.00 26220472.00 L 45807086.00 26220472.00 L 45807086.00 24566930.00  z"/>
<path id="N" d="M 44549317.00 13271759.00 L 44555558.00 13256693.00 L 44555558.00 13219002.55 L 44561493.00 13215037.00 L 44578896.00 13188991.00 L 44585007.00 13158268.00 L 44585008.00 12890552.00 L 44582965.10 12880283.00 L 45270867.00 12880283.00 L 45301590.00 12874172.00 L 45327636.00 12856769.00 L 45490523.00 12693882.00 L 45507926.00 12667836.00 L 45514037.00 12637113.00 L 45514037.00 12536220.00 L 45651181.00 12536220.00 L 45651181.00 12063780.00 L 45351969.00 12063780.00 L 45351969.00 12536220.00 L 45353471.00 12536220.00 L 45353471.00 12603858.00 L 45237612.00 12719717.00 L 44511810.00 12719717.00 L 44511810.00 12692914.00 L 44455875.00 12692914.00 L 44455875.00 12370867.00 L 44454331.00 12363104.55 L 44454331.00 12063780.00 L 44155119.00 12063780.00 L 44155119.00 12536220.00 L 44295309.00 12536220.00 L 44295309.00 12761420.00 L 44301420.00 12792143.00 L 44307086.00 12800622.95 L 44307086.00 12897638.00 L 44398272.40 12897638.00 L 44424441.00 12923806.29 L 44424441.00 13158268.00 L 44430552.00 13188991.00 L 44447955.00 13215037.00 L 44453890.00 13219002.55 L 44453890.00 13256693.00 L 44460131.00 13271759.00 L 44475197.00 13278000.00 L 44534251.00 13278000.00 L 44549317.00 13271759.00  z"/>
<path id="N" d="M 50551181.00 20354331.00 L 50248073.00 20354331.00 L 50233603.00 20360324.00 L 50222528.00 20371399.00 L 50216535.00 20385869.00 L 50216535.00 20401532.00 L 50222528.00 20416002.00 L 50233603.00 20427077.00 L 50248073.00 20433071.00 L 50551181.00 20433071.00 L 50551181.00 20354331.00  z"/>
<path id="N" d="M 50551181.00 20511811.00 L 50248073.00 20511811.00 L 50233603.00 20517804.00 L 50222528.00 20528879.00 L 50216535.00 20543349.00 L 50216535.00 20559012.00 L 50222528.00 20573482.00 L 50233603.00 20584557.00 L 50248073.00 20590551.00 L 50551181.00 20590551.00 L 50551181.00 20511811.00  z"/>
<path id="N" d="M 50373622.00 22022440.00 L 50196458.00 22022440.00 L 50196458.00 22219290.00 L 50373622.00 22219290.00 L 50373622.00 22022440.00  z"/>
<path id="N" d="M 51657874.00 10316929.00 L 51067324.00 10316929.00 L 51067324.00 11655511.00 L 51657874.00 11655511.00 L 51657874.00 10316929.00  z"/>
<path id="N" d="M 44271757.00 19853561.00 L 44228958.00 19831068.00 A 511779.76 511779.76 0 0 1 44271654.00 18926080.00 L 44271654.00 18543307.00 L 43641732.00 18543307.00 L 43641732.00 20236221.00 L 44271654.00 20236221.00 L 44271757.00 19853561.00  z"/>
<path id="N" d="M 44454007.00 16290620.00 L 44460297.00 16275433.00 L 44460297.00 16204881.00 L 44454007.00 16189694.00 L 44438820.00 16183404.00 L 44143858.00 16183404.00 L 44128671.00 16189694.00 L 44122381.00 16204881.00 L 44122381.00 16275433.00 L 44128671.00 16290620.00 L 44143858.00 16296910.00 L 44438820.00 16296910.00 L 44454007.00 16290620.00  z"/>
<path id="N" d="M 45615424.00 16684321.00 L 45621714.00 16669134.00 L 45621714.00 16598582.00 L 45615424.00 16583395.00 L 45600237.00 16577105.00 L 45305275.00 16577105.00 L 45290088.00 16583395.00 L 45283798.00 16598582.00 L 45283798.00 16669134.00 L 45290088.00 16684321.00 L 45305275.00 16690611.00 L 45600237.00 16690611.00 L 45615424.00 16684321.00  z"/>
<path id="N" d="M 43541713.00 16401575.00 L 43354705.00 16401575.00 L 43354705.00 16598425.00 L 43541713.00 16598425.00 L 43541713.00 16401575.00  z"/>
<path id="N" d="M 42658267.00 17364567.00 L 42441733.00 17364567.00 L 42441733.00 17600787.00 L 42658267.00 17600787.00 L 42658267.00 17364567.00  z"/>
<path id="N" d="M 50608267.00 17081890.00 L 50542614.00 17081890.00 L 50542615.00 16079569.00 L 50530131.29 16049435.29 L 50484008.00 16003311.00 L 50453875.00 15990830.00 L 50348514.00 15990830.00 L 50348514.00 15723401.00 A 51663.88 51663.88 0 0 0 50245186.00 15723401.00 L 50245186.00 16047367.00 A 51663.88 51663.88 0 0 0 50333382.00 16083899.00 L 50336629.84 16076058.00 L 50436223.27 16076058.00 L 50457386.00 16097220.27 L 50457386.00 17081890.00 L 50391733.00 17081890.00 L 50391733.00 17318110.00 L 50608267.00 17318110.00 L 50608267.00 17081890.00  z"/>
<path id="N" d="M 48978994.00 20269597.00 L 48990069.00 20258522.00 L 48996063.00 20244052.00 L 48996063.00 20228389.00 L 48990069.00 20213919.00 L 48978994.00 20202844.00 L 48964524.00 20196851.00 L 48661417.00 20196850.00 L 48661417.00 20275591.00 L 48964524.00 20275591.00 L 48978994.00 20269597.00  z"/>
<path id="N" d="M 48321353.00 20162900.00 L 48069651.00 20162900.00 L 48069651.00 20388282.00 L 48321353.00 20388282.00 L 48321353.00 20162900.00  z"/>
<path id="N" d="M 50344581.00 16190286.00 L 50249119.00 16190286.00 L 50249119.00 16609714.00 L 50344581.00 16609714.00 L 50344581.00 16190286.00  z"/>
<path id="N" d="M 43838583.00 24566930.00 L 43562993.00 24566930.00 L 43562993.00 26220472.00 L 43838583.00 26220472.00 L 43838583.00 24566930.00  z"/>
<path id="N" d="M 49020078.00 10316929.00 L 48429528.00 10316929.00 L 48429528.00 11655511.00 L 49020078.00 11655511.00 L 49020078.00 10316929.00  z"/>
<path id="N" d="M 43238189.00 12765748.00 L 42982283.00 12765748.00 L 42982283.00 12844846.00 L 42735244.00 12844846.00 L 42613921.00 12723523.00 L 42613921.00 12188976.00 L 42727165.00 12188976.00 L 42727165.00 11751968.00 L 42372835.00 11751968.00 L 42372835.00 12188976.00 L 42486079.00 12188976.00 L 42486079.00 12750000.00 L 42504801.00 12795199.00 L 42663568.00 12953966.00 L 42708767.00 12972688.00 L 42982283.00 12972688.00 L 42982283.00 13041338.00 L 43238189.00 13041338.00 L 43238189.00 12765748.00  z"/>
<path id="N" d="M 45413386.00 24566930.00 L 45137796.00 24566930.00 L 45137796.00 26220472.00 L 45413386.00 26220472.00 L 45413386.00 24566930.00  z"/>
<path id="N" d="M 45019685.00 24566930.00 L 44744095.00 24566930.00 L 44744095.00 26220472.00 L 45019685.00 26220472.00 L 45019685.00 24566930.00  z"/>
<path id="N" d="M 50531496.00 24566930.00 L 50255906.00 24566930.00 L 50255906.00 26220472.00 L 50531496.00 26220472.00 L 50531496.00 24566930.00  z"/>
<path id="N" d="M 50218110.00 17841733.00 L 50142614.00 17841733.00 L 50142614.00 16583831.70 L 50151664.00 16561983.00 L 50151664.00 16238017.00 A 51663.88 51663.88 0 0 0 50048336.00 16238017.00 L 50048336.00 16561983.00 L 50057386.00 16583831.70 L 50057386.00 17366387.92 L 49917212.08 17506561.00 L 48998783.00 17506561.00 L 48998783.00 17450750.00 L 48750753.00 17450750.00 L 48750753.00 17647600.00 L 48998783.00 17647600.00 L 48998783.00 17591789.00 L 49934864.00 17591789.00 L 49964997.00 17579308.00 L 50057386.00 17486918.44 L 50057386.00 17841733.00 L 49981890.00 17841733.00 L 49981890.00 18058267.00 L 50218110.00 18058267.00 L 50218110.00 17841733.00  z"/>
<path id="N" d="M 50551181.00 20669291.00 L 50248073.00 20669291.00 L 50233603.00 20675284.00 L 50222528.00 20686359.00 L 50216535.00 20700829.00 L 50216535.00 20716492.00 L 50222528.00 20730962.00 L 50233603.00 20742037.00 L 50248073.00 20748031.00 L 50551181.00 20748032.00 L 50551181.00 20669291.00  z"/>
<path id="N" d="M 45139868.00 13271759.00 L 45146109.00 13256693.00 L 45146109.00 13164141.54 L 45148542.00 13158268.00 L 45148542.00 13142638.00 L 45420077.00 13142638.00 L 45457742.00 13127036.00 L 45591899.90 12992879.00 L 45659817.00 12992879.00 L 45659817.00 13023794.00 L 45836981.00 13023794.00 L 45836981.00 12846630.00 L 45659817.00 12846630.00 L 45659817.00 12886345.00 L 45569836.00 12886345.00 L 45532170.00 12901947.00 L 45398013.90 13036104.00 L 45095275.00 13036104.00 L 45089403.88 13038536.00 L 45065748.00 13038536.00 L 45050682.00 13044777.00 L 45044441.00 13059843.00 L 45044441.00 13083497.46 L 45042008.00 13089371.00 L 45042008.00 13158268.00 L 45044441.00 13164141.54 L 45044441.00 13256693.00 L 45050682.00 13271759.00 L 45065748.00 13278000.00 L 45124802.00 13278000.00 L 45139868.00 13271759.00  z"/>
<path id="N" d="M 47381890.00 24566930.00 L 47106300.00 24566930.00 L 47106300.00 26220472.00 L 47381890.00 26220472.00 L 47381890.00 24566930.00  z"/>
<path id="N" d="M 44264735.00 14300000.00 L 44262068.99 14286596.65 L 44270247.00 14266854.00 L 44270247.00 14060000.05 L 44280971.08 14055558.00 L 44347244.00 14055558.00 L 44362310.00 14049317.00 L 44368551.00 14034251.00 L 44368551.00 13975197.00 L 44362310.00 13960131.00 L 44347244.00 13953890.00 L 44280413.88 13953890.00 L 44248819.00 13940803.00 L 44223097.92 13951457.00 L 44216980.00 13951457.00 L 44211106.46 13953890.00 L 44150394.00 13953890.00 L 44135328.00 13960131.00 L 44129087.00 13975197.00 L 44129087.00 14034251.00 L 44135328.00 14049317.00 L 44150394.00 14055558.00 L 44163713.00 14055558.00 L 44163713.00 14237701.26 L 44144816.00 14250328.00 A 70244.85 70244.85 0 1 0 44264735.00 14300000.00  z"/>
<path id="N" d="M 47427165.00 10861024.00 L 47072835.00 10861024.00 L 47072835.00 11652362.00 L 47427165.00 11652362.00 L 47427165.00 10861024.00  z"/>
<path id="N" d="M 44232283.00 24563898.00 L 43956693.00 24563898.00 L 43956693.00 25823740.00 L 44232283.00 25823740.00 L 44232283.00 24563898.00  z"/>
<path id="N" d="M 48562992.00 24566930.00 L 48287402.00 24566930.00 L 48287402.00 26220472.00 L 48562992.00 26220472.00 L 48562992.00 24566930.00  z"/>
<path id="N" d="M 45481760.00 13451838.00 L 45580331.00 13353267.00 L 45653937.00 13353267.00 L 45653937.00 13388582.00 L 45850787.00 13388582.00 L 45850787.00 13211418.00 L 45653937.00 13211418.00 L 45653937.00 13246733.00 L 45558268.00 13246733.00 L 45520603.00 13262335.00 L 45422032.00 13360906.00 L 45351181.00 13360906.00 L 45345307.46 13363339.00 L 45252756.00 13363339.00 L 45237690.00 13369580.00 L 45231449.00 13384646.00 L 45231449.00 13443700.00 L 45237690.00 13458766.00 L 45252756.00 13465007.00 L 45345307.46 13465007.00 L 45351181.00 13467440.00 L 45444095.00 13467440.00 L 45481760.00 13451838.00  z"/>
<path id="N" d="M 50551181.00 20826772.00 L 50248073.00 20826772.00 L 50233603.00 20832765.00 L 50222528.00 20843840.00 L 50216535.00 20858310.00 L 50216535.00 20873973.00 L 50222528.00 20888443.00 L 50233603.00 20899518.00 L 50248073.00 20905512.00 L 50551181.00 20905512.00 L 50551181.00 20826772.00  z"/>
<path id="N" d="M 48623622.00 21970078.00 L 48446458.00 21970078.00 L 48446458.00 22166928.00 L 48623622.00 22166928.00 L 48623622.00 21970078.00  z"/>
<path id="N" d="M 50151664.00 16047367.00 L 50151664.00 15889253.82 L 50153267.00 15885384.00 L 50153267.00 15419876.00 L 50137665.00 15382211.00 L 49956417.00 15200963.00 L 49956417.00 14965748.00 L 49986220.00 14965748.00 L 49986220.00 14947606.00 L 50351575.00 14947606.00 L 50351575.00 14955905.00 L 50548425.00 14955905.00 L 50548425.00 14778741.00 L 50351575.00 14778741.00 L 50351575.00 14787040.00 L 49986220.00 14787040.00 L 49986220.00 14768898.00 L 49828740.00 14768898.00 L 49828740.00 14859565.58 L 49827197.00 14867323.00 L 49828740.00 14875080.42 L 49828740.00 14965748.00 L 49849883.00 14965748.00 L 49849883.00 15223026.00 L 49865485.00 15260691.00 L 50046733.00 15441939.00 L 50046733.00 15885384.00 L 50048336.00 15889253.82 L 50048336.00 16047367.00 A 51663.88 51663.88 0 0 0 50151664.00 16047367.00  z"/>
<path id="N" d="M 49954814.00 16561983.00 L 49954814.00 16238017.00 A 51663.88 51663.88 0 1 0 49851486.00 16238017.00 L 49851486.00 16357386.00 L 49801085.12 16357386.00 L 49725225.00 16281525.12 L 49725226.00 16083462.00 L 49712744.00 16053329.00 L 49611922.00 15952507.00 L 49581789.00 15940026.00 L 49464924.00 15940026.00 L 49464924.00 15864530.00 L 49248390.00 15864530.00 L 49248390.00 15949169.00 L 48980672.00 15949169.00 L 48980672.00 15893358.00 L 48732642.00 15893358.00 L 48732642.00 16090208.00 L 48980672.00 16090208.00 L 48980672.00 16034397.00 L 49248390.00 16034397.00 L 49248390.00 16100750.00 L 49464924.00 16100750.00 L 49464924.00 16025254.00 L 49564137.00 16025254.00 L 49639997.00 16101114.00 L 49639997.00 16299177.00 L 49652478.00 16329310.00 L 49753301.00 16430133.00 L 49783434.00 16442614.00 L 49851486.00 16442614.00 L 49851486.00 16561983.00 A 51663.88 51663.88 0 1 0 49954814.00 16561983.00  z"/>
<path id="N" d="M 50137795.00 24566930.00 L 49862205.00 24566930.00 L 49862205.00 26220472.00 L 50137795.00 26220472.00 L 50137795.00 24566930.00  z"/>
<path id="N" d="M 48978994.00 20427077.00 L 48990069.00 20416002.00 L 48996063.00 20401532.00 L 48996063.00 20385869.00 L 48990069.00 20371399.00 L 48978994.00 20360324.00 L 48964524.00 20354331.00 L 48661417.00 20354331.00 L 48661417.00 20433071.00 L 48964524.00 20433071.00 L 48978994.00 20427077.00  z"/>
<path id="N" d="M 48956693.00 24566930.00 L 48681103.00 24566930.00 L 48681103.00 26220472.00 L 48956693.00 26220472.00 L 48956693.00 24566930.00  z"/>
<path id="N" d="M 49744094.00 24566930.00 L 49468504.00 24566930.00 L 49468504.00 26220472.00 L 49744094.00 26220472.00 L 49744094.00 24566930.00  z"/>
<path id="N" d="M 46727953.00 12976913.00 L 47027953.00 12976913.00 L 47073152.00 12958191.00 L 47295199.00 12736144.00 L 47313921.00 12690945.00 L 47313921.00 12238976.00 L 47427165.00 12238976.00 L 47427165.00 11801968.00 L 47072835.00 11801968.00 L 47072835.00 12238976.00 L 47186079.00 12238976.00 L 47186079.00 12664468.00 L 47001476.00 12849071.00 L 46727953.00 12849071.00 L 46727953.00 12775197.00 L 46472047.00 12775197.00 L 46472047.00 13050787.00 L 46727953.00 13050787.00 L 46727953.00 12976913.00  z"/>
<path id="N" d="M 44746167.00 13271759.00 L 44752408.00 13256693.00 L 44752408.00 13059843.00 L 44746167.00 13044777.00 L 44731101.00 13038536.00 L 44672047.00 13038536.00 L 44656981.00 13044777.00 L 44650740.00 13059843.00 L 44650740.00 13256693.00 L 44656981.00 13271759.00 L 44672047.00 13278000.00 L 44731101.00 13278000.00 L 44746167.00 13271759.00  z"/>
<path id="N" d="M 45615424.00 16093770.00 L 45621714.00 16078583.00 L 45621714.00 16008031.00 L 45615424.00 15992844.00 L 45600237.00 15986554.00 L 45305275.00 15986554.00 L 45290088.00 15992844.00 L 45283798.00 16008031.00 L 45283798.00 16078583.00 L 45290088.00 16093770.00 L 45305275.00 16100060.00 L 45600237.00 16100060.00 L 45615424.00 16093770.00  z"/>
<path id="N" d="M 44454007.00 16684321.00 L 44460297.00 16669134.00 L 44460297.00 16598582.00 L 44454007.00 16583395.00 L 44438820.00 16577105.00 L 44143858.00 16577105.00 L 44128671.00 16583395.00 L 44122381.00 16598582.00 L 44122381.00 16669134.00 L 44128671.00 16684321.00 L 44143858.00 16690611.00 L 44438820.00 16690611.00 L 44454007.00 16684321.00  z"/>
<path id="N" d="M 44844095.00 12063780.00 L 44568505.00 12063780.00 L 44568505.00 12536220.00 L 44844095.00 12536220.00 L 44844095.00 12063780.00  z"/>
<path id="N" d="M 49954814.00 16047367.00 L 49954814.00 15723401.00 A 51663.88 51663.88 0 1 0 49851486.00 15723401.00 L 49851486.00 15842770.00 L 49754960.08 15842770.00 L 49625649.00 15713458.08 L 49625650.00 15480962.00 L 49613166.29 15450828.29 L 49432907.00 15270568.00 L 49402774.00 15258087.00 L 48993585.85 15258087.00 L 49000353.00 15224067.00 L 49000353.00 14947606.00 L 49513780.00 14947606.00 L 49513780.00 14965748.00 L 49671260.00 14965748.00 L 49671260.00 14875080.42 L 49672803.00 14867323.00 L 49671260.00 14859565.58 L 49671260.00 14768898.00 L 49513780.00 14768898.00 L 49513780.00 14787040.00 L 49000353.00 14787040.00 L 49000353.00 14541568.00 L 49228970.00 14312951.00 L 50278387.00 14312951.00 L 50316791.00 14305312.00 L 50349347.00 14283558.00 L 50464660.00 14168245.00 L 50486414.00 14135689.00 L 50494053.00 14097285.00 L 50494053.00 13938976.00 L 50634252.00 13938976.00 L 50634252.00 12561024.00 L 50240552.00 12561024.00 L 50240552.00 13938976.00 L 50293347.00 13938976.00 L 50293347.00 14055718.00 L 50236820.00 14112245.00 L 49187403.00 14112245.00 L 49148999.00 14119884.00 L 49116443.00 14141638.00 L 48829040.00 14429041.00 L 48807286.00 14461597.00 L 48799647.00 14500001.00 L 48799647.00 15125642.00 L 48732642.00 15125642.00 L 48732642.00 15322492.00 L 48756304.00 15322492.00 L 48756304.00 15381547.00 L 48732642.00 15381547.00 L 48732642.00 15578397.00 L 48756304.00 15578397.00 L 48756304.00 15637453.00 L 48732642.00 15637453.00 L 48732642.00 15834303.00 L 48846964.50 15834303.00 L 48856657.00 15836231.00 L 48866349.50 15834303.00 L 48980672.00 15834303.00 L 48980672.00 15690608.00 L 49248390.00 15690608.00 L 49248390.00 15766104.00 L 49464924.00 15766104.00 L 49464924.00 15529884.00 L 49248390.00 15529884.00 L 49248390.00 15605380.00 L 48957010.00 15605380.00 L 48957010.00 15578397.00 L 48980672.00 15578397.00 L 48980672.00 15381547.00 L 48957010.00 15381547.00 L 48957010.00 15353191.66 L 48958882.00 15353967.00 L 48984601.12 15343315.00 L 49385122.07 15343315.00 L 49540421.00 15498613.07 L 49540421.00 15731110.00 L 49552902.00 15761243.00 L 49707176.00 15915517.00 L 49737309.00 15927998.00 L 49851486.00 15927998.00 L 49851486.00 16047367.00 A 51663.88 51663.88 0 1 0 49954814.00 16047367.00  z"/>
<path id="N" d="M 50925197.00 24566930.00 L 50649607.00 24566930.00 L 50649607.00 26220472.00 L 50925197.00 26220472.00 L 50925197.00 24566930.00  z"/>
<path id="N" d="M 45763345.00 15307638.00 L 45763345.00 13850000.00 L 45767717.00 13850000.00 L 45767717.00 13550000.00 L 45538541.91 13550000.00 L 45503371.00 13573500.00 L 45470323.85 13580073.78 L 45464672.00 13566430.00 L 45449606.00 13560189.00 L 45252756.00 13560189.00 L 45237690.00 13566430.00 L 45231449.00 13581496.00 L 45231449.00 13640550.00 L 45237690.00 13655616.00 L 45255461.00 13661857.00 L 45255461.00 13757040.00 L 45237690.00 13763281.00 L 45231449.00 13778347.00 L 45231449.00 13837401.00 L 45237690.00 13852467.00 L 45252756.00 13858708.00 L 45449606.00 13858708.00 L 45464672.00 13852467.00 L 45470323.85 13838823.22 L 45503371.00 13845397.00 L 45510260.01 13850000.00 L 45562639.00 13850000.00 L 45562639.00 15307638.00 A 100353.26 100353.26 0 1 0 45763345.00 15307638.00  z"/>
<path id="N" d="M 50551181.00 20196850.00 L 50248073.00 20196851.00 L 50233603.00 20202844.00 L 50222528.00 20213919.00 L 50216535.00 20228389.00 L 50216535.00 20244052.00 L 50222528.00 20258522.00 L 50233603.00 20269597.00 L 50248073.00 20275591.00 L 50551181.00 20275591.00 L 50551181.00 20196850.00  z"/>
<path id="N" d="M 49350394.00 18714566.00 L 48700788.00 18714566.00 L 48700788.00 19474408.00 L 49350394.00 19474408.00 L 49350394.00 18714566.00  z"/>
<path id="N" d="M 51318897.00 24566930.00 L 51043307.00 24566930.00 L 51043307.00 26220472.00 L 51318897.00 26220472.00 L 51318897.00 24566930.00  z"/>
<path id="N" d="M 44454007.00 16487471.00 L 44460297.00 16472284.00 L 44460297.00 16401732.00 L 44454007.00 16386545.00 L 44438820.00 16380255.00 L 44143858.00 16380255.00 L 44128671.00 16386545.00 L 44122381.00 16401732.00 L 44122381.00 16472284.00 L 44128671.00 16487471.00 L 44143858.00 16493761.00 L 44438820.00 16493761.00 L 44454007.00 16487471.00  z"/>
<path id="N" d="M 48623622.00 22265354.00 L 48446458.00 22265354.00 L 48446458.00 22462204.00 L 48623622.00 22462204.00 L 48623622.00 22265354.00  z"/>
<path id="N" d="M 47368874.00 20783764.00 L 47105814.00 20783764.00 L 47105814.00 21048518.00 L 47368874.00 21048518.00 L 47368874.00 20783764.00  z"/>
<path id="N" d="M 44029571.00 17697650.00 L 43770429.00 17697650.00 L 43770429.00 17974838.00 L 44029571.00 17974838.00 L 44029571.00 17697650.00  z"/>
<path id="N" d="M 42658267.00 17699213.00 L 42441733.00 17699213.00 L 42441733.00 17935433.00 L 42658267.00 17935433.00 L 42658267.00 17699213.00  z"/>
<path id="N" d="M 47867417.00 21894634.00 L 47602663.00 21894634.00 L 47602663.00 22157694.00 L 47867417.00 22157694.00 L 47867417.00 21894634.00  z"/>
<path id="N" d="M 48530279.00 16683034.00 L 48338257.00 16683034.00 L 48338257.00 16090208.00 L 48512168.00 16090208.00 L 48512168.00 15125642.00 L 47602720.00 15125642.00 L 47602720.00 15322492.00 L 47764137.00 15322492.00 L 47764137.00 15381547.00 L 47602720.00 15381547.00 L 47602720.00 15578397.00 L 47764137.00 15578397.00 L 47764137.00 15637453.00 L 47602720.00 15637453.00 L 47602720.00 15834303.00 L 47764137.00 15834303.00 L 47764137.00 15893358.00 L 47602720.00 15893358.00 L 47602720.00 16090208.00 L 47936843.00 16090208.00 L 47936843.00 16683034.00 L 47620831.00 16683034.00 L 47620831.00 16879884.00 L 47782248.00 16879884.00 L 47782248.00 16938939.00 L 47620831.00 16938939.00 L 47620831.00 17135789.00 L 47782248.00 17135789.00 L 47782248.00 17194845.00 L 47620831.00 17194845.00 L 47620831.00 17391695.00 L 47782248.00 17391695.00 L 47782248.00 17450750.00 L 47620831.00 17450750.00 L 47620831.00 17647600.00 L 48530279.00 17647600.00 L 48530279.00 16683034.00  z"/>
<path id="N" d="M 48169291.00 24566930.00 L 47893701.00 24566930.00 L 47893701.00 26220472.00 L 48169291.00 26220472.00 L 48169291.00 24566930.00  z"/>
<path id="N" d="M 48964524.00 20748031.00 L 48978994.00 20742037.00 L 48990069.00 20730962.00 L 48996063.00 20716492.00 L 48996063.00 20700829.00 L 48990069.00 20686359.00 L 48978994.00 20675284.00 L 48964524.00 20669291.00 L 48661417.00 20669291.00 L 48661417.00 20748032.00 L 48964524.00 20748031.00  z"/>
<path id="N" d="M 47764266.00 20783764.00 L 47501206.00 20783764.00 L 47501206.00 21048518.00 L 47764266.00 21048518.00 L 47764266.00 20783764.00  z"/>
<path id="N" d="M 47775590.00 24566930.00 L 47500000.00 24566930.00 L 47500000.00 26220472.00 L 47775590.00 26220472.00 L 47775590.00 24566930.00  z"/>
</g>
</svg>
