<svg width="31.90378176mm" height="47.33746438mm" viewBox="0 0 12560544 18636797"  version="1.1" xmlns="http://www.w3.org/2000/svg" xmlns:xlink="http://www.w3.org/1999/xlink">
<desc>
Origin 47244094 17224409 Bound 40997224 8134916 12560544 18636797
</desc>
<g fill-rule="evenodd" fill="rgb(0, 0, 255)" stroke="black" stroke-width="1" transform="translate(0, 18636797) scale(1, -1) translate(-40997224, -8134916)">
<path id="N" d="M 49350394.00 24566930.00 L 49074804.00 24566930.00 L 49074804.00 26220472.00 L 49350394.00 26220472.00 L 49350394.00 24566930.00  z"/>
<path id="N" d="M 44232283.00 24566930.00 L 43956693.00 24566930.00 L 43956693.00 26220472.00 L 44232283.00 26220472.00 L 44232283.00 24566930.00  z"/>
<path id="N" d="M 45413386.00 24566930.00 L 45137796.00 24566930.00 L 45137796.00 26220472.00 L 45413386.00 26220472.00 L 45413386.00 24566930.00  z"/>
<path id="N" d="M 48562992.00 24566930.00 L 48287402.00 24566930.00 L 48287402.00 26220472.00 L 48562992.00 26220472.00 L 48562992.00 24566930.00  z"/>
<path id="N" d="M 45807086.00 24566930.00 L 45531496.00 24566930.00 L 45531496.00 26220472.00 L 45807086.00 26220472.00 L 45807086.00 24566930.00  z"/>
<path id="N" d="M 50925197.00 24566930.00 L 50649607.00 24566930.00 L 50649607.00 26220472.00 L 50925197.00 26220472.00 L 50925197.00 24566930.00  z"/>
<path id="N" d="M 44925307.00 14705058.00 L 45246850.00 14704079.00 L 45292049.00 14685357.00 L 46625154.36 13352251.64 A 68362.97 68362.97 0 1 0 46535100.00 13260126.00 L 45220373.00 14576237.00 L 44926772.16 14576237.00 L 44898425.00 14569911.00 L 44871543.00 14575258.00 L 44370655.63 14576237.00 L 44360260.00 14571931.00 L 43989788.47 14571930.22 L 43980696.00 14568164.00 L 43707197.00 14567185.00 L 43174157.00 14035529.00 L 43174157.00 13325591.16 A 68360.19 68360.19 0 1 0 43045336.00 13324126.00 L 43046315.00 14062006.00 L 43065037.00 14107205.00 L 43615071.36 14657239.36 A 68362.97 68362.97 0 0 0 43707197.00 14696985.00 L 43971603.99 14696006.00 L 43987126.00 14702435.00 L 43993555.06 14699772.00 L 44354170.37 14699773.00 L 44364566.00 14704079.00 L 44870077.84 14704079.00 L 44898425.00 14710405.00 L 44925307.00 14705058.00  z"/>
<path id="N" d="M 50531496.00 24566930.00 L 50255906.00 24566930.00 L 50255906.00 26220472.00 L 50531496.00 26220472.00 L 50531496.00 24566930.00  z"/>
<path id="N" d="M 43838583.00 24566930.00 L 43562993.00 24566930.00 L 43562993.00 26220472.00 L 43838583.00 26220472.00 L 43838583.00 24566930.00  z"/>
<path id="N" d="M 44658157.00 14797305.00 L 43431989.00 14798284.00 L 42613921.00 13980216.00 L 42613921.00 11331497.16 A 68360.19 68360.19 0 1 0 42485100.00 11330032.00 L 42486079.00 14006693.00 L 42504801.00 14051892.00 L 43360313.00 14907404.00 L 43405512.00 14926126.00 L 44656691.84 14926126.00 A 68360.19 68360.19 0 1 0 44658157.00 14797305.00  z"/>
<path id="N" d="M 43423140.00 10922047.00 L 43423140.00 10685827.00 A 220780.35 220780.35 0 0 0 42981586.00 10685827.00 L 42981586.00 10922047.00 A 220780.35 220780.35 0 0 0 43423140.00 10922047.00  zM 43081939.00 10922047.00 L 43081939.00 10685827.00 A 120431.73 120431.73 0 0 1 43322787.00 10685827.00 L 43322787.00 10922047.00 A 120431.73 120431.73 0 0 1 43081939.00 10922047.00  z"/>
<path id="N" d="M 46824714.00 10922047.00 L 46824714.00 10685827.00 A 220780.35 220780.35 0 0 0 46383160.00 10685827.00 L 46383160.00 10922047.00 A 220780.35 220780.35 0 0 0 46824714.00 10922047.00  zM 46483513.00 10922047.00 L 46483513.00 10685827.00 A 120431.73 120431.73 0 0 1 46724361.00 10685827.00 L 46724361.00 10922047.00 A 120431.73 120431.73 0 0 1 46483513.00 10922047.00  z"/>
<path id="N" d="M 43423140.00 12418110.00 L 43423140.00 12181890.00 A 220780.35 220780.35 0 0 0 42981586.00 12181890.00 L 42981586.00 12418110.00 A 220780.35 220780.35 0 0 0 43423140.00 12418110.00  zM 43081939.00 12418110.00 L 43081939.00 12181890.00 A 120431.73 120431.73 0 0 1 43322787.00 12181890.00 L 43322787.00 12418110.00 A 120431.73 120431.73 0 0 1 43081939.00 12418110.00  z"/>
<path id="N" d="M 46824714.00 12418110.00 L 46824714.00 12181890.00 A 220780.35 220780.35 0 0 0 46383160.00 12181890.00 L 46383160.00 12418110.00 A 220780.35 220780.35 0 0 0 46824714.00 12418110.00  zM 46483513.00 12418110.00 L 46483513.00 12181890.00 A 120431.73 120431.73 0 0 1 46724361.00 12181890.00 L 46724361.00 12418110.00 A 120431.73 120431.73 0 0 1 46483513.00 12418110.00  z"/>
<path id="N" d="M 45068895.47 16535431.47 m -100354.75 0 a 100354.75 100354.75 0 1 1 200709.51 0a 100354.75 100354.75 0 1 1 -200709.51 0"/>
<path id="N" d="M 44675195.47 16535431.47 m -100354.75 0 a 100354.75 100354.75 0 1 1 200709.51 0a 100354.75 100354.75 0 1 1 -200709.51 0"/>
<path id="N" d="M 44603147.47 13906297.47 m -100354.75 0 a 100354.75 100354.75 0 1 1 200709.51 0a 100354.75 100354.75 0 1 1 -200709.51 0"/>
<path id="N" d="M 44799997.47 13709447.47 m -100354.75 0 a 100354.75 100354.75 0 1 1 200709.51 0a 100354.75 100354.75 0 1 1 -200709.51 0"/>
<path id="N" d="M 44996847.47 13906297.47 m -100354.75 0 a 100354.75 100354.75 0 1 1 200709.51 0a 100354.75 100354.75 0 1 1 -200709.51 0"/>
<path id="N" d="M 49251976.16 20669299.16 m -120412.98 0 a 120412.98 120412.98 0 1 1 240825.96 0a 120412.98 120412.98 0 1 1 -240825.96 0"/>
<path id="N" d="M 49606307.16 20275599.16 m -120412.98 0 a 120412.98 120412.98 0 1 1 240825.96 0a 120412.98 120412.98 0 1 1 -240825.96 0"/>
<path id="N" d="M 49251976.16 20275599.16 m -120412.98 0 a 120412.98 120412.98 0 1 1 240825.96 0a 120412.98 120412.98 0 1 1 -240825.96 0"/>
<path id="N" d="M 49960638.16 20275599.16 m -120412.98 0 a 120412.98 120412.98 0 1 1 240825.96 0a 120412.98 120412.98 0 1 1 -240825.96 0"/>
<path id="N" d="M 49606307.16 20669299.16 m -120412.98 0 a 120412.98 120412.98 0 1 1 240825.96 0a 120412.98 120412.98 0 1 1 -240825.96 0"/>
<path id="N" d="M 49960638.16 20669299.16 m -120412.98 0 a 120412.98 120412.98 0 1 1 240825.96 0a 120412.98 120412.98 0 1 1 -240825.96 0"/>
<path id="N" d="M 49299997.57 16799997.57 m -70250.25 0 a 70250.25 70250.25 0 1 1 140500.51 0a 70250.25 70250.25 0 1 1 -140500.51 0"/>
<path id="N" d="M 44872045.47 16240155.47 m -100354.75 0 a 100354.75 100354.75 0 1 1 200709.51 0a 100354.75 100354.75 0 1 1 -200709.51 0"/>
<path id="N" d="M 49299997.57 17049997.57 m -70250.25 0 a 70250.25 70250.25 0 1 1 140500.51 0a 70250.25 70250.25 0 1 1 -140500.51 0"/>
<path id="N" d="M 49299997.57 17299997.57 m -70250.25 0 a 70250.25 70250.25 0 1 1 140500.51 0a 70250.25 70250.25 0 1 1 -140500.51 0"/>
<path id="N" d="M 44996847.47 13512597.47 m -100354.75 0 a 100354.75 100354.75 0 1 1 200709.51 0a 100354.75 100354.75 0 1 1 -200709.51 0"/>
<path id="N" d="M 44603147.47 13512597.47 m -100354.75 0 a 100354.75 100354.75 0 1 1 200709.51 0a 100354.75 100354.75 0 1 1 -200709.51 0"/>
<path id="N" d="M 45068895.47 15944879.47 m -100354.75 0 a 100354.75 100354.75 0 1 1 200709.51 0a 100354.75 100354.75 0 1 1 -200709.51 0"/>
<path id="N" d="M 44675195.47 15944879.47 m -100354.75 0 a 100354.75 100354.75 0 1 1 200709.51 0a 100354.75 100354.75 0 1 1 -200709.51 0"/>
<path id="N" d="M 50137795.00 24566930.00 L 49862205.00 24566930.00 L 49862205.00 26220472.00 L 50137795.00 26220472.00 L 50137795.00 24566930.00  z"/>
<path id="N" d="M 44625984.00 24566930.00 L 44350394.00 24566930.00 L 44350394.00 26220472.00 L 44625984.00 26220472.00 L 44625984.00 24566930.00  z"/>
<path id="N" d="M 46200787.00 24566930.00 L 45925197.00 24566930.00 L 45925197.00 26220472.00 L 46200787.00 26220472.00 L 46200787.00 24566930.00  z"/>
<path id="N" d="M 47381890.00 24566930.00 L 47106300.00 24566930.00 L 47106300.00 26220472.00 L 47381890.00 26220472.00 L 47381890.00 24566930.00  z"/>
<path id="N" d="M 49744094.00 24566930.00 L 49468504.00 24566930.00 L 49468504.00 26220472.00 L 49744094.00 26220472.00 L 49744094.00 24566930.00  z"/>
<path id="N" d="M 48956693.00 24566930.00 L 48681103.00 24566930.00 L 48681103.00 26220472.00 L 48956693.00 26220472.00 L 48956693.00 24566930.00  z"/>
<path id="N" d="M 47775590.00 24566930.00 L 47500000.00 24566930.00 L 47500000.00 26220472.00 L 47775590.00 26220472.00 L 47775590.00 24566930.00  z"/>
<path id="N" d="M 51318897.00 24566929.00 L 51043307.00 24566929.00 L 51043307.00 25826771.00 L 51318897.00 25826771.00 L 51318897.00 24566929.00  z"/>
<path id="N" d="M 44221370.00 14364900.00 L 45267689.00 14363921.00 L 45312888.00 14345199.00 L 47295199.00 12362888.00 L 47313921.00 12317689.00 L 47313921.00 11285040.16 A 68360.19 68360.19 0 1 0 47185100.00 11283575.00 L 47186079.00 12291212.00 L 45241212.00 14236079.00 L 44222835.16 14236079.00 A 68360.19 68360.19 0 1 0 44221370.00 14364900.00  z"/>
<path id="N" d="M 48169291.00 24566930.00 L 47893701.00 24566930.00 L 47893701.00 26220472.00 L 48169291.00 26220472.00 L 48169291.00 24566930.00  z"/>
<path id="N" d="M 45019685.00 24566930.00 L 44744095.00 24566930.00 L 44744095.00 26220472.00 L 45019685.00 26220472.00 L 45019685.00 24566930.00  z"/>
</g>
</svg>
